<svg width="70" height="86" viewBox="0 0 70 86" fill="none" xmlns="http://www.w3.org/2000/svg">
<path d="M61.8093 40.2394V26.8262C61.8093 25.1684 61.6563 23.3599 61.3503 21.7021C65.9401 16.2766 68.388 9.49468 68.388 2.41135V0.753546C68.388 0.452128 68.082 0.150709 67.7761 0.150709H49.4169L29.6807 0H20.1951C16.8293 0 13.4634 0.904255 10.5565 2.56206C9.33259 3.3156 8.10865 4.21986 7.03769 5.27482C3.36585 8.89184 1.22395 13.5638 1.22395 18.6879C1.22395 23.8121 3.36585 28.6348 7.19069 32.2518V40.3901C3.21286 40.3901 0 43.555 0 47.4734C0 51.3918 3.21286 54.5567 7.19069 54.5567V58.3245C7.19069 73.094 19.4302 85.3014 34.5765 85.3014C49.7228 85.3014 61.9623 73.2447 61.9623 58.3245V54.5567C65.9401 54.5567 69.153 51.3918 69.153 47.4734C69.153 43.555 65.7871 40.2394 61.8093 40.2394ZM7.19069 44.7606V49.8848C5.81375 49.8848 4.5898 48.6791 4.5898 47.3227C4.5898 45.9663 5.66075 44.7606 7.19069 44.7606ZM56.4546 20.7979C56.7605 22.1543 57.0665 23.3599 57.2195 24.5656C57.3725 25.3192 57.3725 26.0727 57.3725 26.8262V58.1738C57.3725 70.5319 47.122 80.6294 34.5765 80.6294C22.031 80.6294 11.6275 70.5319 11.6275 58.1738V30.4433C11.6275 30.2926 11.4745 30.1418 11.4745 29.9911C10.2506 29.0869 9.1796 27.8812 8.26164 26.6755C6.73171 24.2642 5.81375 21.5514 5.81375 18.8387C5.81375 15.6738 6.8847 12.8103 8.72062 10.2482C9.48559 9.04255 10.4035 8.1383 11.4745 7.38475C14.0754 5.42553 17.1353 4.37057 20.3481 4.37057H28.1508L48.0399 4.67199H63.9512C63.4922 9.19326 61.9623 13.5638 59.2084 17.3316C58.4435 18.3865 57.6785 19.2908 56.7605 20.3457C56.4545 20.4965 56.3016 20.6472 56.4546 20.7979ZM61.8093 49.8848V44.7606C63.1863 44.7606 64.4102 45.9663 64.4102 47.3227C64.4102 48.6791 63.3393 49.8848 61.8093 49.8848Z" fill="#4876D0"/>
<path d="M34.7295 56.3652C34.1175 56.3652 33.3526 56.6667 32.8936 57.1188C32.4346 57.5709 32.2816 58.1737 32.2816 58.7766C32.2816 60.133 33.3526 61.1879 34.7295 61.1879C35.3415 61.1879 36.1065 60.8865 36.5654 60.4344C37.0244 59.9822 37.1774 59.3794 37.1774 58.7766C37.1774 57.4202 36.1065 56.3652 34.7295 56.3652Z" fill="#4876D0"/>
<path d="M34.7295 24.2642C29.3747 24.2642 24.9379 28.6347 24.9379 33.9095C24.9379 35.1152 25.8559 36.0195 27.0798 36.0195C28.3038 36.0195 29.2217 35.1152 29.2217 33.9095C29.2217 30.8954 31.6696 28.484 34.7295 28.484C37.7893 28.484 40.2372 30.8954 40.2372 33.9095C40.2372 36.9237 37.7893 39.3351 34.7295 39.3351C33.5055 39.3351 32.5876 40.2393 32.5876 41.445V49.1312C32.5876 50.3369 33.5055 51.2411 34.7295 51.2411C35.9534 51.2411 36.8714 50.3369 36.8714 49.1312V43.2535C41.3082 42.3493 44.5211 38.2801 44.5211 33.9095C44.5211 28.484 40.2372 24.2642 34.7295 24.2642Z" fill="#4876D0"/>
</svg>
