<svg width="90" height="90" viewBox="0 0 90 90" fill="none" xmlns="http://www.w3.org/2000/svg">
<circle cx="45" cy="45" r="45" fill="#F4F8FF"/>
<path d="M25.5762 44.2895C26.547 44.2895 27.334 43.4942 27.334 42.5131C27.334 41.532 26.547 40.7367 25.5762 40.7367C24.6054 40.7367 23.8184 41.532 23.8184 42.5131C23.8184 43.4942 24.6054 44.2895 25.5762 44.2895Z" fill="#4876D0"/>
<path d="M35.6133 50.2048C36.5841 50.2048 37.3711 49.4094 37.3711 48.4284C37.3711 47.4473 36.5841 46.652 35.6133 46.652C34.6425 46.652 33.8555 47.4473 33.8555 48.4284C33.8555 49.4094 34.6425 50.2048 35.6133 50.2048Z" fill="#4876D0"/>
<path d="M45.6152 39.1913C46.586 39.1913 47.373 38.396 47.373 37.4149C47.373 36.4339 46.586 35.6385 45.6152 35.6385C44.6444 35.6385 43.8574 36.4339 43.8574 37.4149C43.8574 38.396 44.6444 39.1913 45.6152 39.1913Z" fill="#4876D0"/>
<path d="M55.4062 43.5789C56.3771 43.5789 57.1641 42.7836 57.1641 41.8025C57.1641 40.8214 56.3771 40.0261 55.4062 40.0261C54.4354 40.0261 53.6484 40.8214 53.6484 41.8025C53.6484 42.7836 54.4354 43.5789 55.4062 43.5789Z" fill="#4876D0"/>
<path d="M65.0918 31.0376C66.0626 31.0376 66.8496 30.2423 66.8496 29.2612C66.8496 28.2802 66.0626 27.4849 65.0918 27.4849C64.121 27.4849 63.334 28.2802 63.334 29.2612C63.334 30.2423 64.121 31.0376 65.0918 31.0376Z" fill="#4876D0"/>
<path d="M88.2422 64.3093H52.6465C51.6797 64.3093 50.8887 65.1087 50.8887 66.0857C50.8887 67.7377 49.5527 69.0878 47.918 69.0878H42.0293C40.3945 69.0878 39.0586 67.7377 39.0586 66.0857C39.0586 65.1087 38.2676 64.3093 37.3008 64.3093H9.63281V18.3009C9.63281 16.2403 11.3027 14.5528 13.3418 14.5528H76.6582C78.6973 14.5528 80.3672 16.2403 80.3672 18.3009V52.4963C80.3672 53.4734 81.1582 54.2727 82.125 54.2727C83.0918 54.2727 83.8828 53.4734 83.8828 52.4963V18.3009C83.8828 14.2685 80.6484 11 76.6582 11H13.3418C9.36914 11 6.11719 14.2685 6.11719 18.3009V64.3093H1.75781C0.791016 64.3093 0 65.1087 0 66.0857V68.8746C0 74.4525 4.5 79 10.0195 79H79.9805C85.5 79 90 74.4525 90 68.8746V66.0857C90 65.1087 89.209 64.3093 88.2422 64.3093ZM86.4844 68.8746C86.4844 72.4984 83.5664 75.4472 79.9805 75.4472H10.0195C6.43359 75.4472 3.51562 72.4984 3.51562 68.8746V67.8621H35.7891C36.5625 70.6155 39.0586 72.6405 42.0293 72.6405H47.918C50.8887 72.6405 53.3848 70.6155 54.1582 67.8621H86.4844V68.8746Z" fill="#4876D0"/>
<path d="M74.918 18.5851H15.6797C14.7129 18.5851 13.9219 19.3845 13.9219 20.3615V58.6248C13.9219 59.6018 14.7129 60.4012 15.6797 60.4012H74.918C75.8848 60.4012 76.6758 59.6018 76.6758 58.6248V20.3615C76.6758 19.3667 75.8848 18.5851 74.918 18.5851ZM73.1602 56.8484H66.8672V35.5496C66.8672 34.5725 66.0762 33.7732 65.1094 33.7732C64.1426 33.7732 63.3516 34.5725 63.3516 35.5496V56.8306H56.9883V48.9257C56.9883 47.9487 56.1973 47.1493 55.2305 47.1493C54.2637 47.1493 53.4727 47.9487 53.4727 48.9257V56.8306H47.1094V44.8223C47.1094 43.8453 46.3184 43.0459 45.3516 43.0459C44.3848 43.0459 43.5937 43.8453 43.5937 44.8223V56.8306H37.2305V55.1075C37.2305 54.1305 36.4395 53.3312 35.4727 53.3312C34.5059 53.3312 33.7148 54.1305 33.7148 55.1075V56.8306H27.3516V49.7784C27.3516 48.8014 26.5605 48.002 25.5938 48.002C24.627 48.002 23.8359 48.8014 23.8359 49.7784V56.8306H17.4375V22.1379H73.1602V56.8484Z" fill="#4876D0"/>
<path d="M81.9141 61.2184C82.8849 61.2184 83.6719 60.4231 83.6719 59.442C83.6719 58.461 82.8849 57.6656 81.9141 57.6656C80.9432 57.6656 80.1562 58.461 80.1562 59.442C80.1562 60.4231 80.9432 61.2184 81.9141 61.2184Z" fill="#4876D0"/>
</svg>
