<svg width="90" height="90" viewBox="0 0 90 90" fill="none" xmlns="http://www.w3.org/2000/svg">
<circle cx="45" cy="45" r="45" fill="#F4F8FF"/>
<path d="M65.897 30.4061C64.3939 30.4061 62.9394 30.6 61.4849 30.9394L53.9697 23.4243C53.2909 22.7455 52.1758 22.7455 51.497 23.4243C50.8182 24.103 50.8182 25.2182 51.497 25.897L57.8 32.2C51.1091 35.3515 46.7455 42.0909 46.7455 49.5091V50.6727L45 57.8485L43.2061 50.6727V49.4606C43.2061 42.0424 38.8909 35.303 32.1515 32.1515L38.2121 26.0909C38.8909 25.4121 38.8909 24.297 38.2121 23.6182C37.8727 23.2788 37.4364 23.1333 37 23.1333C36.5636 23.1333 36.0788 23.3273 35.7879 23.6182L28.5152 30.8909C27.0606 30.5515 25.6061 30.3576 24.103 30.3576C19.0121 30.3576 14.2121 32.3455 10.5758 35.9333C6.98788 39.5697 5 44.3697 5 49.4606V83.2546C5 84.2242 5.77576 85 6.74545 85C7.71515 85 8.49091 84.2242 8.49091 83.2546V49.4606C8.49091 45.2909 10.1394 41.3636 13.0485 38.4061C16.3455 35.1091 20.8061 33.4606 25.5091 33.897L18.8667 40.5879C18.2364 40.297 17.5576 40.1515 16.8788 40.1515C14.2121 40.1515 12.0303 42.3333 12.0303 45C12.0303 47.6667 14.2121 49.8485 16.8788 49.8485C19.5455 49.8485 21.7273 47.6667 21.7273 45C21.7273 44.3212 21.5818 43.6424 21.2909 43.0121L29.4848 34.8182C35.5939 37.097 39.7152 42.9636 39.7152 49.4606V50.8667C39.7152 51.0121 39.7152 51.1576 39.7636 51.303L42.7697 63.2788H37.8727C36.903 63.2788 36.1273 64.0546 36.1273 65.0243V66.5758C36.1273 66.7697 36.1273 67.0121 36.0788 67.2061C34.7212 67.1091 33.3636 66.6727 32.2 65.9455C31.8121 65.703 31.3273 65.6061 30.8909 65.7515C30.4545 65.8485 30.0667 66.1394 29.8242 66.5273C29.5818 66.9152 29.4848 67.4 29.6303 67.8364C29.7758 68.2727 30.0182 68.6606 30.4061 68.903C31.7152 69.7273 33.1212 70.2606 34.6242 70.5515C33.5091 71.8121 31.9091 72.5394 30.1636 72.5394H28.5636C26.0909 72.5394 24.0545 74.5758 24.0545 77.0485V83.303C24.0545 84.2727 24.8303 85.0485 25.8 85.0485C26.7697 85.0485 27.5455 84.2727 27.5455 83.303V77.0485C27.5455 76.4667 28.0303 75.9818 28.6121 75.9818H30.2121C35.303 75.9818 39.5212 71.8606 39.6182 66.7697H50.3818C50.4788 71.8606 54.697 75.9818 59.7879 75.9818H61.3879C61.9697 75.9818 62.4545 76.4667 62.4545 77.0485V83.303C62.4545 84.2727 63.2303 85.0485 64.2 85.0485C65.1697 85.0485 65.9455 84.2727 65.9455 83.303V77.0485C65.9455 74.5758 63.9091 72.5394 61.4364 72.5394H59.8364C58.1394 72.5394 56.5394 71.8121 55.3758 70.5515C56.8788 70.2606 58.2849 69.7273 59.5939 68.903C59.9818 68.6606 60.2727 68.2727 60.3697 67.8364C60.4667 67.4 60.4182 66.9152 60.1758 66.5273C59.9333 66.1394 59.5455 65.8485 59.1091 65.7515C58.6727 65.6546 58.1879 65.703 57.8 65.9455C56.6364 66.6727 55.2788 67.1091 53.9212 67.2061C53.9212 66.9636 53.8727 66.7697 53.8727 66.5758V65.0243C53.8727 64.0546 53.097 63.2788 52.1273 63.2788H47.2303L50.2364 51.303C50.2849 51.1576 50.2849 51.0121 50.2849 50.8667V49.4606C50.2849 42.9636 54.4061 37.0485 60.5152 34.8182L68.7576 43.0606C68.4667 43.6909 68.3697 44.3212 68.3697 45C68.3697 47.6667 70.5515 49.8485 73.2182 49.8485C75.8848 49.8485 78.0667 47.6667 78.0667 45C78.0667 42.3333 75.8848 40.1515 73.2182 40.1515C72.5394 40.1515 71.8606 40.297 71.2303 40.5879L64.5879 33.9455C69.2909 33.5091 73.7515 35.1576 77.0485 38.4546C80.0061 41.4121 81.6061 45.3394 81.6061 49.5091V83.303C81.6061 84.2727 82.3818 85.0485 83.3515 85.0485C84.3212 85.0485 85.097 84.2727 85.097 83.303V49.5091C85.097 44.4182 83.1091 39.6182 79.5212 35.9818C75.7879 32.3939 70.9879 30.4061 65.897 30.4061ZM16.8788 46.3576C16.103 46.3576 15.5212 45.7273 15.5212 45C15.5212 44.2727 16.1515 43.6424 16.8788 43.6424C17.6061 43.6424 18.2364 44.2727 18.2364 45C18.2364 45.7273 17.6545 46.3576 16.8788 46.3576ZM73.1697 43.6424C73.9455 43.6424 74.5273 44.2727 74.5273 45C74.5273 45.7273 73.897 46.3576 73.1697 46.3576C72.4424 46.3576 71.8121 45.7273 71.8121 45C71.8121 44.2727 72.3939 43.6424 73.1697 43.6424Z" fill="#4876D0"/>
<path d="M79.5211 22.3576C82.5272 22.3576 84.9999 19.8849 84.9999 16.8788C84.9999 13.8728 82.5272 11.4 79.5211 11.4C76.5151 11.4 74.0424 13.8728 74.0424 16.8788C74.0424 19.8849 76.5151 22.3576 79.5211 22.3576ZM79.5211 14.8909C80.6363 14.8909 81.509 15.7637 81.509 16.8788C81.509 17.994 80.6363 18.8667 79.5211 18.8667C78.406 18.8667 77.5333 17.994 77.5333 16.8788C77.5333 15.7637 78.4545 14.8909 79.5211 14.8909Z" fill="#4876D0"/>
<path d="M10.4788 22.3576C13.4848 22.3576 15.9576 19.8849 15.9576 16.8788C15.9576 13.8728 13.4848 11.4 10.4788 11.4C7.47273 11.4 5 13.8728 5 16.8788C5 19.8849 7.47273 22.3576 10.4788 22.3576ZM10.4788 14.8909C11.5939 14.8909 12.4667 15.7637 12.4667 16.8788C12.4667 17.994 11.5939 18.8667 10.4788 18.8667C9.36364 18.8667 8.49091 17.994 8.49091 16.8788C8.49091 15.7637 9.36364 14.8909 10.4788 14.8909Z" fill="#4876D0"/>
<path d="M69.291 18.6243C69.7273 18.6243 70.2122 18.4303 70.5031 18.1394C70.8425 17.8 70.9879 17.3637 70.9879 16.9273C70.9879 16.491 70.794 16.0061 70.5031 15.7152C70.1637 15.3758 69.7273 15.2303 69.291 15.2303C68.8546 15.2303 68.3698 15.4243 68.0788 15.7152C67.7394 16.0546 67.594 16.491 67.594 16.9273C67.594 17.3637 67.7879 17.8485 68.0788 18.1394C68.4182 18.4303 68.8546 18.6243 69.291 18.6243Z" fill="#4876D0"/>
<path d="M26.8182 18.6242H38.5515C39.3273 21.5818 41.994 23.6182 45.0485 23.6182C48.1031 23.6182 50.7697 21.5818 51.5455 18.6242H63.1818C64.1515 18.6242 64.9273 17.8485 64.9273 16.8788C64.9273 15.9091 64.1515 15.1333 63.1818 15.1333H51.497C50.8667 12.8061 49.0728 11.0121 46.7455 10.3818V6.74545C46.7455 5.77576 45.9697 5 45 5C44.0303 5 43.2546 5.77576 43.2546 6.74545V10.3818C40.9273 11.0121 39.1334 12.8061 38.5031 15.1333H26.8182C25.8485 15.1333 25.0728 15.9091 25.0728 16.8788C25.0728 17.8485 25.8485 18.6242 26.8182 18.6242ZM41.7515 16.8788C41.7515 15.0848 43.2061 13.6303 45 13.6303C46.794 13.6303 48.2485 15.0848 48.2485 16.8788C48.2485 18.6727 46.794 20.1273 45 20.1273C43.2061 20.1273 41.7515 18.6727 41.7515 16.8788Z" fill="#4876D0"/>
<path d="M20.7091 18.6243C21.1454 18.6243 21.6303 18.4303 21.9212 18.1394C22.2606 17.8 22.4545 17.3637 22.4545 16.9273C22.4545 16.491 22.2606 16.0061 21.9212 15.7152C21.5818 15.3758 21.1454 15.2303 20.7091 15.2303C20.2727 15.2303 19.7878 15.4243 19.4969 15.7152C19.1575 16.0546 19.0121 16.491 19.0121 16.9273C19.0121 17.3637 19.206 17.8485 19.4969 18.1394C19.7878 18.4303 20.2242 18.6243 20.7091 18.6243Z" fill="#4876D0"/>
<path d="M55.3757 49.8485C55.0363 50.1879 54.8909 50.6243 54.8909 51.0606C54.8909 51.497 55.0848 51.9818 55.3757 52.2727C55.7151 52.6121 56.1515 52.8061 56.5878 52.8061C57.0242 52.8061 57.509 52.6121 57.8 52.2727C58.1394 51.9333 58.3333 51.497 58.3333 51.0606C58.3333 50.6243 58.1394 50.1394 57.8484 49.8485C57.509 49.5091 57.0727 49.3636 56.6363 49.3636C56.2 49.3636 55.6666 49.5091 55.3757 49.8485Z" fill="#4876D0"/>
<path d="M34.6242 52.2727C34.9636 51.9333 35.1091 51.497 35.1091 51.0606C35.1091 50.6243 34.9151 50.1394 34.6242 49.8485C34.3333 49.5576 33.8484 49.3636 33.4121 49.3636C32.9757 49.3636 32.4909 49.5576 32.2 49.8485C31.8606 50.1394 31.6666 50.6243 31.6666 51.0606C31.6666 51.497 31.8606 51.9818 32.2 52.2727C32.5394 52.6121 32.9757 52.8061 33.4121 52.8061C33.8484 52.8061 34.3333 52.6121 34.6242 52.2727Z" fill="#4876D0"/>
</svg>
