<svg width="90" height="90" viewBox="0 0 90 90" fill="none" xmlns="http://www.w3.org/2000/svg">
<circle cx="45" cy="45" r="45" fill="#F4F8FF"/>
<path d="M82.665 10.3215C81.164 8.82909 79.107 8 76.9944 8H13.0612C8.61362 8 5 11.5927 5 16.0145V71.232C5 75.6538 8.61362 79.2465 13.0612 79.2465H18.009C19.0097 79.2465 19.8436 78.4175 19.8436 77.4225C19.8436 76.4276 19.0097 75.5985 18.009 75.5985H13.0612C10.6706 75.5985 8.66921 73.664 8.66921 71.232V22.7578H81.3308V71.232C81.3308 73.6087 79.385 75.5985 76.9388 75.5985H70.6011C69.6004 75.5985 68.7665 76.4276 68.7665 77.4225C68.7665 78.4175 69.6004 79.2465 70.6011 79.2465H76.9388C81.3864 79.2465 85 75.6538 85 71.232V16.0145C85 13.8589 84.1661 11.8691 82.665 10.3215ZM81.3308 19.1098H8.66921V16.0145C8.66921 13.6378 10.615 11.648 13.0612 11.648H76.9944C79.385 11.648 81.3864 13.5825 81.3864 16.0145V19.1098H81.3308Z" fill="#4876D0"/>
<path d="M74.7707 13.5272H39.7464C38.7457 13.5272 37.9117 14.3563 37.9117 15.3512C37.9117 16.3461 38.7457 17.1752 39.7464 17.1752H74.8263C75.827 17.1752 76.6609 16.3461 76.6609 15.3512C76.6609 14.3563 75.7714 13.5272 74.7707 13.5272Z" fill="#4876D0"/>
<path d="M20.1216 14.08C19.7881 14.4116 19.5657 14.9091 19.5657 15.3512C19.5657 15.7934 19.7881 16.2909 20.1216 16.6225C20.4552 16.9542 20.9555 17.1752 21.4003 17.1752C21.9006 17.1752 22.3454 16.9542 22.6789 16.6225C23.0125 16.2909 23.2349 15.7934 23.2349 15.3512C23.2349 14.8538 23.0125 14.4116 22.6789 14.08C22.0118 13.4167 20.7887 13.4167 20.1216 14.08Z" fill="#4876D0"/>
<path d="M13.8951 14.08C13.5615 14.4116 13.3391 14.9091 13.3391 15.3512C13.3391 15.7934 13.5615 16.2909 13.8951 16.6225C14.2286 16.9542 14.729 17.1752 15.1737 17.1752C15.6185 17.1752 16.1188 16.9542 16.4524 16.6225C16.786 16.2909 17.0083 15.7934 17.0083 15.3512C17.0083 14.9091 16.786 14.4116 16.4524 14.08C15.8408 13.4167 14.6178 13.4167 13.8951 14.08Z" fill="#4876D0"/>
<path d="M26.3482 14.08C26.0146 14.4116 25.7922 14.9091 25.7922 15.3512C25.7922 15.7934 26.0146 16.2909 26.3482 16.6225C26.6817 16.9542 27.1821 17.1752 27.6268 17.1752C28.1272 17.1752 28.5719 16.9542 28.9055 16.6225C29.2391 16.2909 29.4614 15.7934 29.4614 15.3512C29.4614 14.9091 29.2391 14.4116 28.9055 14.08C28.2384 13.4167 27.0153 13.4167 26.3482 14.08Z" fill="#4876D0"/>
<path d="M26.1258 37.792C26.4594 38.1236 26.9597 38.3447 27.4045 38.3447C27.8492 38.3447 28.3496 38.1236 28.6831 37.792C29.0167 37.4603 29.2391 36.9629 29.2391 36.5207C29.2391 36.0232 29.0167 35.581 28.6831 35.2494C28.016 34.5861 26.7929 34.5861 26.0702 35.2494C25.7367 35.581 25.5143 36.0785 25.5143 36.5207C25.5699 37.0181 25.7923 37.4603 26.1258 37.792Z" fill="#4876D0"/>
<path d="M50.9764 35.2495C50.6428 35.5811 50.4204 36.0786 50.4204 36.5208C50.4204 37.0182 50.6428 37.4604 50.9764 37.792C51.3099 38.1237 51.8103 38.3448 52.255 38.3448C52.6998 38.3448 53.2001 38.1237 53.5337 37.792C53.8672 37.4604 54.0896 36.9629 54.0896 36.5208C54.0896 36.0233 53.8672 35.5811 53.5337 35.2495C52.8666 34.5309 51.6435 34.5309 50.9764 35.2495Z" fill="#4876D0"/>
<path d="M55.9799 35.2495C55.6463 35.5811 55.424 36.0786 55.424 36.5208C55.424 37.0182 55.6463 37.4604 55.9799 37.792C56.3135 38.1237 56.8138 38.3448 57.2586 38.3448C57.7033 38.3448 58.2037 38.1237 58.5372 37.792C58.8708 37.4604 59.0932 36.9629 59.0932 36.5208C59.0932 36.0786 58.8708 35.5811 58.5372 35.2495C57.8701 34.5309 56.647 34.5309 55.9799 35.2495Z" fill="#4876D0"/>
<path d="M60.9833 35.2495C60.6497 35.5811 60.4274 36.0786 60.4274 36.5208C60.4274 37.0182 60.6497 37.4604 60.9833 37.792C61.3169 38.1237 61.8172 38.3448 62.262 38.3448C62.7067 38.3448 63.2071 38.1237 63.5406 37.792C63.8742 37.4604 64.0966 36.9629 64.0966 36.5208C64.0966 36.0233 63.8742 35.5811 63.5406 35.2495C62.8735 34.5309 61.6504 34.5309 60.9833 35.2495Z" fill="#4876D0"/>
<path d="M62.5955 27.8429H27.4044C26.4037 27.8429 25.5698 28.672 25.5698 29.6669C25.5698 30.6618 26.4037 31.4909 27.4044 31.4909H62.5399C63.5406 31.4909 64.3745 30.6618 64.3745 29.6669C64.3745 28.672 63.5962 27.8429 62.5955 27.8429Z" fill="#4876D0"/>
<path d="M32.9639 34.6967C31.9632 34.6967 31.1293 35.5257 31.1293 36.5207C31.1293 37.5156 31.9632 38.3447 32.9639 38.3447H46.1953C47.196 38.3447 48.0299 37.5156 48.0299 36.5207C48.0299 35.5257 47.196 34.6967 46.1953 34.6967H32.9639Z" fill="#4876D0"/>
<path d="M44.9722 41.5505C33.1862 41.5505 23.624 51.0574 23.624 62.7753C23.624 67.4734 25.1251 71.8953 27.9604 75.5985C30.6845 79.1913 34.6317 81.8996 38.968 83.1709C39.8019 83.392 40.6914 82.9498 40.9138 82.1207C41.025 81.7338 40.9694 81.2916 40.8026 80.9047C40.5802 80.5178 40.2467 80.2414 39.8575 80.1309C32.1855 77.8647 26.7929 70.7345 26.7929 62.7753C26.7929 52.7709 34.9652 44.7011 44.9722 44.7011C55.0347 44.7011 63.1515 52.8262 63.1515 62.7753C63.1515 71.0109 57.5365 78.2516 49.5309 80.2967C48.697 80.5178 48.1966 81.4022 48.419 82.2313C48.5858 82.9498 49.2529 83.392 49.9757 83.392C50.0868 83.392 50.2536 83.392 50.3648 83.3367C59.7602 80.9047 66.3759 72.448 66.3759 62.7753C66.3759 51.0574 56.7581 41.5505 44.9722 41.5505Z" fill="#4876D0"/>
<path d="M44.9722 51.168C45.8617 51.168 46.5288 50.4495 46.5288 49.6204C46.5288 48.7913 45.8061 48.0728 44.9722 48.0728C44.1383 48.0728 43.4155 48.7913 43.4155 49.6204C43.4155 50.4495 44.1383 51.168 44.9722 51.168Z" fill="#4876D0"/>
<path d="M44.5275 80.9047C43.638 80.9047 42.9708 81.6232 42.9708 82.4523C42.9708 83.2814 43.6935 83.9999 44.5275 83.9999C45.3614 83.9999 46.0841 83.2814 46.0841 82.4523C46.0841 81.6232 45.417 80.9047 44.5275 80.9047Z" fill="#4876D0"/>
<path d="M43.4155 64.5993C43.4155 65.4836 44.1383 66.1469 44.9722 66.1469H52.533C53.4225 66.1469 54.0896 65.4284 54.0896 64.5993C54.0896 63.7702 53.3669 63.0516 52.533 63.0516H46.5844V57.0822C46.5844 56.1978 45.8617 55.5345 45.0278 55.5345C44.1938 55.5345 43.4711 56.2531 43.4711 57.0822V64.5993H43.4155Z" fill="#4876D0"/>
</svg>
