<svg width="43" height="35" viewBox="0 0 43 35" fill="none" xmlns="http://www.w3.org/2000/svg">
<path d="M42.7817 0H6.90869V35H42.7817V0Z" fill="white"/>
<path d="M5.02262 30.813C5.02262 32.0478 4.03994 33.0511 2.71976 33.0511C1.38966 33.0511 0.416898 32.0478 0.416898 30.813C0.416898 29.5782 1.38966 28.5749 2.71976 28.5749C4.04986 28.5749 5.02262 29.5782 5.02262 30.813ZM5.4296 30.813C5.4296 29.3563 4.20868 28.189 2.70983 28.189C1.21099 28.189 0 29.3563 0 30.813C0 32.2697 1.21099 33.437 2.71976 33.437C4.21861 33.437 5.4296 32.2697 5.4296 30.813ZM3.34511 30.2728C3.34511 29.964 3.12673 29.9351 2.96791 29.9351H2.21353V30.6201H2.91828C3.14658 30.6201 3.34511 30.5718 3.34511 30.2728ZM3.89104 32.0092H3.39474C3.33518 31.8163 3.32525 31.4497 3.32525 31.3629C3.32525 31.1796 3.29548 31.0059 2.94806 31.0059H2.21353V32.0092H1.76685V29.5492H2.93814C3.34511 29.5492 3.79178 29.6843 3.79178 30.2342C3.79178 30.5429 3.65282 30.6972 3.51385 30.7841C3.63297 30.8516 3.7223 30.9481 3.74215 31.2278L3.762 31.6523C3.77193 31.7777 3.78186 31.8067 3.88112 31.8549V32.0092H3.89104Z" fill="#009DDC"/>
<path d="M18.433 23.1148H15.9514V22.3044H18.165V21.4554H15.9514V20.7126H18.4727L19.5745 21.9089L18.433 23.1148ZM20.8847 21.9281L22.4332 20.3074V23.5875L20.8847 21.9281ZM24.746 21.7545H23.4357V20.7223H24.7559C25.1232 20.7223 25.3713 20.867 25.3713 21.2239C25.3713 21.5712 25.1331 21.7545 24.746 21.7545ZM29.6594 21.5519C29.5205 21.6291 29.3616 21.6387 29.1631 21.6387H27.9323V20.7223H29.183C29.3616 20.7223 29.5403 20.7319 29.6594 20.7898C29.7885 20.8573 29.8679 20.9827 29.8679 21.1564C29.8679 21.3397 29.7885 21.4747 29.6594 21.5519ZM24.7559 19.8637H21.5299L20.2395 21.2046L18.9988 19.8637H14.939V23.9637H18.9392L20.2296 22.6131L21.4704 23.9637H23.4357V22.5938H24.6864C25.5699 22.5938 26.4434 22.3526 26.4434 21.2143C26.4434 20.0855 25.55 19.8637 24.7559 19.8637ZM30.4634 20.0662C30.1359 19.8829 29.7587 19.8637 29.2524 19.8637H26.9297V23.9637H27.9422V22.4684H29.0241C29.3914 22.4684 29.6098 22.4973 29.7587 22.6517C29.9473 22.8446 29.9175 23.2016 29.9175 23.4524V23.9734H30.93V23.1533C30.93 22.7964 30.9002 22.6131 30.7612 22.4105C30.6719 22.2851 30.4833 22.1404 30.2649 22.0632C30.5329 21.9571 30.9796 21.6291 30.9796 20.9731C30.9895 20.5197 30.791 20.2495 30.4634 20.0662ZM34.9103 23.1148H32.5479V22.3044H34.8508V21.4554H32.5479V20.7126H34.9103V19.854H31.5454V23.9541H34.9103V23.1148ZM38.7518 21.8124C38.5235 21.5808 38.1562 21.494 37.6003 21.4844L37.0544 21.4747C36.8856 21.4747 36.7665 21.4651 36.6673 21.4265C36.5382 21.3783 36.4489 21.2721 36.4489 21.1178C36.4489 20.9924 36.4886 20.8863 36.5978 20.8187C36.697 20.7512 36.8162 20.7512 37.0048 20.7512H38.851V19.8733H36.8261C35.764 19.8733 35.3769 20.5004 35.3769 21.0888C35.3769 22.3912 36.5581 22.3333 37.5011 22.3623C37.6698 22.3719 37.779 22.3912 37.8485 22.4587C37.918 22.5166 37.9676 22.6035 37.9676 22.7289C37.9676 22.8446 37.918 22.9411 37.8485 22.999C37.7691 23.0762 37.6301 23.0955 37.4415 23.0955H35.4861V23.9734H37.4514C38.4738 23.9734 39.0396 23.5489 39.0396 22.6806C39.0595 22.2562 38.9602 22.0053 38.7518 21.8124ZM43.0001 22.6806C43.0001 23.5489 42.4344 23.9734 41.412 23.9734H39.4664V23.0955H41.402C41.5906 23.0955 41.7296 23.0665 41.809 22.999C41.8785 22.9411 41.9281 22.8446 41.9281 22.7289C41.9281 22.6035 41.8785 22.5166 41.809 22.4587C41.7296 22.4009 41.6303 22.3719 41.4616 22.3623C40.5186 22.3333 39.3374 22.3912 39.3374 21.0888C39.3374 20.5004 39.7245 19.8637 40.7866 19.8733H42.8016V20.7512H40.9554C40.7767 20.7512 40.6476 20.7512 40.5484 20.8187C40.4392 20.8863 40.3995 20.9827 40.3995 21.1178C40.3995 21.2721 40.4888 21.3783 40.6179 21.4265C40.7171 21.4651 40.8362 21.4747 41.005 21.4747L41.5509 21.4844C42.1167 21.494 42.4741 21.5905 42.7024 21.8124C42.9009 22.0053 43.0001 22.2562 43.0001 22.6806Z" fill="#009DDC"/>
<path d="M8.76472 15.1463L9.44962 13.5159L10.1345 15.1463H8.76472ZM25.3414 14.4999C25.2024 14.5771 25.0436 14.5867 24.8451 14.5867H23.6142V13.6702H24.855C25.0336 13.6702 25.2123 13.6799 25.3314 13.7378C25.4605 13.8053 25.5399 13.9307 25.5399 14.1044C25.5498 14.278 25.4704 14.4227 25.3414 14.4999ZM34.0764 15.1463L33.3915 13.5159L32.7065 15.1463H34.0764ZM17.7876 12.8116H16.1101L14.8991 15.5997L13.5888 12.8116H11.9411V16.6995L10.2239 12.8116H8.72501L6.91846 16.9214H8.02026L8.40738 16.0049H10.5117L10.8988 16.9214H12.9535V13.6992L14.4226 16.9214H15.306L16.7652 13.7088V16.9214H17.7975V12.8116H17.7876ZM21.9168 16.0628H19.5544V15.2524H21.8573V14.4131H19.5544V13.6702H21.9168V12.8116H18.5519V16.9214H21.9168V16.0628ZM26.1454 13.0142C25.8178 12.8309 25.4406 12.8116 24.9344 12.8116H22.6117V16.9214H23.6241V15.426H24.7061C25.0734 15.426 25.2917 15.455 25.4406 15.6093C25.6292 15.8023 25.6094 16.1592 25.6094 16.4004V16.9214H26.6218V16.111C26.6218 15.754 26.5921 15.5707 26.4531 15.3682C26.3737 15.2524 26.1752 15.098 25.9568 15.0209C26.2248 14.9244 26.6715 14.5867 26.6715 13.9307C26.6715 13.458 26.4729 13.1879 26.1454 13.0142ZM27.2472 16.9117H28.2795V12.802H27.2472V16.9117ZM40.2206 16.9117H38.7813L36.8755 13.8343V16.9117H34.8208L34.4337 15.9952H32.3393L31.9522 16.9117H30.771C30.2746 16.9117 29.6592 16.8056 29.3019 16.4583C28.9445 16.111 28.7659 15.6383 28.7659 14.8954C28.7659 14.2877 28.8751 13.7281 29.3118 13.294C29.6394 12.966 30.1555 12.8116 30.8504 12.8116H31.8132V13.6895H30.8702C30.493 13.6895 30.2846 13.7474 30.0861 13.9307C29.9074 14.1044 29.7883 14.4324 29.7883 14.8569C29.7883 15.291 29.8776 15.6093 30.0761 15.8216C30.225 15.9856 30.5029 16.0338 30.7809 16.0338H31.2375L32.6569 12.8116H34.1558L35.8631 16.6898V12.8116H37.4016L39.1784 15.6672V12.8116H40.2206V16.9117V16.9117Z" fill="#009DDC"/>
<path d="M42.7817 19.0532H40.9156C40.3598 19.0532 39.9429 19.1786 39.6451 19.3812V19.0532H36.8856C36.4489 19.0532 35.9228 19.1593 35.6746 19.3812V19.0532H30.7513V19.3812C30.3542 19.1111 29.6991 19.0532 29.3914 19.0532H26.1356V19.3812C25.8279 19.0918 25.143 19.0532 24.7261 19.0532H21.0832L20.2494 19.9311L19.4752 19.0532H14.0357V24.774H19.3759L20.2296 23.8864L21.0435 24.774H24.3291V23.4234H24.6566C25.0934 23.4234 25.6095 23.4137 26.0562 23.2208V24.7643H28.776V23.269H28.905C29.0737 23.269 29.0837 23.2787 29.0837 23.433V24.7643H37.3224C37.8385 24.7643 38.3944 24.6389 38.7021 24.3977V24.7643H41.3127C41.8586 24.7643 42.3847 24.6872 42.7917 24.5039V34.9807H6.90869V17.7122H8.62591L9.01303 16.7958H9.87661L10.2637 17.7122H13.6585V17.0176L13.9662 17.7219H15.7231L16.0308 17.008V17.7122H24.4482V16.2169H24.607C24.7261 16.2169 24.7559 16.2362 24.7559 16.4099V17.7122H29.1134V17.3553C29.4609 17.5386 30.0068 17.7122 30.7314 17.7122H32.5677L32.9648 16.7958H33.8284L34.2155 17.7122H37.7393V16.844L38.2852 17.7122H41.1141V11.9915H38.315V12.6668L37.9179 11.9915H35.0393V12.6668L34.682 11.9915H30.8009C30.1458 11.9915 29.57 12.0783 29.1134 12.3195V11.9915H26.4334V12.3195C26.1257 12.0686 25.7286 11.9915 25.2919 11.9915H15.5047L14.8397 13.4675L14.1647 11.9915H11.0876V12.6668L10.7402 11.9915H8.11968L6.90869 14.7023V0H42.7817V19.0532Z" fill="#009DDC"/>
</svg>
