<svg width="61" height="37" viewBox="0 0 61 37" fill="none" xmlns="http://www.w3.org/2000/svg">
<path fill-rule="evenodd" clip-rule="evenodd" d="M30.5 1H55.6487C58.9721 1 60 3.42439 60 5.16585V31.8341C60 33.4732 58.9721 36 55.6487 36H5.35134C2.06214 36 1 33.5073 1 31.8341V5.16585C1 3.45854 2.06214 1 5.35134 1H30.5V1Z" fill="white" stroke="#0079BE" stroke-width="1.8887" stroke-miterlimit="2.6131"/>
<path fill-rule="evenodd" clip-rule="evenodd" d="M18.6794 21.3171H27.8618L33.0011 15.8196H42.2178L34.3716 24.5269H5.4541V18.722H20.975L18.6794 21.3171Z" fill="#0079BE"/>
<path fill-rule="evenodd" clip-rule="evenodd" d="M42.2177 15.8194H33.0011L27.8617 21.3511H18.6108L26.4227 12.6438H55.4088V18.4145H39.8878L42.2177 15.8194Z" fill="#FFE237"/>
<path fill-rule="evenodd" clip-rule="evenodd" d="M51.6742 10.4925C51.263 10.7657 50.7148 10.8682 50.2009 10.8682C48.7276 10.8682 47.3914 9.77547 47.3914 8.23889C47.3914 6.7023 48.5905 5.60962 50.0981 5.60962C50.6463 5.60962 51.263 5.71206 51.6742 5.95108V7.59011C51.3658 7.28279 50.8519 7.2145 50.3037 7.2145C49.7897 7.2145 49.173 7.62425 49.173 8.30718C49.173 8.88767 49.7897 9.26328 50.3037 9.26328C50.8861 9.26328 51.2288 9.22913 51.6742 8.92181V10.4925Z" fill="#0079BE"/>
<path fill-rule="evenodd" clip-rule="evenodd" d="M55.443 9.26369V10.493C54.1068 11.4832 52.5992 10.6637 52.5992 9.50271V7.2149H51.9482V5.71247H52.5992V4.51734L54.4151 3.5271V5.71247H55.443V7.07832H54.5179V9.22954C54.5179 9.60515 55.1689 9.571 55.443 9.26369Z" fill="#0079BE"/>
<path fill-rule="evenodd" clip-rule="evenodd" d="M42.3549 7.38534L42.629 5.98534C44.4449 5.37071 47.0146 5.71217 47.0146 7.3512V10.8H45.3357L45.2672 10.6292C44.4791 11.1073 41.6354 11.3463 42.0465 9.09266C42.2863 7.76095 43.7939 7.45363 44.719 7.45363C45.1987 7.45363 45.4042 7.00973 44.7875 6.97559C44.2736 6.90729 43.1772 6.97559 42.3549 7.38534Z" fill="#0079BE"/>
<path fill-rule="evenodd" clip-rule="evenodd" d="M11.8272 7.38534L12.1013 5.98534C13.9172 5.37071 16.4869 5.71217 16.4869 7.3512V10.8H14.7737L14.7395 10.6292C13.9857 11.1073 11.0391 11.3463 11.5188 9.09266C11.7586 7.76095 13.2319 7.45363 14.157 7.45363C14.6367 7.45363 14.8423 7.00973 14.2598 6.97559C13.7116 6.90729 12.5809 6.97559 11.8272 7.38534Z" fill="#0079BE"/>
<path fill-rule="evenodd" clip-rule="evenodd" d="M32.5557 8.30739C32.5557 9.84398 31.288 10.9025 29.7805 10.9025C28.2729 10.9025 26.9709 9.77568 26.9709 8.2391C26.9709 6.73666 28.2729 5.57568 29.7462 5.57568C31.3223 5.57568 32.5557 6.77081 32.5557 8.30739Z" fill="#0079BE"/>
<path fill-rule="evenodd" clip-rule="evenodd" d="M41.7379 9.26369V10.493C40.3674 11.4832 38.8942 10.6637 38.8942 9.50271V7.2149H38.2432V5.71247H38.8942V4.51734L40.7443 3.5271V5.71247H41.7379V7.07832H40.7786V9.22954C40.7786 9.60515 41.4638 9.571 41.7379 9.26369Z" fill="#0079BE"/>
<path fill-rule="evenodd" clip-rule="evenodd" d="M8.84625 3.21948C10.5251 3.21948 11.7586 5.47314 10.2167 6.83899C12.1697 8.03412 11.2789 10.6975 9.12035 10.7317H5.48853V3.21948H8.84625Z" fill="#0079BE"/>
<path fill-rule="evenodd" clip-rule="evenodd" d="M26.6626 10.4925C26.2515 10.7657 25.7718 10.8682 25.2236 10.8682C23.716 10.8682 22.4141 9.77547 22.4141 8.23889C22.4141 6.7023 23.6133 5.60962 25.0865 5.60962C25.6347 5.60962 26.2515 5.71206 26.6626 5.95108V7.59011C26.32 7.28279 25.8746 7.2145 25.3264 7.2145C24.7782 7.2145 24.1614 7.62425 24.1614 8.30718C24.1614 8.88767 24.8124 9.26328 25.3264 9.26328C25.8746 9.26328 26.2172 9.22913 26.6626 8.92181V10.4925V10.4925Z" fill="#0079BE"/>
<path fill-rule="evenodd" clip-rule="evenodd" d="M22.0372 7.52189V10.7999H20.2212V7.96579C20.2212 6.97555 18.7822 6.97555 18.7822 7.96579V10.7999H16.9663V5.74628H18.8165V6.15603C20.324 5.0292 22.0372 6.08774 22.0372 7.52189Z" fill="#0079BE"/>
<path fill-rule="evenodd" clip-rule="evenodd" d="M38.0035 7.52189V10.7999H36.1876V7.96579C36.1876 6.97555 34.7485 6.97555 34.7485 7.96579V10.7999H32.9326V5.74628H34.7485V6.15603C36.2903 5.0292 38.0035 6.08774 38.0035 7.52189Z" fill="#0079BE"/>
<path fill-rule="evenodd" clip-rule="evenodd" d="M44.8216 6.94144C45.4383 6.97559 45.2328 7.41949 44.7531 7.41949C43.828 7.41949 42.2862 7.76095 42.0806 9.05851C41.7037 11.3122 44.5475 11.0731 45.3013 10.5951L45.3698 10.7658H47.0487V7.3512C47.0487 5.71217 44.479 5.37071 42.6631 5.98534L42.389 7.38534C43.177 6.97559 44.2734 6.90729 44.8216 6.94144Z" fill="#0079BE"/>
<path fill-rule="evenodd" clip-rule="evenodd" d="M14.2597 6.94144C14.8422 6.97559 14.6366 7.41949 14.157 7.41949C13.2319 7.41949 11.7243 7.76095 11.5187 9.05851C11.0733 11.3122 14.0199 11.0731 14.7394 10.5951L14.7737 10.7658H16.4868V7.3512C16.4868 5.71217 13.9171 5.37071 12.1012 5.98534L11.8271 7.38534C12.5809 6.97559 13.7115 6.90729 14.2597 6.94144Z" fill="#0079BE"/>
<path fill-rule="evenodd" clip-rule="evenodd" d="M29.7462 5.57568C28.2729 5.57568 26.9709 6.73666 26.9709 8.2391C26.9709 9.77568 28.2729 10.9025 29.7805 10.9025C31.288 10.9025 32.5557 9.84398 32.5557 8.30739C32.5557 6.77081 31.3223 5.57568 29.7462 5.57568Z" fill="#0079BE"/>
<path fill-rule="evenodd" clip-rule="evenodd" d="M40.7786 9.22936V7.11229H41.7379V5.74643H40.7443V3.59521L38.8942 4.58546V5.78058H38.2432V7.28302H38.8942V9.57082C38.8942 10.6977 40.3674 11.5172 41.7379 10.5611V9.3318C41.4638 9.57082 40.7786 9.60497 40.7786 9.22936Z" fill="#0079BE"/>
<path fill-rule="evenodd" clip-rule="evenodd" d="M5.48853 3.21948V10.7658H9.12035C11.2789 10.7317 12.1697 8.06826 10.2167 6.87314C11.7586 5.47314 10.5251 3.25363 8.84625 3.25363H5.48853V3.21948Z" fill="#0079BE"/>
<path fill-rule="evenodd" clip-rule="evenodd" d="M26.6626 8.88788C26.2515 9.22934 25.8746 9.22934 25.3264 9.22934C24.8124 9.22934 24.1614 8.88788 24.1614 8.27324C24.1614 7.59032 24.7782 7.18056 25.3264 7.18056C25.8746 7.18056 26.2857 7.283 26.6626 7.55617V5.91715C26.2515 5.64398 25.6347 5.57568 25.0865 5.57568C23.6133 5.57568 22.4141 6.66837 22.4141 8.20495C22.4141 9.74154 23.716 10.8342 25.2236 10.8342C25.7718 10.8342 26.2515 10.6976 26.6626 10.4586V8.88788V8.88788Z" fill="#0079BE"/>
<path fill-rule="evenodd" clip-rule="evenodd" d="M18.7823 6.19023V5.78047H16.9321V10.8H18.748V7.96584C18.748 6.97559 20.1871 6.97559 20.1871 7.96584V10.8H22.003V7.52194C22.0372 6.08779 20.3241 5.02925 18.7823 6.19023Z" fill="#0079BE"/>
<path fill-rule="evenodd" clip-rule="evenodd" d="M34.7485 6.19023V5.78047H32.9326V10.8H34.7485V7.96584C34.7485 6.97559 36.1876 6.97559 36.1876 7.96584V10.8H38.0035V7.52194C38.0035 6.08779 36.2903 5.02925 34.7485 6.19023Z" fill="#0079BE"/>
<path fill-rule="evenodd" clip-rule="evenodd" d="M51.6742 8.88788C51.263 9.22934 50.8861 9.22934 50.3037 9.22934C49.7897 9.22934 49.173 8.88788 49.173 8.27324C49.173 7.59032 49.7897 7.18056 50.3037 7.18056C50.8519 7.18056 51.3315 7.283 51.6742 7.55617V5.91715C51.263 5.64398 50.6463 5.57568 50.0981 5.57568C48.5905 5.57568 47.3914 6.66837 47.3914 8.20495C47.3914 9.74154 48.7276 10.8342 50.2009 10.8342C50.7148 10.8342 51.263 10.6976 51.6742 10.4586V8.88788Z" fill="#0079BE"/>
<path fill-rule="evenodd" clip-rule="evenodd" d="M54.5179 9.22936V7.11229H55.443V5.74643H54.4151V3.59521L52.5992 4.58546V5.78058H51.9482V7.28302H52.5992V9.57082C52.5992 10.6977 54.1068 11.5172 55.443 10.5611V9.3318C55.1689 9.57082 54.5179 9.60497 54.5179 9.22936Z" fill="#0079BE"/>
<path fill-rule="evenodd" clip-rule="evenodd" d="M30.8086 8.30732C30.8086 8.85366 30.3289 9.29756 29.7807 9.29756C29.2325 9.29756 28.7871 8.85366 28.7871 8.23902C28.7871 7.59024 29.2325 7.24878 29.7807 7.24878C30.3289 7.24878 30.8086 7.59024 30.8086 8.30732Z" fill="#0079BE"/>
<path fill-rule="evenodd" clip-rule="evenodd" d="M7.54419 7.72681H8.36649C9.3601 7.72681 9.46289 9.26339 8.40075 9.26339H7.54419V7.72681Z" fill="#0079BE"/>
<path fill-rule="evenodd" clip-rule="evenodd" d="M14.705 8.5806V9.19524C14.705 9.87817 13.3345 10.083 13.3345 9.36597C13.3345 8.71719 14.2938 8.51231 14.705 8.5806Z" fill="#0079BE"/>
<path fill-rule="evenodd" clip-rule="evenodd" d="M45.2327 8.5806V9.19524C45.2327 9.87817 43.8965 10.083 43.8965 9.36597C43.9307 8.71719 44.8901 8.51231 45.2327 8.5806Z" fill="#0079BE"/>
<path fill-rule="evenodd" clip-rule="evenodd" d="M8.36649 4.75623C9.29158 5.16598 8.98321 6.19037 8.40075 6.19037H7.54419V4.75623C7.54419 4.72208 8.12665 4.68793 8.36649 4.75623Z" fill="#0079BE"/>
<path fill-rule="evenodd" clip-rule="evenodd" d="M29.7807 7.24878C29.2325 7.24878 28.7871 7.59024 28.7871 8.23902C28.7871 8.85366 29.2325 9.29756 29.7807 9.29756C30.3289 9.29756 30.8086 8.85366 30.8086 8.30732C30.8086 7.59024 30.3289 7.24878 29.7807 7.24878Z" fill="white"/>
<path fill-rule="evenodd" clip-rule="evenodd" d="M43.9307 9.36597C43.9307 10.083 45.2669 9.87817 45.2669 9.19524V8.5806C44.89 8.51231 43.9307 8.71719 43.9307 9.36597Z" fill="white"/>
<path fill-rule="evenodd" clip-rule="evenodd" d="M7.54419 4.75623V6.19037H8.40075C8.98321 6.19037 9.29158 5.20013 8.36649 4.75623C8.12665 4.68793 7.54419 4.72208 7.54419 4.75623Z" fill="white"/>
<path fill-rule="evenodd" clip-rule="evenodd" d="M13.3345 9.36597C13.3345 10.083 14.705 9.87817 14.705 9.19524V8.5806C14.2938 8.51231 13.3345 8.71719 13.3345 9.36597Z" fill="white"/>
<path fill-rule="evenodd" clip-rule="evenodd" d="M7.54419 9.26339H8.40075C9.46289 9.26339 9.3601 7.72681 8.36649 7.72681H7.54419V9.26339Z" fill="white"/>
<path fill-rule="evenodd" clip-rule="evenodd" d="M27.9305 31.2877C27.9305 29.5462 27.211 28.3853 25.4293 28.3853C23.7504 28.3853 22.7568 29.6487 22.7568 31.0828C22.7568 32.6535 23.956 33.7804 25.6349 33.7804C27.0739 33.7804 27.8277 33.1999 27.8277 33.1999V31.6975C27.211 32.0389 26.5257 32.2096 26.046 32.2096C25.0867 32.2096 24.5727 31.9365 24.5727 31.2535H27.9305V31.2877Z" fill="#0079BE"/>
<path fill-rule="evenodd" clip-rule="evenodd" d="M8.9833 31.5608L10.4566 29.4096V33.6779H12.4095V26.3022H10.4566L8.9833 28.5218L7.44149 26.3022H5.48853L5.52279 33.6779H7.44149V29.4096L8.9833 31.5608Z" fill="#0079BE"/>
<path fill-rule="evenodd" clip-rule="evenodd" d="M30.0545 30.7074C30.2601 30.2977 30.6712 29.922 31.2194 29.922C31.4935 29.922 31.8362 30.0586 32.076 30.2294V28.6245C31.9047 28.4196 31.6649 28.3513 31.3908 28.3513C30.9453 28.3513 30.3286 28.6245 30.0545 28.9318V28.4196H28.3071V33.644H30.0545V30.7074Z" fill="#0079BE"/>
<path fill-rule="evenodd" clip-rule="evenodd" d="M15.1846 33.3367C15.8013 33.6099 16.5551 33.6781 17.0347 33.6781C18.9192 33.6781 19.4674 32.6879 19.4674 31.9025C19.4674 30.9464 18.508 30.4342 17.6172 30.2977C17.4802 30.2977 17.1375 30.1952 17.1375 30.0245C17.1375 29.8879 17.2403 29.7172 17.6515 29.7172C17.9941 29.7172 18.6451 29.8538 18.9877 30.0245L18.9192 28.6586C18.4395 28.4879 17.7543 28.3513 17.2403 28.3513C16.1782 28.3513 15.2188 29.0001 15.2188 30.0245C15.2188 30.844 15.8013 31.2538 16.7264 31.4586C17.1033 31.4928 17.4802 31.6635 17.4802 31.8342C17.4802 32.1074 17.2061 32.1757 16.9662 32.1757C16.7264 32.1757 16.1439 32.244 15.1846 31.8342V33.3367Z" fill="#0079BE"/>
<path fill-rule="evenodd" clip-rule="evenodd" d="M21.7972 32.073V29.9218H22.7908V28.5218H21.7287V26.3022L19.8785 27.2925V28.5559H19.2275V30.0583H19.8785V32.3803C19.8785 33.5413 21.3861 34.3266 22.7908 33.3705V32.1071C22.5167 32.3803 21.7972 32.4486 21.7972 32.073Z" fill="#0079BE"/>
<path fill-rule="evenodd" clip-rule="evenodd" d="M14.842 33.6098V28.5562H12.9233V33.6098H14.842Z" fill="#0079BE"/>
<path fill-rule="evenodd" clip-rule="evenodd" d="M13.8828 28.3855C14.4652 28.3855 14.9449 27.9074 14.9449 27.3269C14.9449 26.7806 14.4652 26.3367 13.8828 26.3367C13.3346 26.3367 12.8892 26.7806 12.8892 27.3269C12.8892 27.9074 13.3346 28.3855 13.8828 28.3855Z" fill="#0079BE"/>
<path fill-rule="evenodd" clip-rule="evenodd" d="M45.7471 33.3367C46.3638 33.6099 47.1176 33.6781 47.5972 33.6781C49.4817 33.6781 50.0641 32.6879 50.0641 31.9025C50.0641 30.9464 49.1048 30.4342 48.1797 30.2977C48.0427 30.2977 47.7 30.1952 47.7 30.0245C47.7 29.8879 47.8028 29.7172 48.2482 29.7172C48.5909 29.7172 49.2076 29.8538 49.5845 30.0245L49.4817 28.6586C49.002 28.4879 48.3168 28.3513 47.8028 28.3513C46.7407 28.3513 45.7813 29.0001 45.7813 30.0245C45.7813 30.844 46.3638 31.2538 47.2889 31.4586C47.6658 31.4928 48.0427 31.6635 48.0427 31.8342C48.0427 32.1074 47.7686 32.1757 47.5287 32.1757C47.2889 32.1757 46.7064 32.244 45.7471 31.8342V33.3367V33.3367Z" fill="#0079BE"/>
<path fill-rule="evenodd" clip-rule="evenodd" d="M40.0593 31.5268C39.4425 31.9707 38.9629 32.0731 38.1406 32.0731C36.9071 32.0731 35.8107 31.0829 35.8107 30.0243C35.8107 28.8975 36.4274 27.8048 38.1406 27.8048C38.9286 27.8048 39.5796 27.9414 40.0593 28.3853V26.6439C39.4425 26.3024 38.6202 26.2 37.8665 26.2C35.6394 26.2 33.9263 27.8048 33.9263 29.956C33.9263 32.1073 35.8107 33.7121 38.0035 33.7121C38.7573 33.7121 39.4425 33.5414 40.0593 33.2V31.5268Z" fill="#0079BE"/>
<path fill-rule="evenodd" clip-rule="evenodd" d="M43.1771 29.6829C43.7938 29.717 43.5883 30.1951 43.1086 30.1951C42.1492 30.1951 40.5732 30.5365 40.4019 31.8341C39.9907 34.1219 42.903 33.917 43.6568 33.439L43.7253 33.5755H45.4727V30.0585C45.4727 28.4194 42.8345 28.078 40.9501 28.6926L40.676 30.0926C41.4983 29.717 42.6289 29.6487 43.1771 29.6829Z" fill="#0079BE"/>
<path fill-rule="evenodd" clip-rule="evenodd" d="M52.1196 28.9315V26.3022H50.3037V33.6779H52.1196V30.7754C52.1196 29.7852 53.5929 29.7852 53.5929 30.7754V33.6779H55.4431V30.3315C55.4431 28.8291 53.6957 27.8047 52.1196 28.9315Z" fill="#0079BE"/>
<path fill-rule="evenodd" clip-rule="evenodd" d="M24.5042 30.2975C24.6069 29.8194 24.9838 29.6487 25.3607 29.6487C25.7033 29.6487 26.183 29.8194 26.183 30.2975H24.5042Z" fill="white"/>
<path fill-rule="evenodd" clip-rule="evenodd" d="M43.5883 31.3217V31.9364C43.5883 32.6535 42.2178 32.8242 42.2178 32.1071C42.2178 31.4583 43.2456 31.2876 43.5883 31.3217Z" fill="white"/>
</svg>
