<svg width="65" height="11" viewBox="0 0 65 11" fill="none" xmlns="http://www.w3.org/2000/svg">
<path fill-rule="evenodd" clip-rule="evenodd" d="M0 0.531184C0 0.364954 0.0244346 0.304138 0.215839 0.304138C1.19322 0.316301 2.17061 0.291975 3.14799 0.320356C4.58556 0.364954 5.88873 0.782556 6.95164 1.7921C7.68468 2.4854 8.14486 3.33682 8.32405 4.32609C8.68649 6.29247 8.12857 7.96288 6.62177 9.29678C5.79914 10.0266 4.81769 10.3915 3.73035 10.4766C2.53305 10.5739 1.33168 10.4969 0.130318 10.5212C-0.0122173 10.5253 0.00407243 10.4482 0.00407243 10.359C0.00407243 9.35354 0.00814486 2.15699 0 0.531184ZM1.99956 8.60348C1.99956 8.74133 2.02807 8.78592 2.17468 8.78592C2.57378 8.78187 2.97695 8.78592 3.37197 8.74133C4.09687 8.66024 4.78103 8.45346 5.31045 7.92234C6.20231 7.03037 6.53218 5.94785 6.28376 4.72342C6.03534 3.49089 5.31859 2.6192 4.08465 2.23808C3.48193 2.05158 2.85477 2.06374 2.23169 2.05564C2.05658 2.05564 1.99549 2.08807 1.99549 2.28268C2.00771 3.32871 2.00364 7.54123 1.99956 8.60348Z" fill="#231F20"/>
<path fill-rule="evenodd" clip-rule="evenodd" d="M60.6224 6.23988C61.6975 7.67108 62.7523 9.07795 63.8356 10.5213C63.6686 10.5213 63.5342 10.5213 63.4039 10.5213C62.8012 10.5213 62.1944 10.5132 61.5917 10.5254C61.4084 10.5294 61.3147 10.4605 61.2211 10.3186C60.3822 9.06984 59.5392 7.82515 58.6962 6.57639C58.6839 6.56018 58.6717 6.54396 58.6636 6.52369C58.6106 6.398 58.5048 6.40611 58.407 6.42638C58.3011 6.44665 58.35 6.54801 58.35 6.61288C58.3459 7.83731 58.3419 9.05768 58.3541 10.2821C58.3541 10.4848 58.2971 10.5254 58.1057 10.5213C57.5762 10.5092 57.0468 10.5132 56.5174 10.5213C56.383 10.5213 56.3301 10.497 56.3301 10.347C56.3342 7.05481 56.3342 3.7667 56.3301 0.474537C56.3301 0.361014 56.3423 0.304253 56.4808 0.304253C57.621 0.328579 58.7613 0.259654 59.8975 0.344797C60.6876 0.405613 61.4328 0.616441 62.0396 1.15567C62.7686 1.80032 62.9722 2.64364 62.9233 3.57209C62.85 4.93842 62.1007 5.84255 60.769 6.17906C60.7283 6.19528 60.6835 6.21555 60.6224 6.23988ZM58.35 3.47479C58.35 3.92482 58.3581 4.37892 58.3459 4.82895C58.3419 4.98707 58.3907 5.01951 58.5373 5.0114C58.8346 4.99924 59.1319 5.00735 59.4292 4.97491C60.3007 4.88166 60.7935 4.38297 60.8586 3.51533C60.9116 2.81798 60.5532 2.28685 59.8853 2.06791C59.4455 1.92601 58.9934 1.93817 58.5414 1.93006C58.3948 1.92601 58.3419 1.95844 58.3459 2.11657C58.3581 2.57066 58.35 3.02069 58.35 3.47479Z" fill="#231F20"/>
<path fill-rule="evenodd" clip-rule="evenodd" d="M49.3578 0.510886C49.3578 0.356819 49.3904 0.308167 49.5533 0.308167C51.3166 0.316275 53.0841 0.312221 54.8474 0.308167C54.9859 0.308167 55.0348 0.336547 55.0307 0.482505C55.0225 0.956869 55.0225 1.42718 55.0307 1.90154C55.0348 2.04345 54.9818 2.06372 54.8556 2.06372C53.7642 2.05966 52.6687 2.06777 51.5773 2.05561C51.3899 2.05561 51.3533 2.10832 51.3574 2.28265C51.3696 2.89892 51.3655 3.51114 51.3574 4.1274C51.3533 4.28147 51.3981 4.31796 51.5488 4.31796C52.5995 4.30985 53.6542 4.31796 54.7049 4.30985C54.8719 4.30985 54.9044 4.3585 54.9004 4.51257C54.8922 4.96666 54.8922 5.4167 54.9004 5.87079C54.9044 6.0127 54.8637 6.04918 54.7212 6.04513C53.6746 6.03702 52.632 6.04918 51.5854 6.03702C51.3899 6.03702 51.3533 6.09784 51.3574 6.27218C51.3655 7.04251 51.3655 7.81284 51.3574 8.58318C51.3574 8.73725 51.3859 8.7859 51.5528 8.7859C52.6442 8.77779 53.7397 8.7859 54.8311 8.77779C54.994 8.77779 55.0307 8.82239 55.0266 8.97645C55.0144 9.44271 55.0185 9.90897 55.0266 10.3752C55.0266 10.4887 55.0022 10.5252 54.88 10.5252C53.0881 10.5212 51.2963 10.5212 49.5044 10.5252C49.3415 10.5252 49.3537 10.4482 49.3537 10.3387C49.3619 8.69265 49.3619 2.1367 49.3578 0.510886Z" fill="#231F20"/>
<path fill-rule="evenodd" clip-rule="evenodd" d="M13.3859 7.56967C13.6547 8.07242 14.013 8.48191 14.5343 8.71301C15.0963 8.96033 15.6787 9.04547 16.261 8.78599C16.7904 8.55083 17.0796 8.12918 17.104 7.55345C17.1284 6.98584 16.8189 6.60473 16.3262 6.35741C15.756 6.0736 15.1411 5.90737 14.5587 5.656C13.9886 5.40868 13.447 5.12487 13.056 4.62213C12.8157 4.314 12.6813 3.96126 12.6365 3.58826C12.4289 1.90974 13.3533 0.713697 14.7501 0.316366C16.2121 -0.0971814 17.5275 0.267714 18.7045 1.18806C18.79 1.25698 18.8226 1.30564 18.737 1.407C18.4357 1.78 18.1425 2.16111 17.8615 2.54628C17.776 2.66386 17.7393 2.63142 17.6579 2.54628C17.3361 2.20571 16.9696 1.93001 16.4931 1.86109C15.8904 1.77595 15.3203 1.85298 14.9008 2.34762C14.5262 2.7936 14.6076 3.3531 15.0841 3.68556C15.5076 3.98559 16.0004 4.1356 16.4809 4.31805C16.9289 4.49239 17.3646 4.68295 17.7841 4.9181C18.6393 5.40057 19.1076 6.10604 19.1687 7.09936C19.2705 8.77383 18.3868 10.1848 16.7416 10.6064C14.9863 11.0564 13.2678 10.5578 12.1438 8.90357C12.099 8.83464 12.0908 8.7941 12.156 8.73328C12.5673 8.35622 12.9705 7.967 13.3859 7.56967Z" fill="#231F20"/>
<path fill-rule="evenodd" clip-rule="evenodd" d="M38.615 0.312221C39.3114 0.312221 39.9752 0.316275 40.639 0.308167C40.7734 0.308167 40.8222 0.352765 40.8711 0.470342C41.482 2.01101 43.2453 6.42624 43.5182 7.10738C43.6404 6.96953 45.4037 2.52186 46.2345 0.462233C46.2671 0.381146 46.2915 0.308167 46.4137 0.308167C47.0938 0.312221 47.7698 0.312221 48.4784 0.312221C48.3155 0.697388 45.4119 7.56147 44.1209 10.6225C44.068 10.7442 44.011 10.7847 43.8847 10.7807C43.6282 10.7725 43.3675 10.7725 43.111 10.7807C42.9969 10.7847 42.944 10.7442 42.9033 10.6388C42.1051 8.71292 39.3114 1.99074 38.7127 0.55143C38.6761 0.478451 38.6516 0.405472 38.615 0.312221Z" fill="#231F20"/>
<path fill-rule="evenodd" clip-rule="evenodd" d="M27.7089 3.07323C27.3302 2.71239 26.9677 2.41237 26.5361 2.20965C24.8338 1.42715 22.7813 2.26641 22.1256 4.06656C21.6206 5.45316 21.7876 6.77084 22.8057 7.8939C23.4858 8.64802 24.3817 8.91967 25.3836 8.91156C26.1777 8.90345 26.8334 8.58315 27.4157 8.0723C27.5012 7.99526 27.5827 7.91823 27.6682 7.8412C27.7415 7.88174 27.7089 7.94256 27.7089 7.98716C27.713 8.65613 27.7089 9.3251 27.713 9.99408C27.713 10.0954 27.6967 10.1563 27.5868 10.209C25.5302 11.1942 22.9279 10.805 21.3152 9.16293C20.3175 8.14933 19.8288 6.92085 19.7962 5.50181C19.7432 3.10161 21.3519 1.00955 23.5836 0.336519C24.956 -0.0770289 26.2958 0.00405892 27.5868 0.648707C27.656 0.685197 27.7089 0.713577 27.7089 0.810883C27.7049 1.54878 27.7089 2.28668 27.7089 3.07323Z" fill="#231F20"/>
<path fill-rule="evenodd" clip-rule="evenodd" d="M11.3498 10.2981C11.3498 10.4644 11.3254 10.5333 11.134 10.5252C10.5924 10.5089 10.0467 10.5171 9.50503 10.5211C9.37471 10.5211 9.33398 10.4887 9.33398 10.3549C9.33806 7.06272 9.33806 3.7746 9.33398 0.482439C9.33398 0.332426 9.38285 0.304046 9.52132 0.3081C10.0589 0.316209 10.5924 0.320263 11.1299 0.3081C11.3091 0.304046 11.358 0.344589 11.3539 0.527037C11.3458 2.16096 11.3458 8.67636 11.3498 10.2981Z" fill="#231F20"/>
<path fill-rule="evenodd" clip-rule="evenodd" d="M64.214 0.239258C63.7823 0.239258 63.428 0.59199 63.428 1.02581C63.428 1.45963 63.7782 1.81236 64.214 1.81236C64.6497 1.81236 64.9999 1.45963 64.9999 1.02581C64.9999 0.59199 64.6497 0.239258 64.214 0.239258ZM64.214 1.67046C63.8719 1.67046 63.5949 1.3826 63.5949 1.02986C63.5949 0.677132 63.8719 0.38927 64.214 0.38927C64.556 0.38927 64.833 0.677132 64.833 1.02986C64.833 1.3826 64.556 1.67046 64.214 1.67046Z" fill="#252122"/>
<path fill-rule="evenodd" clip-rule="evenodd" d="M64.2833 1.11095C64.381 1.24069 64.4747 1.36638 64.5724 1.49612C64.5561 1.49612 64.5439 1.49612 64.5317 1.49612C64.4788 1.49612 64.4217 1.49612 64.3688 1.49612C64.3525 1.49612 64.3444 1.49206 64.3362 1.47585C64.2589 1.36232 64.1855 1.2488 64.1082 1.13933L64.1041 1.13528C64.1 1.12311 64.0878 1.12311 64.0797 1.12717C64.0715 1.12717 64.0756 1.13933 64.0756 1.14339C64.0756 1.25285 64.0756 1.36232 64.0756 1.47585C64.0756 1.49612 64.0715 1.49612 64.0512 1.49612C64.0023 1.49612 63.9575 1.49612 63.9086 1.49612C63.8964 1.49612 63.8923 1.49612 63.8923 1.4799C63.8923 1.18393 63.8923 0.883904 63.8923 0.587934C63.8923 0.579825 63.8923 0.571716 63.9045 0.571716C64.0064 0.575771 64.1122 0.567662 64.2141 0.575771C64.2874 0.579825 64.3525 0.600097 64.4055 0.64875C64.4706 0.705511 64.491 0.782545 64.4869 0.867687C64.4788 0.989319 64.4136 1.07446 64.2914 1.10284C64.2914 1.1069 64.2874 1.1069 64.2833 1.11095ZM64.0797 0.859578C64.0797 0.900122 64.0797 0.940666 64.0797 0.98121C64.0797 0.997427 64.0837 0.997427 64.096 0.997427C64.1245 0.997427 64.1489 0.997427 64.1774 0.993373C64.2548 0.985264 64.2996 0.940666 64.3077 0.859578C64.3118 0.794708 64.2792 0.75011 64.2181 0.729838C64.1774 0.717674 64.1367 0.717674 64.096 0.717674C64.0837 0.717674 64.0797 0.721729 64.0797 0.733892C64.0797 0.77849 64.0797 0.819034 64.0797 0.859578Z" fill="#231F20"/>
<path d="M33.7646 10.8333C36.7582 10.8333 39.185 8.40821 39.185 5.41667C39.185 2.42512 36.7582 0 33.7646 0C30.771 0 28.3442 2.42512 28.3442 5.41667C28.3442 8.40821 30.771 10.8333 33.7646 10.8333Z" fill="url(#paint0_linear)"/>
<defs>
<linearGradient id="paint0_linear" x1="31.4666" y1="0.512086" x2="36.0286" y2="10.339" gradientUnits="userSpaceOnUse">
<stop offset="0.3831" stop-color="#E35E26"/>
<stop offset="1" stop-color="#F9A121"/>
</linearGradient>
</defs>
</svg>
