<svg width="40" height="35" viewBox="0 0 40 35" fill="none" xmlns="http://www.w3.org/2000/svg">
<path d="M10.9092 19.7053H4.36377V30.2878H10.9092V19.7053Z" fill="black"/>
<path d="M11.2727 14.2316C11.2727 16.2493 9.64698 17.8808 7.63636 17.8808C5.62575 17.8808 4 16.2427 4 14.2316C4 12.214 5.62575 10.5825 7.63636 10.5825C9.64698 10.5825 11.2727 12.214 11.2727 14.2316Z" fill="black"/>
<path d="M22.998 0H0V35H22.998V34.9934C28.0212 34.9269 31.9987 33.6717 34.8246 31.2609C38.2594 28.3254 40 23.6964 40 17.5C40 14.538 39.5433 11.8814 38.6367 9.60342C37.7697 7.42505 36.4924 5.57211 34.8379 4.09772C31.9259 1.50095 27.8359 0.0929791 22.9914 0.0132827C22.998 0.00664137 22.998 0 22.998 0ZM22.5612 2.32448C27.0152 2.32448 30.7346 3.53321 33.3024 5.83112C36.2078 8.42125 37.6837 12.3463 37.6837 17.5C37.6837 27.7078 32.7399 32.6755 22.5612 32.6755C21.7737 32.6755 4.34811 32.6755 2.31635 32.6755C2.31635 30.5901 2.31635 4.40987 2.31635 2.32448C4.34811 2.32448 21.7737 2.32448 22.5612 2.32448Z" fill="black"/>
<path d="M21.9259 30.391H13.7988V5.15381H21.9259H21.595C28.3786 5.15381 35.5923 7.83692 35.5923 17.8056C35.5923 28.3455 28.372 30.391 21.595 30.391H21.9259Z" fill="#CD0067"/>
<path d="M12.3962 11.6687H14.6266C15.1295 11.6687 15.5134 11.7085 15.7781 11.7816C16.1355 11.8879 16.4399 12.0738 16.6914 12.3395C16.9429 12.6051 17.1348 12.9372 17.2672 13.3224C17.3995 13.7076 17.4657 14.1858 17.4657 14.7569C17.4657 15.255 17.4062 15.6867 17.2804 16.052C17.1282 16.497 16.9164 16.849 16.6318 17.1279C16.4201 17.3338 16.1355 17.4998 15.7715 17.6127C15.5001 17.6991 15.1428 17.7389 14.6927 17.7389H12.3962V11.6687ZM13.6206 12.6981V16.7095H14.5339C14.878 16.7095 15.1229 16.6896 15.2751 16.6497C15.4737 16.6032 15.6391 16.5169 15.7715 16.3974C15.9039 16.2778 16.0097 16.0852 16.0892 15.8129C16.1686 15.5406 16.2149 15.1687 16.2149 14.7038C16.2149 14.2323 16.1752 13.8736 16.0892 13.6279C16.0097 13.3755 15.8906 13.1829 15.745 13.0435C15.5994 12.904 15.4075 12.811 15.1759 12.7579C15.0038 12.718 14.6729 12.6981 14.1699 12.6981H13.6206V12.6981Z" fill="white"/>
<path d="M12.2302 11.5029V17.9052H14.6922C15.1554 17.9052 15.5393 17.8587 15.8239 17.7657C16.2077 17.6396 16.5188 17.4669 16.7504 17.2411C17.0482 16.9489 17.2799 16.5703 17.4387 16.1054C17.5711 15.7268 17.6306 15.2752 17.6306 14.7572C17.6306 14.1728 17.5578 13.6747 17.4255 13.2695C17.2865 12.8578 17.0813 12.5124 16.81 12.2268C16.5386 11.9413 16.2077 11.7354 15.8239 11.6225C15.5393 11.5428 15.1488 11.5029 14.626 11.5029H12.2302V11.5029ZM14.6326 11.835C15.1157 11.835 15.493 11.8748 15.7378 11.9413C16.0621 12.0342 16.3467 12.2069 16.5783 12.4526C16.8166 12.705 16.9953 13.0105 17.121 13.3758C17.2468 13.7477 17.313 14.2126 17.313 14.7572C17.313 15.2354 17.2534 15.6538 17.1343 15.9925C16.9953 16.4043 16.7901 16.7496 16.5254 17.002C16.3335 17.1879 16.0687 17.3407 15.7312 17.447C15.4797 17.5266 15.1356 17.5665 14.6988 17.5665C14.6988 17.5665 12.8523 17.5665 12.5677 17.5665C12.5677 17.261 12.5677 12.1339 12.5677 11.8284C12.8457 11.835 14.6326 11.835 14.6326 11.835Z" fill="white"/>
<path d="M13.4546 12.5322V16.8757H14.5333C14.8907 16.8757 15.1488 16.8558 15.3143 16.8159C15.5393 16.7628 15.7246 16.6632 15.8768 16.5237C16.029 16.3842 16.1548 16.1651 16.2474 15.8662C16.3335 15.574 16.3798 15.1954 16.3798 14.7106C16.3798 14.2191 16.3335 13.8472 16.2474 13.5816C16.1548 13.3026 16.0224 13.0835 15.857 12.9241C15.6849 12.7647 15.4665 12.6518 15.215 12.5986C15.0297 12.5588 14.6922 12.5389 14.176 12.5389H13.4546V12.5322ZM14.1693 12.8643C14.7716 12.8643 15.0297 12.8909 15.1356 12.9174C15.3341 12.9639 15.4996 13.0436 15.6253 13.1632C15.7511 13.2827 15.857 13.4554 15.9298 13.6812C16.0092 13.9136 16.0423 14.259 16.0423 14.7106C16.0423 15.1622 16.0026 15.5142 15.9232 15.7732C15.8504 16.0123 15.7577 16.185 15.6518 16.2846C15.5393 16.3842 15.4003 16.4573 15.2282 16.4971C15.0893 16.5303 14.8576 16.5503 14.5267 16.5503C14.5267 16.5503 13.9973 16.5503 13.7789 16.5503C13.7789 16.258 13.7789 13.1632 13.7789 12.8709C13.9443 12.8643 14.1693 12.8643 14.1693 12.8643Z" fill="white"/>
<path d="M18.8489 17.7389V11.6687H23.3294V12.6981H20.0732V14.0397H23.1043V15.0757H20.0732V16.7161H23.4485V17.7456H18.8489V17.7389Z" fill="white"/>
<path d="M18.6831 11.5027V17.905H23.607V16.5435C23.607 16.5435 20.5296 16.5435 20.2318 16.5435C20.2318 16.3044 20.2318 15.4742 20.2318 15.2351C20.5296 15.2351 23.2629 15.2351 23.2629 15.2351V13.8803C23.2629 13.8803 20.5296 13.8803 20.2318 13.8803C20.2318 13.6611 20.2318 13.09 20.2318 12.8708C20.5296 12.8708 23.4879 12.8708 23.4879 12.8708V11.5093H18.6831V11.5027ZM23.1636 11.8348C23.1636 12.0207 23.1636 12.3461 23.1636 12.5321C22.8658 12.5321 19.9075 12.5321 19.9075 12.5321V14.2124C19.9075 14.2124 22.6408 14.2124 22.9386 14.2124C22.9386 14.3983 22.9386 14.7237 22.9386 14.9097C22.6408 14.9097 19.9075 14.9097 19.9075 14.9097V16.8822C19.9075 16.8822 22.9849 16.8822 23.2827 16.8822C23.2827 17.0682 23.2827 17.3936 23.2827 17.5795C22.9849 17.5795 19.3118 17.5795 19.0206 17.5795C19.0206 17.274 19.0206 12.1469 19.0206 11.8414C19.3118 11.8348 22.8658 11.8348 23.1636 11.8348Z" fill="white"/>
<path d="M30.2786 17.7389H28.9483L28.4189 16.3575H26.0033L25.5003 17.7389H24.2031L26.5526 11.6687H27.8563L30.2786 17.7389ZM28.0284 15.3347L27.1945 13.0833L26.3739 15.3347H28.0284Z" fill="white"/>
<path d="M26.4459 11.5027L23.9641 17.905H25.6186C25.6186 17.905 26.0554 16.7095 26.1216 16.5236C26.3202 16.5236 28.1137 16.5236 28.3122 16.5236C28.3784 16.7029 28.8417 17.905 28.8417 17.905H30.5293L27.9747 11.5027H26.4459V11.5027ZM27.7431 11.8348C27.8225 12.0274 29.8675 17.1611 30.0329 17.5729C29.7417 17.5729 29.2123 17.5729 29.0601 17.5729C28.9939 17.3936 28.5306 16.1915 28.5306 16.1915H25.8834C25.8834 16.1915 25.4466 17.3869 25.3804 17.5729C25.2282 17.5729 24.7252 17.5729 24.4406 17.5729C24.5995 17.1611 26.5849 12.0274 26.6643 11.8348C26.843 11.8348 27.5776 11.8348 27.7431 11.8348Z" fill="white"/>
<path d="M26.1414 15.5006H28.2658L27.1936 12.605L26.1414 15.5006ZM27.1936 13.5613C27.3723 14.0528 27.6834 14.8763 27.7893 15.1619C27.4981 15.1619 26.9024 15.1619 26.6112 15.1619C26.7171 14.883 27.015 14.0528 27.1936 13.5613Z" fill="white"/>
<path d="M31.2976 17.7391V11.7153H32.5153V16.7096H35.5531V17.7391H31.2976Z" fill="white"/>
<path d="M31.1318 11.5559V17.9117H35.7248V16.5502C35.7248 16.5502 32.9783 16.5502 32.6871 16.5502C32.6871 16.2381 32.6871 11.5559 32.6871 11.5559H31.1318ZM32.3562 11.888C32.3562 12.2001 32.3562 16.8823 32.3562 16.8823C32.3562 16.8823 35.1027 16.8823 35.3939 16.8823C35.3939 17.0682 35.3939 17.3937 35.3939 17.5796C35.1027 17.5796 31.7606 17.5796 31.4627 17.5796C31.4627 17.2741 31.4627 12.1935 31.4627 11.888C31.6745 11.888 32.1444 11.888 32.3562 11.888Z" fill="white"/>
</svg>
