<svg width="46" height="35" viewBox="0 0 46 35" fill="none" xmlns="http://www.w3.org/2000/svg">
<path d="M29.2168 24.8893H16.7825V2.97681H29.2168V24.8893Z" fill="#6C6BBD"/>
<path d="M17.5734 13.9331C17.5734 9.49425 19.6937 5.53097 22.9999 2.97686C20.5741 1.10972 17.5374 0 14.2132 0C6.36091 0 0 6.23555 0 13.9331C0 21.6307 6.36091 27.8662 14.2132 27.8662C17.5374 27.8662 20.5741 26.7565 22.9999 24.8894C19.6937 22.3353 17.5734 18.3896 17.5734 13.9331Z" fill="#D32011"/>
<path d="M45.9999 13.9331C45.9999 21.6307 39.639 27.8662 31.7867 27.8662C28.4625 27.8662 25.4258 26.7565 23 24.8894C26.3062 22.3353 28.4265 18.372 28.4265 13.9331C28.4265 9.49425 26.3062 5.53097 23 2.97686C25.4258 1.10972 28.4625 0 31.7867 0C39.639 0 45.9999 6.23555 45.9999 13.9331Z" fill="#0099DF"/>
<path d="M33.4218 31.0896C33.5835 31.0896 33.8171 31.1248 34.0148 31.1952L33.7632 31.9527C33.5835 31.8822 33.4218 31.8646 33.2421 31.8646C32.7031 31.8646 32.4336 32.1993 32.4336 32.8158V34.8767H31.625V31.1776H32.4336V31.6356C32.6492 31.3009 32.9546 31.0896 33.4218 31.0896ZM30.3851 31.9174H29.0375V33.5908C29.0375 33.9607 29.1633 34.2073 29.5765 34.2073C29.7922 34.2073 30.0617 34.1369 30.2953 33.996L30.5289 34.6829C30.2773 34.8591 29.864 34.9648 29.5047 34.9648C28.5343 34.9648 28.1929 34.4539 28.1929 33.5908V31.8998H27.4203V31.1776H28.1929V30.0503H29.0195V31.1776H30.3672V31.9174H30.3851ZM19.8734 32.7101C19.9633 32.1817 20.2867 31.8117 20.8797 31.8117C21.4008 31.8117 21.7422 32.1288 21.832 32.7101H19.8734ZM22.6945 33.0272C22.6945 31.8822 21.9578 31.0896 20.8977 31.0896C19.7836 31.0896 19.0109 31.8822 19.0109 33.0272C19.0109 34.2073 19.8195 34.9648 20.9516 34.9648C21.5266 34.9648 22.0477 34.8238 22.4969 34.4539L22.1016 33.855C21.7781 34.1016 21.3828 34.2426 21.0055 34.2426C20.4844 34.2426 19.9992 33.996 19.8734 33.3442H22.6766C22.6945 33.2385 22.6945 33.1328 22.6945 33.0272ZM26.3062 32.1288C26.0726 31.9879 25.6054 31.8117 25.1383 31.8117C24.689 31.8117 24.4195 31.9703 24.4195 32.2521C24.4195 32.4987 24.707 32.5692 25.0664 32.622L25.4617 32.6749C26.2883 32.7982 26.7734 33.1328 26.7734 33.7846C26.7734 34.4892 26.1445 35 25.0484 35C24.4375 35 23.8625 34.8415 23.4133 34.5244L23.8086 33.8903C24.0781 34.1016 24.4914 34.2778 25.0664 34.2778C25.6234 34.2778 25.9289 34.1193 25.9289 33.8198C25.9289 33.6084 25.7133 33.5027 25.264 33.4323L24.8687 33.3794C24.0242 33.2561 23.557 32.8862 23.557 32.2873C23.557 31.5475 24.168 31.1072 25.1203 31.1072C25.7133 31.1072 26.2703 31.2305 26.6656 31.4947L26.3062 32.1288ZM36.4226 31.847C36.2609 31.847 36.0992 31.8822 35.9554 31.9351C35.8117 31.9879 35.6859 32.076 35.5781 32.1817C35.4703 32.2873 35.3804 32.4106 35.3265 32.5516C35.2726 32.6925 35.2367 32.851 35.2367 33.0272C35.2367 33.2033 35.2726 33.3618 35.3265 33.5027C35.3804 33.6437 35.4703 33.767 35.5781 33.8727C35.6859 33.9783 35.8117 34.0664 35.9554 34.1193C36.0992 34.1721 36.2609 34.2073 36.4226 34.2073C36.5843 34.2073 36.746 34.1721 36.8898 34.1193C37.0335 34.0664 37.1593 33.9783 37.2671 33.8727C37.3749 33.767 37.4648 33.6437 37.5187 33.5027C37.5726 33.3618 37.6085 33.2033 37.6085 33.0272C37.6085 32.851 37.5726 32.6925 37.5187 32.5516C37.4648 32.4106 37.3749 32.2873 37.2671 32.1817C37.1593 32.076 37.0335 31.9879 36.8898 31.9351C36.764 31.8822 36.6023 31.847 36.4226 31.847ZM36.4226 31.0896C36.7101 31.0896 36.9796 31.1424 37.2312 31.2481C37.4828 31.3538 37.6984 31.4771 37.8781 31.6532C38.0577 31.8294 38.2015 32.0407 38.3093 32.2697C38.4171 32.5163 38.471 32.7629 38.471 33.0448C38.471 33.3266 38.4171 33.5908 38.3093 33.8198C38.2015 34.0488 38.0577 34.2602 37.8781 34.4363C37.6984 34.6125 37.4828 34.7534 37.2312 34.8415C36.9796 34.9471 36.7101 34.9824 36.4226 34.9824C36.1351 34.9824 35.8656 34.9295 35.614 34.8415C35.3624 34.7358 35.1468 34.6125 34.9671 34.4363C34.7874 34.2602 34.6437 34.0488 34.5359 33.8198C34.4281 33.5732 34.3742 33.3266 34.3742 33.0448C34.3742 32.7629 34.4281 32.4987 34.5359 32.2697C34.6437 32.0407 34.7874 31.8294 34.9671 31.6532C35.1468 31.4771 35.3624 31.3362 35.614 31.2481C35.8656 31.1248 36.1351 31.0896 36.4226 31.0896ZM15.0758 33.0272C15.0758 32.3754 15.5071 31.847 16.2258 31.847C16.9086 31.847 17.3578 32.3578 17.3578 33.0272C17.3578 33.6965 16.8906 34.2073 16.2258 34.2073C15.525 34.2073 15.0758 33.6789 15.0758 33.0272ZM18.1484 33.0272V31.1776H17.3219V31.6356C17.0524 31.3009 16.675 31.0896 16.136 31.0896C15.0758 31.0896 14.2492 31.8998 14.2492 33.0272C14.2492 34.1545 15.0758 34.9648 16.136 34.9648C16.675 34.9648 17.0703 34.7534 17.3219 34.4187V34.8767H18.1484V33.0272ZM13.5125 34.8767V32.5516C13.5125 31.6708 12.9375 31.0896 12.0211 31.0896C11.536 31.0896 11.0328 31.2305 10.6914 31.7413C10.4399 31.3362 10.0266 31.0896 9.4516 31.0896C9.05629 31.0896 8.66098 31.2129 8.33755 31.6356V31.1776H7.51099V34.8767H8.33755V32.8334C8.33755 32.1993 8.69692 31.847 9.25395 31.847C9.79301 31.847 10.0805 32.1993 10.0805 32.8158V34.8767H10.9071V32.8334C10.9071 32.1993 11.2844 31.847 11.8235 31.847C12.3805 31.847 12.65 32.1993 12.65 32.8158V34.8767H13.5125Z" fill="#110F0D"/>
</svg>
