<svg width="46" height="35" viewBox="0 0 46 35" fill="none" xmlns="http://www.w3.org/2000/svg">
<path d="M8.36548 34.9118V32.5843C8.36548 31.7027 7.80779 31.1209 6.87232 31.1209C6.40458 31.1209 5.88288 31.2795 5.52308 31.7732C5.25323 31.3501 4.85745 31.1209 4.26379 31.1209C3.86801 31.1209 3.47223 31.2443 3.1664 31.6675V31.209H2.33887V34.9118H3.1664V32.8664C3.1664 32.2141 3.5262 31.8967 4.0659 31.8967C4.60559 31.8967 4.89343 32.2493 4.89343 32.8664V34.9118H5.72097V32.8664C5.72097 32.2141 6.11674 31.8967 6.62046 31.8967C7.17815 31.8967 7.448 32.2493 7.448 32.8664V34.9118H8.36548ZM20.6526 31.1914H19.3033V30.0629H18.4758V31.1914H17.7202V31.9319H18.4758V33.6423C18.4758 34.4886 18.8356 35 19.7711 35C20.1309 35 20.5266 34.8765 20.7965 34.7355L20.5626 34.0302C20.3288 34.1889 20.0409 34.2241 19.843 34.2241C19.4473 34.2241 19.2853 33.9949 19.2853 33.607V31.9496H20.6346V31.1914H20.6526ZM27.6866 31.1209C27.2189 31.1209 26.8951 31.3501 26.6972 31.6675V31.209H25.8696V34.9118H26.6972V32.8136C26.6972 32.1964 26.967 31.8438 27.4887 31.8438C27.6506 31.8438 27.8485 31.879 28.0104 31.9143L28.2443 31.1385C28.0824 31.1209 27.8485 31.1209 27.6866 31.1209ZM17.0546 31.5088C16.6588 31.2443 16.1011 31.1209 15.5075 31.1209C14.554 31.1209 13.9244 31.5793 13.9244 32.3198C13.9244 32.937 14.3921 33.2896 15.2196 33.3954L15.6154 33.4307C16.0472 33.5012 16.281 33.6246 16.281 33.8186C16.281 34.0831 15.9572 34.277 15.4175 34.277C14.8778 34.277 14.4281 34.0831 14.1582 33.8891L13.7624 34.5063C14.1942 34.8236 14.7879 34.9647 15.3815 34.9647C16.4789 34.9647 17.1266 34.4534 17.1266 33.7657C17.1266 33.1133 16.6049 32.7607 15.8313 32.6372L15.4355 32.602C15.0757 32.5667 14.8059 32.4785 14.8059 32.2493C14.8059 31.9848 15.0757 31.8261 15.5255 31.8261C15.9932 31.8261 16.4789 32.0201 16.7128 32.1435L17.0546 31.5088ZM39.0922 31.1209C38.6245 31.1209 38.3007 31.3501 38.1028 31.6675V31.209H37.2752V34.9118H38.1028V32.8136C38.1028 32.1964 38.3726 31.8438 38.8943 31.8438C39.0562 31.8438 39.2541 31.879 39.416 31.9143L39.6499 31.1385C39.488 31.1209 39.2541 31.1209 39.0922 31.1209ZM28.5142 33.0604C28.5142 34.1889 29.3057 35 30.529 35C31.0867 35 31.4825 34.8765 31.8783 34.5768L31.4825 33.9244C31.1587 34.1536 30.8528 34.277 30.493 34.277C29.8274 34.277 29.3417 33.8186 29.3417 33.078C29.3417 32.3727 29.8094 31.9143 30.493 31.879C30.8528 31.879 31.1587 32.0025 31.4825 32.2317L31.8783 31.5793C31.4825 31.2619 31.0867 31.1561 30.529 31.1561C29.3057 31.1209 28.5142 31.9319 28.5142 33.0604ZM36.1779 33.0604V31.209H35.3503V31.6675C35.0805 31.3148 34.6847 31.1209 34.163 31.1209C33.1016 31.1209 32.274 31.9319 32.274 33.0604C32.274 34.1889 33.1016 35 34.163 35C34.7207 35 35.1164 34.806 35.3503 34.4534V34.9118H36.1779V33.0604ZM33.1376 33.0604C33.1376 32.408 33.5693 31.8614 34.2889 31.8614C34.9545 31.8614 35.4403 32.3727 35.4403 33.0604C35.4403 33.7128 34.9725 34.2594 34.2889 34.2594C33.5693 34.2241 33.1376 33.7128 33.1376 33.0604ZM23.2251 31.1209C22.1277 31.1209 21.3362 31.8967 21.3362 33.0604C21.3362 34.2241 22.1277 35 23.2791 35C23.8368 35 24.3765 34.8413 24.8262 34.4886L24.4305 33.9068C24.1066 34.136 23.7109 34.2947 23.3331 34.2947C22.8114 34.2947 22.3076 34.0654 22.1817 33.4131H24.9881V33.0957C25.0061 31.8967 24.2865 31.1209 23.2251 31.1209ZM23.2251 31.8085C23.7468 31.8085 24.0886 32.1259 24.1786 32.6901H22.1997C22.2717 32.1964 22.6315 31.8085 23.2251 31.8085ZM43.8056 33.0604V29.7279H42.978V31.6675C42.7082 31.3148 42.3124 31.1209 41.7907 31.1209C40.7293 31.1209 39.9018 31.9319 39.9018 33.0604C39.9018 34.1889 40.7293 35 41.7907 35C42.3484 35 42.7442 34.806 42.978 34.4534V34.9118H43.8056V33.0604ZM40.7473 33.0604C40.7473 32.408 41.179 31.8614 41.8986 31.8614C42.5643 31.8614 43.05 32.3727 43.05 33.0604C43.05 33.7128 42.5823 34.2594 41.8986 34.2594C41.197 34.2241 40.7473 33.7128 40.7473 33.0604ZM13.0249 33.0604V31.209H12.1973V31.6675C11.9275 31.3148 11.5317 31.1209 11.01 31.1209C9.94859 31.1209 9.12106 31.9319 9.12106 33.0604C9.12106 34.1889 9.94859 35 11.01 35C11.5677 35 11.9635 34.806 12.1973 34.4534V34.9118H13.0249V33.0604ZM9.94859 33.0604C9.94859 32.408 10.3803 31.8614 11.0999 31.8614C11.7656 31.8614 12.2513 32.3727 12.2513 33.0604C12.2513 33.7128 11.7836 34.2594 11.0999 34.2594C10.3803 34.2241 9.94859 33.7128 9.94859 33.0604Z" fill="black"/>
<path d="M29.2332 2.97986H16.7842V24.8968H29.2332V2.97986Z" fill="#FF5F00"/>
<path d="M17.5761 13.9296C17.5761 9.48623 19.7169 5.5366 22.9911 2.97992C20.5804 1.12853 17.5401 6.10352e-05 14.212 6.10352e-05C6.35043 6.10352e-05 0 6.22426 0 13.9296C0 21.6349 6.35043 27.8591 14.212 27.8591C17.5222 27.8591 20.5624 26.7306 22.9731 24.8792C19.6989 22.3754 17.5761 18.3905 17.5761 13.9296Z" fill="#EB001B"/>
<path d="M45.9999 13.9296C45.9999 21.6349 39.6495 27.8591 31.7879 27.8591C28.4778 27.8591 25.4375 26.7306 23.0269 24.8792C26.337 22.3225 28.4418 18.3729 28.4418 13.9296C28.4418 9.48623 26.301 5.5366 23.0269 2.97992C25.4375 1.12853 28.4778 6.10352e-05 31.7879 6.10352e-05C39.6495 6.10352e-05 45.9999 6.27715 45.9999 13.9296Z" fill="#F79E1B"/>
</svg>
