<svg width="78" height="19" viewBox="0 0 78 19" fill="none" xmlns="http://www.w3.org/2000/svg">
<path d="M29.163 4.21524H24.8724C24.5569 4.21524 24.3046 4.40398 24.3046 4.71855L22.5378 15.7285C22.5378 15.9173 22.664 16.106 22.8533 16.1689H22.9164H24.9986C25.3141 16.1689 25.5665 15.9802 25.5665 15.6656L26.0082 12.7086C26.0713 12.3941 26.3237 12.2053 26.5761 12.2053H27.9642C30.8036 12.2053 32.4441 10.8212 32.8858 8.11591C33.0751 6.92054 32.8858 5.97683 32.3179 5.34769C31.6869 4.65564 30.6143 4.21524 29.163 4.21524ZM29.6678 8.30465C29.4154 9.8775 28.2797 9.8775 27.0808 9.8775H26.4499L26.8915 6.98346C26.8915 6.79472 27.0808 6.66889 27.2701 6.66889H27.5856C28.3428 6.66889 29.0999 6.66889 29.4785 7.10929C29.6678 7.36094 29.7309 7.73843 29.6678 8.30465ZM42.0979 8.24174H40.0157C39.8264 8.24174 39.7002 8.36757 39.6371 8.55631L39.574 9.12254L39.4479 8.93379C39.0062 8.30465 37.9966 8.053 36.9871 8.053C34.7156 8.053 32.7596 9.75168 32.381 12.2053C32.1917 13.4007 32.4441 14.5961 33.1381 15.351C33.7691 16.106 34.6525 16.4206 35.7251 16.4206C37.5549 16.4206 38.5645 15.2252 38.5645 15.2252L38.5014 15.7914C38.5014 15.9802 38.6276 16.1689 38.8169 16.2318H38.88H40.7729C41.0884 16.2318 41.3408 16.0431 41.3408 15.7285L42.4765 8.68214C42.4765 8.43048 42.3503 8.24174 42.0979 8.24174ZM39.1955 12.2053C39.0062 13.4007 38.0597 14.1557 36.8609 14.1557C36.2299 14.1557 35.7882 13.9669 35.4727 13.5894C35.1573 13.2119 35.0311 12.7086 35.1573 12.1424C35.3465 10.947 36.293 10.1292 37.4918 10.1292C38.0597 10.1292 38.5645 10.3179 38.88 10.6954C39.1324 11.1358 39.2586 11.6391 39.1955 12.2053ZM53.0768 8.24174H50.9946C50.8053 8.24174 50.616 8.36757 50.4898 8.4934L47.6505 12.7086L46.4516 8.68214C46.3885 8.43048 46.1361 8.24174 45.8838 8.24174H43.8646C43.6754 8.24174 43.4861 8.43048 43.4861 8.61922C43.4861 8.68214 43.4861 8.68214 43.4861 8.74505L45.7576 15.4139L43.6123 18.4338C43.4861 18.6226 43.5492 18.8113 43.6754 18.9371C43.7385 19 43.8016 19 43.8646 19H45.9469C46.1361 19 46.3254 18.8742 46.4516 18.7484L53.3923 8.80797C53.5185 8.61922 53.4554 8.43048 53.3292 8.30465C53.203 8.24174 53.1399 8.24174 53.0768 8.24174Z" fill="#253B80"/>
<path d="M59.9541 4.21524H55.6634C55.348 4.21524 55.0956 4.40398 55.0956 4.71855L53.3289 15.7285C53.3289 15.9172 53.4551 16.106 53.6443 16.1689H53.7074H55.9158C56.1051 16.1689 56.2944 16.0431 56.3575 15.7914L56.8623 12.6457C56.9254 12.3312 57.1778 12.1424 57.4302 12.1424H58.8183C61.6577 12.1424 63.2982 10.7583 63.7399 8.053C63.9292 6.85763 63.7399 5.91392 63.172 5.28478C62.4779 4.65564 61.4053 4.21524 59.9541 4.21524ZM60.4588 8.30465C60.2064 9.8775 59.0707 9.8775 57.8718 9.8775H57.2409L57.6826 6.98346C57.6826 6.79472 57.8718 6.66889 58.0611 6.66889H58.3766C59.1338 6.66889 59.891 6.66889 60.2695 7.10929C60.4588 7.36094 60.5219 7.73843 60.4588 8.30465ZM72.8259 8.24174H70.7436C70.5544 8.24174 70.4282 8.36757 70.3651 8.55631L70.302 9.12254L70.1758 8.93379C69.7341 8.30465 68.7245 8.053 67.715 8.053C65.4435 8.053 63.4875 9.75168 63.1089 12.2053C62.9196 13.4007 63.172 14.5961 63.8661 15.351C64.497 16.106 65.3804 16.4206 66.4531 16.4206C68.2829 16.4206 69.2924 15.2252 69.2924 15.2252L69.2293 15.7914C69.2293 15.9802 69.3555 16.1689 69.5448 16.2318H69.6079H71.4377C71.7532 16.2318 72.0056 16.0431 72.0056 15.7285L73.1413 8.68214C73.2044 8.43048 73.0782 8.24174 72.8259 8.24174C72.889 8.24174 72.889 8.24174 72.8259 8.24174ZM69.9865 12.2053C69.7972 13.4007 68.8507 14.1557 67.6519 14.1557C67.084 14.1557 66.5792 13.9669 66.2638 13.5894C65.9483 13.2119 65.8221 12.7086 65.9483 12.1424C66.1376 10.947 67.084 10.1292 68.2829 10.1292C68.8507 10.1292 69.3555 10.3179 69.671 10.6954C69.9234 11.1358 70.0496 11.6391 69.9865 12.2053ZM75.2866 4.52981L73.5199 15.7914C73.5199 15.9802 73.6461 16.1689 73.8354 16.2318H73.8985H75.6652C75.9807 16.2318 76.2331 16.0431 76.2331 15.7285L77.9998 4.71855C77.9998 4.52981 77.8736 4.34107 77.6843 4.27815H77.6212H75.6021C75.4759 4.21524 75.2866 4.40398 75.2866 4.52981Z" fill="#179BD7"/>
<path d="M4.6171 18.3709L4.93258 16.2948H4.17542H0.705078L3.10277 0.817923C3.16586 0.692095 3.22896 0.629181 3.29206 0.629181H9.22318C11.1792 0.629181 12.5673 1.06958 13.2614 1.88746C13.5769 2.26495 13.8293 2.64243 13.8924 3.08283C14.0186 3.52323 14.0186 4.08945 13.8924 4.71859V4.78151V5.22191L14.2078 5.41065C14.5233 5.53648 14.7126 5.6623 14.9019 5.91396C15.2174 6.22853 15.3436 6.66893 15.4698 7.10933C15.5329 7.61264 15.5329 8.17887 15.4067 8.87092C15.2805 9.62589 15.0281 10.3179 14.6495 10.8842C14.334 11.3875 13.9555 11.8279 13.5138 12.1424C13.0721 12.457 12.5673 12.7087 11.9364 12.8345C11.3685 12.9603 10.7375 13.0862 9.98035 13.0862H9.53867C9.22318 13.0862 8.9077 13.212 8.65531 13.4007C8.40292 13.5895 8.21363 13.904 8.21363 14.2186L8.15053 14.4074L7.58266 18.1193V18.2451C7.58266 18.308 7.58266 18.308 7.51956 18.308H7.45646C7.45646 18.3709 4.6171 18.3709 4.6171 18.3709Z" fill="#253B80"/>
<path d="M14.5242 4.8443C14.5242 4.90721 14.5242 5.03304 14.5242 5.15887C13.767 9.18537 11.0538 10.5066 7.64658 10.5066H5.87986C5.43818 10.5066 5.12269 10.8211 5.0596 11.1986L4.17624 16.798L3.92385 18.3708C3.86075 18.6225 4.05004 18.8112 4.30243 18.8741H4.36553H7.45729C7.83587 18.8741 8.15135 18.6225 8.21445 18.245V18.1192L8.78232 14.4701L8.84542 14.2814C8.90852 13.9039 9.224 13.6523 9.60259 13.6523H10.0443C13.0098 13.6523 15.3444 12.4569 16.0385 8.93371C16.354 7.48669 16.1647 6.22841 15.4075 5.41053C15.1551 5.22178 14.9027 4.97013 14.5242 4.8443Z" fill="#179BD7"/>
<path d="M13.767 4.52981C13.5146 4.40398 13.2622 4.34107 13.0098 4.34107C12.505 4.27815 12.0002 4.21524 11.4955 4.21524H6.82629C6.44771 4.21524 6.13222 4.4669 6.06912 4.84438L5.05957 11.0729V11.2616C5.12267 10.8212 5.50125 10.5696 5.87983 10.5696H7.64655C11.0538 10.5696 13.7039 9.18545 14.5241 5.22187C14.5241 5.03312 14.5241 4.90729 14.5241 4.84438C14.3348 4.71855 14.0825 4.65564 13.8932 4.59272C13.8301 4.52981 13.767 4.52981 13.767 4.52981Z" fill="#222D65"/>
<path d="M6.06941 4.84438C6.13251 4.4669 6.44799 4.21524 6.82657 4.21524H11.4958C12.0636 4.21524 12.5684 4.27815 13.0101 4.34107C13.3256 4.40398 13.6411 4.4669 13.9565 4.59272C14.2089 4.65564 14.3982 4.78147 14.5875 4.84438C14.8399 3.39736 14.5875 2.39073 13.7672 1.44702C12.8839 0.440398 11.3065 0 9.22426 0H3.29314C2.91455 0 2.53597 0.31457 2.47288 0.692054L0.0120895 16.2947C-0.0510076 16.5464 0.138284 16.861 0.453769 16.861H0.516866H4.1765L5.12295 11.0729L6.06941 4.84438Z" fill="#253B80"/>
</svg>
