<svg width="69" height="13" viewBox="0 0 69 13" fill="none" xmlns="http://www.w3.org/2000/svg">
<path d="M19.0745 0.193848H12.1216C11.0245 0.193848 9.96148 0.193848 9.00729 0.697702C8.05311 1.20156 7.21081 2.20927 6.56121 4.22145C6.42135 4.65425 6.34675 5.02891 6.33743 5.3519C6.32811 5.67811 6.38094 5.95265 6.49905 6.19165C6.64513 6.48234 6.88135 6.76011 7.17662 6.99265C7.47189 7.2252 7.82621 7.41253 8.20851 7.53527C8.22405 7.5385 8.42297 7.59986 8.6654 7.67092C8.90783 7.74198 9.19067 7.82918 9.37094 7.88732C9.47662 7.91962 9.59162 7.96483 9.69729 8.02943C9.80297 8.09403 9.89621 8.18123 9.95527 8.30074C9.99256 8.38148 10.0143 8.46869 10.0174 8.56235C10.0205 8.65602 10.005 8.75614 9.9677 8.86273C9.88067 9.13726 9.74392 9.31168 9.48594 9.42149C9.23108 9.52808 8.85189 9.5636 8.28 9.56683H1.13135L0 12.7902H7.65527C8.37635 12.7902 9.69419 12.7902 10.9592 12.2314C12.2242 11.6727 13.4395 10.5552 13.9523 8.32012C14.145 7.48036 14.0859 6.79563 13.7689 6.25948C13.4519 5.72333 12.8769 5.33252 12.0408 5.08382C12.0408 5.08382 11.8543 5.02568 11.6336 4.96109C11.4161 4.89649 11.1612 4.81897 11.0307 4.78022C10.8162 4.71562 10.6515 4.58643 10.5551 4.42493C10.4588 4.26021 10.4308 4.06319 10.4836 3.85971C10.5396 3.64977 10.6795 3.48182 10.8815 3.36555C11.0835 3.24927 11.3477 3.18468 11.6554 3.18468H16.1062C16.1373 3.13946 16.1684 3.08778 16.1995 3.03933C17.0107 1.84429 17.9959 0.878573 19.0745 0.193848Z" fill="#F48120"/>
<path d="M19.0774 0.180908H12.1277C11.0305 0.180908 9.96752 0.180908 9.01333 0.684763C8.05914 1.18862 7.21685 2.1931 6.57036 4.20851C6.43049 4.64131 6.3559 5.01274 6.34658 5.33896C6.33725 5.66517 6.39009 5.93971 6.5082 6.17871C6.65428 6.47263 6.89049 6.74716 7.18576 6.97971C7.48103 7.21226 7.83536 7.39959 8.21766 7.52232C8.2332 7.52555 8.43212 7.58692 8.67455 7.65798C8.91698 7.72903 9.19982 7.81624 9.38009 7.87115C9.48576 7.90667 9.60076 7.94866 9.70644 8.01326C9.81211 8.07786 9.90536 8.16506 9.96441 8.28457C10.0017 8.36531 10.0235 8.45252 10.0266 8.54618C10.0297 8.63985 10.0141 8.73997 9.97684 8.84656C9.88982 9.12109 9.75306 9.2955 9.49509 9.40532C9.24022 9.5119 8.86103 9.54743 8.28914 9.55066H1.13428L0.00292969 12.7805H7.6582C8.37928 12.7805 9.69711 12.7805 10.9621 12.2217C12.2271 11.663 13.4424 10.5455 13.9552 8.3104C14.1479 7.47065 14.0889 6.78592 13.7718 6.24977C13.4548 5.71039 12.8798 5.32281 12.0437 5.07411C12.0437 5.07411 11.8572 5.01597 11.6366 4.95138C11.419 4.88678 11.1641 4.80926 11.0336 4.7705C10.8191 4.70591 10.6544 4.57671 10.5581 4.41522C10.4617 4.2505 10.4337 4.05348 10.4866 3.85C10.5456 3.64006 10.6824 3.47211 10.8844 3.35584C11.0864 3.23956 11.3506 3.17497 11.6583 3.17497H16.1091C16.1402 3.12652 16.1682 3.07807 16.2024 3.02962C17.0136 1.83135 17.9989 0.862404 19.0774 0.180908Z" fill="#F48120"/>
<path d="M56.9159 0.200439C57.1553 0.39423 57.3573 0.617088 57.5282 0.872245C57.9634 1.52467 58.1312 2.30306 58.0317 3.19127H60.2634L56.9004 12.8H60.2634L63.6294 3.19127H67.9497L68.9971 0.200439H56.9159V0.200439Z" fill="#F48120"/>
<path d="M56.7476 1.43717C56.1944 0.610329 55.0693 0.203369 53.307 0.203369H49.226L44.8125 12.7997H48.5609L50.1647 8.36517C50.2424 8.54604 51.1903 12.7997 51.1903 12.7997H55.1314C55.1314 12.7997 54.4134 9.67648 53.8882 8.41361C53.7514 8.0874 53.6116 7.72566 53.422 7.42205C54.5347 6.99249 56.1478 6.06875 56.816 4.19868C57.2263 3.04885 57.2014 2.11866 56.7476 1.43717ZM53.4841 4.21806C53.1236 5.22576 52.4771 5.84912 51.2494 5.84912H51.2432H50.606L51.6939 2.80339H52.3124C53.4437 2.80339 53.8664 3.14575 53.4841 4.21806Z" fill="#F48120"/>
<path d="M25.9028 1.37246C25.2967 0.471332 24.2586 0.0159251 22.8195 0.0126953C21.8778 0.0126953 20.9609 0.238784 20.103 0.658662C18.8753 1.26264 17.7626 2.27035 16.8519 3.6075C16.2614 4.47633 15.7548 5.48081 15.3601 6.60802C14.6141 8.73002 14.6234 10.4548 15.3849 11.5884C15.8169 12.2312 16.7152 12.9966 18.5428 12.9999H18.549C21.8809 12.9999 24.3642 10.7325 25.9401 6.2592C26.3565 5.07385 26.9036 2.86464 25.9028 1.37246ZM22.3378 6.43361C21.2996 9.38891 20.5444 10.1318 19.4099 10.1318H19.4068C18.3003 10.1318 17.9149 9.40506 18.9468 6.46268C19.7207 4.26639 20.7215 2.86464 21.9306 2.86464C23.0837 2.86787 23.3479 3.55905 22.3378 6.43361Z" fill="#F48120"/>
<path d="M39.2117 0.193848H32.1284C30.1485 0.193848 28.6753 1.23385 27.979 3.18468L24.6099 12.7902H28.2961L30.0242 7.85179L33.2815 7.85502L34.2077 5.20978L30.9597 5.20655L31.4819 3.67561C31.5907 3.40108 31.8517 3.18468 32.234 3.18468C32.4454 3.18468 34.8355 3.18468 36.0757 3.18468C36.1067 3.13623 36.1347 3.08778 36.1689 3.03933C36.9801 1.84429 38.1332 0.878573 39.2117 0.193848Z" fill="#F48120"/>
<path d="M45.9969 1.37246C45.3908 0.471332 44.3558 0.0159251 42.9105 0.0126953C41.9688 0.0126953 41.0519 0.238784 40.194 0.658662C38.9663 1.26264 37.8536 2.27035 36.943 3.6075C36.3524 4.47633 35.8458 5.48081 35.4511 6.60802C34.702 8.73002 34.7145 10.4548 35.4759 11.5884C35.908 12.2312 36.8062 12.9966 38.6369 12.9999H38.6431C41.9719 12.9999 44.4584 10.7325 46.0342 6.2592C46.4507 5.07385 47.0008 2.86464 45.9969 1.37246ZM42.4319 6.43361C41.3938 9.38891 40.6385 10.1318 39.504 10.1318H39.5009C38.3945 10.1318 38.009 9.40506 39.044 6.46268C39.8149 4.26639 40.8188 2.86464 42.0278 2.86464H42.0309C43.1809 2.86787 43.442 3.55905 42.4319 6.43361Z" fill="#F48120"/>
<path d="M56.9189 0.1875C57.1551 0.38129 57.3602 0.604149 57.5312 0.859306C57.9663 1.51173 58.1341 2.29012 58.0347 3.17833H60.2663L56.9033 12.7871H60.2663L63.6324 3.17833H67.9526L69.0001 0.1875H56.9189V0.1875Z" fill="#F48120"/>
<path d="M56.7511 1.4213C56.1978 0.594459 55.0727 0.1875 53.3104 0.1875H49.2294L44.8159 12.7839H48.5643L50.1681 8.3493C50.2458 8.53017 51.1938 12.7839 51.1938 12.7839H55.1348C55.1348 12.7839 54.4169 9.66061 53.8916 8.39774C53.7548 8.07476 53.615 7.70979 53.4254 7.40618C54.5381 6.97662 56.1512 6.05288 56.8194 4.18281C57.2297 3.03299 57.2048 2.10602 56.7511 1.4213ZM53.4875 4.20542C53.127 5.21313 52.4805 5.83648 51.2528 5.83648H51.2466H50.6094L51.6973 2.79075H52.3158C53.4502 2.78752 53.8729 3.13311 53.4875 4.20542Z" fill="#F48120"/>
<path d="M25.9062 1.35976C25.3001 0.458637 24.2651 0.00322984 22.8229 0C21.8781 0 20.9643 0.226089 20.1064 0.645967C18.8787 1.24995 17.766 2.25766 16.8554 3.59481C16.2648 4.46363 15.7582 5.46811 15.3635 6.5921C14.6175 8.7141 14.6269 10.4388 15.3883 11.5725C15.8204 12.2152 16.7186 12.9807 18.5462 12.9839H18.5524C21.8843 12.9839 24.3677 10.7166 25.9435 6.24327C26.36 5.06115 26.9101 2.85195 25.9062 1.35976ZM22.3412 6.42091C21.3031 9.37622 20.5478 10.1191 19.4133 10.1191H19.4102C18.3037 10.1191 17.9183 9.39236 18.9533 6.44998C19.7273 4.25369 20.725 2.85195 21.9371 2.85195C23.0902 2.85195 23.3544 3.54636 22.3412 6.42091Z" fill="#F48120"/>
<path d="M39.215 0.180908H32.1316C30.1518 0.180908 28.6754 1.22092 27.9792 3.17174L24.6162 12.7773H28.3024L30.0305 7.83885L33.2878 7.84208L34.214 5.19684L30.9661 5.19361L31.4882 3.66267C31.597 3.38814 31.8581 3.16851 32.2373 3.16851C32.4486 3.16851 34.8419 3.16851 36.0789 3.16851C36.11 3.12329 36.138 3.07161 36.169 3.02316C36.9865 1.83135 38.1365 0.862404 39.215 0.180908Z" fill="#F48120"/>
<path d="M46.0001 1.35976C45.394 0.458637 44.359 0.00322984 42.9137 0C41.972 0 41.0551 0.226089 40.1973 0.645967C38.9696 1.24995 37.8569 2.25766 36.9462 3.59481C36.3556 4.46363 35.8521 5.46811 35.4543 6.5921C34.7083 8.7141 34.7177 10.4388 35.4792 11.5725C35.9112 12.2152 36.8094 12.9807 38.6401 12.9839H38.6463C41.9782 12.9839 44.4647 10.7166 46.0374 6.24327C46.457 5.06115 47.004 2.85195 46.0001 1.35976ZM42.4351 6.42091C41.397 9.37622 40.6417 10.1191 39.5073 10.1191H39.5042C38.3977 10.1191 38.0123 9.39236 39.0442 6.44998C39.8181 4.25369 40.8189 2.85195 42.0279 2.85195H42.031C43.1841 2.85195 43.4483 3.54636 42.4351 6.42091Z" fill="#F48120"/>
</svg>
