<svg width="47" height="14" viewBox="0 0 47 14" fill="none" xmlns="http://www.w3.org/2000/svg">
<path d="M20.385 13.7119H16.5603L18.9655 0.217041H22.7902L20.385 13.7119Z" fill="#0066B3"/>
<path d="M13.3272 0.217479L9.66024 9.49068L9.22651 7.50614L7.92534 1.4082C7.92534 1.4082 7.76762 0.181396 6.11158 0.181396H0.0788591L0 0.433974C0 0.433974 1.85319 0.794799 4.02181 1.98552L7.37333 13.7123H11.3557L17.4673 0.217479H13.3272Z" fill="#0066B3"/>
<path d="M43.4909 13.7119H47.0002L43.9247 0.217041H40.8492C39.4297 0.217041 39.0748 1.22735 39.0748 1.22735L33.397 13.7119H37.3794L38.168 11.6913H43.0572L43.4909 13.7119ZM39.272 8.91292L41.2829 3.86137L42.4263 8.91292H39.272Z" fill="#0066B3"/>
<path d="M33.6727 3.46392L34.2247 0.57732C34.2247 0.57732 32.5293 0 30.7549 0C28.8623 0 24.3279 0.757732 24.3279 4.47423C24.3279 7.97423 29.6509 8.01031 29.6509 9.85051C29.6509 11.6907 24.8799 11.366 23.3027 10.2113L22.7507 13.2423C22.7507 13.2423 24.4462 14 27.088 14C29.6903 14 33.6727 12.7732 33.6727 9.38144C33.6727 5.88144 28.3103 5.5567 28.3103 4.00515C28.3103 2.41753 32.0167 2.63402 33.6727 3.46392Z" fill="#0066B3"/>
<path d="M9.22651 7.46969L7.92534 1.40783C7.92534 1.40783 7.76762 0.18103 6.11158 0.18103H0.0788591L0 0.433608C0 0.433608 2.91779 0.974845 5.67785 3.06763C8.35906 5.01608 9.22651 7.46969 9.22651 7.46969Z" fill="#FAA634"/>
</svg>
