<svg width="148" height="148" viewBox="0 0 148 148" fill="none" xmlns="http://www.w3.org/2000/svg">
<path d="M135.667 27.125H12.3333C5.51917 27.125 0 32.6442 0 39.4583V108.525C0 115.339 5.51917 120.858 12.3333 120.858H135.667C142.481 120.858 148 115.339 148 108.525V39.4583C148 32.6442 142.481 27.125 135.667 27.125ZM143.067 108.525C143.067 112.595 139.737 115.925 135.667 115.925H12.3333C8.26333 115.925 4.93333 112.595 4.93333 108.525V39.4583C4.93333 35.3883 8.26333 32.0583 12.3333 32.0583H135.667C139.737 32.0583 143.067 35.3883 143.067 39.4583V108.525Z" fill="#4876D0"/>
<path d="M103.6 39.4595C84.545 39.4595 69.0667 54.9378 69.0667 73.9928C69.0667 93.0478 84.545 108.526 103.6 108.526C122.655 108.526 138.133 93.0478 138.133 73.9928C138.133 54.9378 122.655 39.4595 103.6 39.4595ZM103.6 103.593C87.2892 103.593 74 90.3036 74 73.9928C74 57.682 87.2892 44.3928 103.6 44.3928C119.911 44.3928 133.2 57.682 133.2 73.9928C133.2 90.3036 119.911 103.593 103.6 103.593Z" fill="#4876D0"/>
<path d="M103.6 49.3252C90.0025 49.3252 78.9333 60.3944 78.9333 73.9919C78.9333 87.5894 90.0025 98.6585 103.6 98.6585C117.198 98.6585 128.267 87.5894 128.267 73.9919C128.267 60.3944 117.198 49.3252 103.6 49.3252ZM103.6 93.7252C92.7158 93.7252 83.8667 84.876 83.8667 73.9919C83.8667 63.1077 92.7158 54.2585 103.6 54.2585C114.484 54.2585 123.333 63.1077 123.333 73.9919C123.333 84.876 114.484 93.7252 103.6 93.7252Z" fill="#4876D0"/>
<path d="M103.6 71.5262C102.243 71.5262 101.133 70.4162 101.133 69.0595C101.133 67.7029 102.243 66.5929 103.6 66.5929C104.957 66.5929 106.067 67.7029 106.067 69.0595H111C111 65.8529 108.934 63.1395 106.067 62.122V59.1929H101.133V62.122C98.2658 63.1395 96.2 65.8529 96.2 69.0595C96.2 73.1295 99.53 76.4595 103.6 76.4595C104.957 76.4595 106.067 77.5695 106.067 78.9262C106.067 80.2829 104.957 81.3929 103.6 81.3929C102.243 81.3929 101.133 80.2829 101.133 78.9262H96.2C96.2 82.1329 98.2658 84.8462 101.133 85.8637V88.7929H106.067V85.8637C108.934 84.8462 111 82.1329 111 78.9262C111 74.8562 107.67 71.5262 103.6 71.5262Z" fill="#4876D0"/>
<path d="M34.5334 61.6587H19.7334C15.6634 61.6587 12.3334 64.9887 12.3334 69.0587V78.9254C12.3334 82.9954 15.6634 86.3254 19.7334 86.3254H34.5334C38.6034 86.3254 41.9334 82.9954 41.9334 78.9254V69.0587C41.9334 64.9887 38.6034 61.6587 34.5334 61.6587ZM24.6667 81.392H19.7334C18.3767 81.392 17.2667 80.282 17.2667 78.9254V76.4587H24.6667V81.392ZM24.6667 71.5254H17.2667V69.0587C17.2667 67.702 18.3767 66.592 19.7334 66.592H24.6667V71.5254ZM37 78.9254C37 80.282 35.89 81.392 34.5334 81.392H29.6V76.4587H37V78.9254ZM37 71.5254H29.6V66.592H34.5334C35.89 66.592 37 67.702 37 69.0587V71.5254Z" fill="#4876D0"/>
<path d="M17.2667 93.7251H12.3334V98.6584H17.2667V93.7251Z" fill="#4876D0"/>
<path d="M27.1334 93.7251H22.2001V98.6584H27.1334V93.7251Z" fill="#4876D0"/>
<path d="M36.9999 93.7251H32.0666V98.6584H36.9999V93.7251Z" fill="#4876D0"/>
<path d="M46.8667 93.7251H41.9334V98.6584H46.8667V93.7251Z" fill="#4876D0"/>
<path d="M56.7333 93.7251H51.8V98.6584H56.7333V93.7251Z" fill="#4876D0"/>
<path d="M17.2667 103.592H12.3334V108.526H17.2667V103.592Z" fill="#4876D0"/>
<path d="M27.1334 103.592H22.2001V108.526H27.1334V103.592Z" fill="#4876D0"/>
<path d="M36.9999 103.592H32.0666V108.526H36.9999V103.592Z" fill="#4876D0"/>
<path d="M46.8667 103.592H41.9334V108.526H46.8667V103.592Z" fill="#4876D0"/>
<path d="M56.7333 103.592H51.8V108.526H56.7333V103.592Z" fill="#4876D0"/>
<path d="M91.3283 2.02686L90.1874 6.83686C91.6674 7.20686 93.1783 7.60769 94.6583 8.07019L96.1383 3.35269C94.5349 2.85936 92.9316 2.42769 91.3283 2.02686Z" fill="#4876D0"/>
<path d="M118.215 14.6694L115.255 18.6161C116.488 19.5411 117.722 20.5278 118.893 21.5144L122.1 17.7836C120.836 16.7044 119.541 15.6561 118.215 14.6694Z" fill="#4876D0"/>
<path d="M81.5234 0.362305L81.03 5.2648C82.5717 5.41897 84.1134 5.6348 85.6242 5.88147L86.4567 1.0098C84.8225 0.763138 83.1575 0.547305 81.5234 0.362305Z" fill="#4876D0"/>
<path d="M109.828 9.24219L107.423 13.5589C108.78 14.2989 110.106 15.1005 111.401 15.9639L114.083 11.8322C112.727 10.938 111.308 10.0747 109.828 9.24219Z" fill="#4876D0"/>
<path d="M66.5691 0.362305C64.9349 0.516471 63.2699 0.763138 61.6357 1.04064L62.4682 5.9123C63.9791 5.66564 65.5207 5.4498 67.0932 5.29564L66.5691 0.362305Z" fill="#4876D0"/>
<path d="M71.5641 0.023125L71.7183 4.95646C73.26 4.89479 74.8325 4.92563 76.3741 4.95646L76.5283 0.023125C74.8941 -0.00770833 73.1983 -0.00770833 71.5641 0.023125Z" fill="#4876D0"/>
<path d="M38.2026 9.21094C36.7534 10.0126 35.3351 10.8759 33.9167 11.7701L36.5992 15.9326C37.8942 15.1001 39.2201 14.2984 40.6076 13.5276L38.2026 9.21094Z" fill="#4876D0"/>
<path d="M29.8467 14.6382C28.4901 15.6249 27.1951 16.6732 25.9617 17.7523L29.1684 21.4832C30.3401 20.4657 31.5426 19.5099 32.8067 18.5849L29.8467 14.6382Z" fill="#4876D0"/>
<path d="M100.825 5.01855L99.0366 9.61272C100.486 10.1677 101.904 10.7844 103.292 11.4319L105.388 6.96106C103.908 6.28272 102.367 5.60439 100.825 5.01855Z" fill="#4876D0"/>
<path d="M47.2367 4.98779C45.695 5.57363 44.1533 6.25196 42.6733 6.96113L44.77 11.432C46.1575 10.7845 47.6067 10.1678 49.0558 9.61279L47.2367 4.98779Z" fill="#4876D0"/>
<path d="M56.7641 2.02686C55.1299 2.42769 53.5266 2.85936 51.9541 3.35269L53.4341 8.07019C54.8833 7.60769 56.3941 7.20686 57.9049 6.83686L56.7641 2.02686Z" fill="#4876D0"/>
<path d="M36.5683 132.02L33.8858 136.152C35.2733 137.046 36.7225 137.909 38.1716 138.711L40.5766 134.394C39.1891 133.654 37.8633 132.853 36.5683 132.02Z" fill="#4876D0"/>
<path d="M44.7083 136.552L42.6116 141.023C44.0916 141.732 45.6333 142.38 47.2058 142.996L48.9941 138.402C47.5141 137.816 46.0958 137.2 44.7083 136.552Z" fill="#4876D0"/>
<path d="M29.1066 126.47L25.9 130.201C27.1641 131.28 28.4591 132.329 29.785 133.315L32.745 129.369C31.5116 128.444 30.2783 127.457 29.1066 126.47Z" fill="#4876D0"/>
<path d="M53.3417 139.914L51.8617 144.632C53.4342 145.125 55.0684 145.587 56.6717 145.957L57.8125 141.147C56.3325 140.777 54.8217 140.377 53.3417 139.914Z" fill="#4876D0"/>
<path d="M103.261 136.552C101.873 137.2 100.424 137.816 98.975 138.371L100.763 142.966C102.305 142.38 103.847 141.701 105.327 140.992L103.261 136.552Z" fill="#4876D0"/>
<path d="M111.401 132.052C110.106 132.884 108.78 133.686 107.392 134.457L109.797 138.773C111.247 137.972 112.665 137.108 114.083 136.214L111.401 132.052Z" fill="#4876D0"/>
<path d="M118.832 126.502C117.66 127.519 116.457 128.475 115.193 129.4L118.153 133.347C119.51 132.36 120.805 131.312 122.038 130.233L118.832 126.502Z" fill="#4876D0"/>
<path d="M62.376 142.072L61.5435 146.943C63.1776 147.221 64.8118 147.437 66.4768 147.622L66.9701 142.719C65.4285 142.534 63.8868 142.349 62.376 142.072Z" fill="#4876D0"/>
<path d="M94.5658 139.945C93.1166 140.408 91.6058 140.809 90.095 141.179L91.2358 145.989C92.87 145.588 94.4733 145.156 96.0458 144.663L94.5658 139.945Z" fill="#4876D0"/>
<path d="M85.5316 142.103C84.0207 142.349 82.4791 142.565 80.9066 142.719L81.3999 147.622C83.0341 147.468 84.6991 147.221 86.3332 146.943L85.5316 142.103Z" fill="#4876D0"/>
<path d="M76.2816 143.027C74.7399 143.089 73.1675 143.058 71.6258 143.027L71.4716 147.961C72.3041 147.992 73.1675 147.992 74 147.992C74.8325 147.992 75.6341 147.992 76.4358 147.961L76.2816 143.027Z" fill="#4876D0"/>
</svg>
