<svg width="155" height="117" viewBox="0 0 155 117" fill="none" xmlns="http://www.w3.org/2000/svg">
<path d="M32.594 13.1916V114.056C32.594 115.12 33.4516 116 34.5337 116H108.08C109.142 116 110.02 115.141 110.02 114.056V32.591C110.02 32.5501 109.999 32.5091 109.999 32.4682C109.999 32.3045 109.959 32.1203 109.897 31.9771C109.877 31.9157 109.857 31.8543 109.836 31.7929C109.734 31.5883 109.612 31.3836 109.448 31.2199L90.0917 11.8205C89.9284 11.6568 89.7446 11.534 89.52 11.4317C89.4587 11.4113 89.3975 11.3908 89.3362 11.3703C89.1729 11.3089 89.0095 11.2885 88.8258 11.268C88.7849 11.268 88.7645 11.2476 88.7237 11.2476H34.5337C33.4516 11.268 32.594 12.1275 32.594 13.1916ZM103.404 30.6674H90.6634V17.8777L103.404 30.6674ZM36.4735 15.1356H86.784V32.591C86.784 33.6551 87.6415 34.535 88.7237 34.535H106.14V112.112H36.4735V15.1356Z" fill="#4876D0" stroke="#4876D0"/>
<path d="M113.668 101.865V105.753H119.466C120.528 105.753 121.406 104.893 121.406 103.809V2.94403C121.406 1.87993 120.548 1 119.466 1H45.9199C44.8581 1 43.9802 1.85947 43.9802 2.94403V8.75567H47.8596V4.88807H117.527V101.865H113.668Z" fill="#4876D0" stroke="#4876D0"/>
<path d="M49.5532 61.7882H51.1924C51.4379 61.7882 51.6307 61.5973 51.6307 61.3543V59.7317C51.6307 59.4887 51.4379 59.2979 51.1924 59.2979H49.5532C49.3077 59.2979 49.1149 59.4887 49.1149 59.7317V61.3543C49.1149 61.5886 49.3165 61.7882 49.5532 61.7882Z" fill="#4876D0" stroke="#4876D0" stroke-width="2"/>
<path d="M52.288 61.7882H53.9273C54.1727 61.7882 54.3656 61.5973 54.3656 61.3543V59.7317C54.3656 59.4887 54.1727 59.2979 53.9273 59.2979H52.288C52.0426 59.2979 51.8497 59.4887 51.8497 59.7317V61.3543C51.8497 61.5886 52.0514 61.7882 52.288 61.7882Z" fill="#4876D0" stroke="#4876D0" stroke-width="2"/>
<path d="M58.4156 56.1658C58.3367 56.0877 58.2228 56.0356 58.1088 56.0356H43.7675C43.7587 56.0356 43.7499 56.0356 43.7412 56.0356C43.4957 56.0356 43.3029 56.2265 43.3029 56.4695V91.5508C43.3029 91.7938 43.4957 91.9847 43.7412 91.9847H58.1088C58.2228 91.9847 58.3367 91.9413 58.4156 91.8545L60.0549 90.2319C60.1338 90.1538 60.1864 90.041 60.1864 89.9282V58.1008C60.1864 57.988 60.1425 57.8752 60.0549 57.7971L58.4156 56.1658ZM57.6705 89.0779L57.2497 89.4944H45.8187V58.5346H57.241L57.6617 58.9511V89.0779H57.6705Z" fill="#4876D0" stroke="#4876D0" stroke-width="2"/>
<path d="M51.7446 81.4153C49.7021 81.4153 48.0453 83.0552 48.0453 85.077C48.0453 87.0987 49.7021 88.7387 51.7446 88.7387C53.7871 88.7387 55.4439 87.0987 55.4439 85.077C55.4439 83.0552 53.7871 81.4153 51.7446 81.4153ZM51.7446 86.2397C51.0959 86.2397 50.5612 85.7191 50.5612 85.0683C50.5612 84.4262 51.0871 83.8969 51.7446 83.8969C52.402 83.8969 52.928 84.4175 52.928 85.0683C52.928 85.7191 52.3933 86.2397 51.7446 86.2397Z" fill="#4876D0" stroke="#4876D0" stroke-width="2"/>
<path d="M100.23 66.3608V60.5125C100.23 60.3997 100.186 60.2869 100.098 60.2088L98.161 58.2911C98.0821 58.213 97.9682 58.161 97.8542 58.161H78.0428V45.1714C78.0428 45.0586 77.999 44.9458 77.9113 44.8677L73.7299 40.7288C73.651 40.6507 73.537 40.5986 73.4231 40.5986H67.0501C66.9362 40.5986 66.8222 40.642 66.7433 40.7288L64.9813 42.4729C64.9024 42.551 64.8498 42.6638 64.8498 42.7766V54.56L61.0541 58.3172C60.8788 58.4907 60.8788 58.7597 61.0541 58.9332L62.2112 60.0786C62.2901 60.1567 62.4041 60.2088 62.518 60.2088C62.632 60.2088 62.746 60.1654 62.8249 60.0786L67.2342 55.7141C67.3131 55.636 67.3657 55.5232 67.3657 55.4104V43.6356L67.9092 43.0976H72.5552L75.5182 46.0305V60.2261C75.5182 60.4691 75.711 60.66 75.9565 60.66H96.9864L97.7052 61.3715V65.5104L96.9864 66.222H89.4387C89.1933 66.222 89.0004 66.4129 89.0004 66.6558V68.2784C89.0004 68.5214 89.1933 68.7123 89.4387 68.7123H96.9864L97.7052 69.4238V73.5627L96.9864 74.2743H89.4387C89.1933 74.2743 89.0004 74.4652 89.0004 74.7081V76.3307C89.0004 76.5737 89.1933 76.7646 89.4387 76.7646H96.9864L97.7052 77.4761V81.6151L96.9864 82.3266H89.4387C89.1933 82.3266 89.0004 82.5175 89.0004 82.7604V84.383C89.0004 84.626 89.1933 84.8169 89.4387 84.8169H94.5231L95.2419 85.5284V88.7649L94.5231 89.4765H62.5268C62.2814 89.4765 62.0885 89.6674 62.0885 89.9103V91.5329C62.0885 91.7759 62.2814 91.9668 62.5268 91.9668H95.3909C95.5049 91.9668 95.6188 91.9234 95.6977 91.8366L97.635 89.919C97.7139 89.8409 97.7665 89.7281 97.7665 89.6153V84.8082H97.8542C97.9682 84.8082 98.0821 84.7648 98.161 84.6781L100.098 82.7604C100.177 82.6823 100.23 82.5695 100.23 82.4567V76.6084C100.23 76.4956 100.186 76.3828 100.098 76.3047L99.2918 75.5064L100.098 74.7081C100.177 74.63 100.23 74.5172 100.23 74.4044V68.5561C100.23 68.4433 100.186 68.3305 100.098 68.2524L99.2918 67.4541L100.098 66.6558C100.177 66.5864 100.23 66.4736 100.23 66.3608Z" fill="#4876D0" stroke="#4876D0" stroke-width="2"/>
<path d="M2.1311 41.6675L6.9411 42.8083C7.3111 41.3283 7.71194 39.8175 8.17444 38.3375L3.45694 36.8575C2.9636 38.4609 2.53194 40.0642 2.1311 41.6675Z" fill="#4876D0"/>
<path d="M0.466553 51.4722L5.36905 51.9656C5.52322 50.4239 5.73905 48.8822 5.98572 47.3714L1.11405 46.5389C0.867386 48.1731 0.651553 49.8381 0.466553 51.4722Z" fill="#4876D0"/>
<path d="M0.466553 66.4265C0.620719 68.0607 0.867386 69.7257 1.14489 71.3599L6.01655 70.5274C5.76989 69.0165 5.55405 67.4749 5.39988 65.9024L0.466553 66.4265Z" fill="#4876D0"/>
<path d="M0.127373 61.4316L5.06071 61.2775C4.99904 59.7358 5.02987 58.1633 5.06071 56.6216L0.127373 56.4675C0.0965396 58.1016 0.0965396 59.7975 0.127373 61.4316Z" fill="#4876D0"/>
<path d="M5.1228 32.1707L9.71697 33.959C10.272 32.5098 10.8886 31.0915 11.5361 29.704L7.0653 27.6073C6.38697 29.0873 5.70864 30.629 5.1228 32.1707Z" fill="#4876D0"/>
<path d="M5.09204 85.7589C5.67787 87.3006 6.35621 88.8423 7.06537 90.3223L11.5362 88.2256C10.8887 86.8381 10.272 85.3889 9.71704 83.9398L5.09204 85.7589Z" fill="#4876D0"/>
<path d="M2.1311 76.2315C2.53194 77.8657 2.9636 79.469 3.45694 81.0415L8.17444 79.5615C7.71194 78.1123 7.3111 76.6015 6.9411 75.0907L2.1311 76.2315Z" fill="#4876D0"/>
<path d="M142.656 88.2874L147.127 90.384C147.836 88.904 148.484 87.3624 149.101 85.7899L144.506 84.0015C143.921 85.4815 143.304 86.8999 142.656 88.2874Z" fill="#4876D0"/>
<path d="M146.018 79.654L150.736 81.134C151.229 79.5615 151.692 77.9274 152.062 76.324L147.252 75.1832C146.882 76.6632 146.481 78.174 146.018 79.654Z" fill="#4876D0"/>
<path d="M142.656 29.7349C143.304 31.1224 143.921 32.5716 144.476 34.0208L149.07 32.2324C148.484 30.6908 147.806 29.1491 147.096 27.6691L142.656 29.7349Z" fill="#4876D0"/>
<path d="M148.176 70.6196L153.048 71.4521C153.325 69.818 153.541 68.1838 153.726 66.5188L148.824 66.0255C148.639 67.5672 148.454 69.1088 148.176 70.6196Z" fill="#4876D0"/>
<path d="M146.05 38.4298C146.512 39.879 146.913 41.3898 147.283 42.9006L152.093 41.7598C151.692 40.1256 151.26 38.5223 150.767 36.9498L146.05 38.4298Z" fill="#4876D0"/>
<path d="M148.207 47.4641C148.453 48.9749 148.669 50.5166 148.823 52.0891L153.726 51.5958C153.572 49.9616 153.325 48.2966 153.048 46.6624L148.207 47.4641Z" fill="#4876D0"/>
<path d="M149.132 56.7142C149.193 58.2558 149.162 59.8283 149.132 61.37L154.065 61.5242C154.096 60.6917 154.096 59.8283 154.096 58.9958C154.096 58.1633 154.096 57.3617 154.065 56.56L149.132 56.7142Z" fill="#4876D0"/>
</svg>
