<svg width="89" height="40" viewBox="0 0 89 40" fill="none" xmlns="http://www.w3.org/2000/svg">
<path d="M46.4649 12.0667C47.3566 12.0667 48.1491 11.8333 48.8096 11.3667C49.4371 10.9 49.8664 10.3 50.1306 9.56666C50.1636 9.53333 50.1636 9.46666 50.1636 9.43333C50.1636 9.23333 49.9985 9.1 49.8334 9.1H48.6775C48.5454 9.1 48.4133 9.16666 48.3473 9.3C48.2152 9.63333 47.984 9.9 47.6868 10.1333C47.3896 10.3333 47.0593 10.4333 46.6961 10.4333C45.9696 10.4333 45.4081 10.2 44.9788 9.76666C44.5825 9.33333 44.3844 8.8 44.3844 8.13333C44.3844 7.5 44.5825 6.93333 44.9788 6.5C45.177 6.3 45.4081 6.13333 45.6723 6C45.9365 5.86666 46.2998 5.83333 46.6961 5.83333C47.0593 5.83333 47.4226 5.93333 47.6868 6.13333C47.984 6.33333 48.1822 6.63333 48.3473 6.96666C48.4133 7.1 48.5124 7.16666 48.6775 7.16666H49.8334C49.9324 7.16666 50.0315 7.1 50.0976 7.03333C50.1636 6.93333 50.1966 6.83333 50.1636 6.73333C49.9324 6 49.4701 5.36666 48.8427 4.9C48.1822 4.43333 47.3896 4.2 46.4979 4.2C45.3751 4.2 44.4174 4.6 43.7239 5.33333C43.0304 6.06666 42.7002 7 42.7002 8.1C42.7002 9.2 43.0634 10.1333 43.7239 10.8667C44.3844 11.6667 45.3091 12.0667 46.4649 12.0667Z" fill="#F9892E"/>
<path d="M54.9521 12.0667C55.8438 12.0667 56.5703 11.8333 57.1317 11.3667V11.6C57.1317 11.8 57.2968 11.9333 57.462 11.9333H58.5187C58.7169 11.9333 58.849 11.7667 58.849 11.6V4.7C58.849 4.5 58.6839 4.36667 58.5187 4.36667H57.462C57.2638 4.36667 57.1317 4.53333 57.1317 4.7V4.96667C56.5703 4.5 55.8438 4.26667 55.0182 4.26667C53.8623 4.26667 52.9046 4.66667 52.2111 5.4C51.5176 6.13333 51.1874 7.06667 51.1874 8.16667C51.1874 9.26667 51.5176 10.1667 52.2111 10.9333C52.9377 11.6667 53.8623 12.0667 54.9521 12.0667ZM52.9377 8.16667C52.9377 7.5 53.1358 6.96667 53.4991 6.53333C53.8954 6.1 54.4237 5.86667 55.0842 5.86667C55.7447 5.86667 56.2731 6.1 56.6364 6.53333C56.9996 6.96667 57.1978 7.5 57.1978 8.16667C57.1978 8.83333 56.9996 9.36667 56.6364 9.8C56.2731 10.2333 55.7447 10.4667 55.0842 10.4667C54.4237 10.4667 53.8954 10.2333 53.4991 9.8C53.1358 9.36667 52.9377 8.83333 52.9377 8.16667Z" fill="#F9892E"/>
<path d="M61.2598 11.9667H62.3166C62.5147 11.9667 62.6468 11.8 62.6468 11.6333V8.6C62.6468 7.9 62.845 7.26667 63.2413 6.76667C63.6375 6.26667 64.199 6 64.8264 6H64.9585C65.1567 6 65.2888 5.83334 65.2888 5.66667V4.63334C65.2888 4.43334 65.1236 4.3 64.9585 4.3H64.8925C64.3971 4.3 63.9678 4.4 63.6045 4.56667C63.2082 4.73334 62.878 4.96667 62.6138 5.23334V4.76667C62.6138 4.56667 62.4487 4.43334 62.2836 4.43334H61.2268C61.0286 4.43334 60.8965 4.6 60.8965 4.76667V11.6667C60.9296 11.8 61.0947 11.9667 61.2598 11.9667Z" fill="#F9892E"/>
<path d="M69.912 4.26667C68.7562 4.26667 67.7985 4.66667 67.105 5.4C66.4114 6.13333 66.0812 7.06667 66.0812 8.16667C66.0812 9.26667 66.4445 10.2 67.138 10.9333C67.8645 11.7 68.8222 12.0667 69.9781 12.0667C70.9027 12.0667 71.6623 11.8333 72.2237 11.4333C72.8181 11 73.2474 10.4667 73.5116 9.8C73.5447 9.76667 73.5447 9.7 73.5447 9.66667C73.5447 9.46667 73.3795 9.33333 73.2144 9.33333H72.0586C71.9265 9.33333 71.8274 9.4 71.7614 9.5C71.3981 10.1667 70.8367 10.4667 70.0111 10.4667C69.4166 10.4667 68.8883 10.3 68.525 9.93333C68.2278 9.66667 68.0296 9.33333 67.9306 8.93333H73.4456C73.6437 8.93333 73.7758 8.76667 73.7758 8.6V8.2C73.7758 7.1 73.4456 6.16667 72.7521 5.43333C71.9925 4.63333 71.0678 4.26667 69.912 4.26667ZM71.8935 7.26667H67.9306C68.0296 6.9 68.2278 6.6 68.492 6.36667C68.8552 6.03333 69.3506 5.86667 69.912 5.86667C70.4734 5.86667 70.9358 6.03333 71.332 6.36667C71.5962 6.6 71.7614 6.9 71.8935 7.26667Z" fill="#F9892E"/>
<path d="M78.9607 4.26667C77.8048 4.26667 76.8471 4.66667 76.1536 5.4C75.4601 6.13333 75.1299 7.06667 75.1299 8.16667C75.1299 9.26667 75.4931 10.2 76.1867 10.9333C76.9132 11.7 77.8709 12.0667 79.0267 12.0667C79.9514 12.0667 80.711 11.8333 81.2724 11.4333C81.8668 11 82.2961 10.4667 82.5603 9.8C82.5933 9.76667 82.5933 9.7 82.5933 9.66667C82.5933 9.46667 82.4282 9.33333 82.2631 9.33333H81.1072C80.9751 9.33333 80.8761 9.4 80.81 9.5C80.4468 10.1667 79.8853 10.4667 79.0597 10.4667C78.4653 10.4667 77.9369 10.3 77.5737 9.93333C77.2764 9.66667 77.0783 9.33333 76.9792 8.93333H82.4943C82.6924 8.93333 82.8245 8.76667 82.8245 8.6V8.2C82.8245 7.1 82.4943 6.16667 81.8007 5.43333C81.0412 4.63333 80.0835 4.26667 78.9607 4.26667ZM80.9421 7.26667H76.9792C77.0783 6.9 77.2764 6.6 77.5406 6.36667C77.9039 6.03333 78.3993 5.86667 78.9607 5.86667C79.5221 5.86667 79.9844 6.03333 80.3807 6.36667C80.6119 6.6 80.81 6.9 80.9421 7.26667Z" fill="#F9892E"/>
<path d="M88.6698 4.26667H88.6037C88.1084 4.26667 87.679 4.36667 87.3158 4.53333C86.9195 4.7 86.5893 4.93333 86.3251 5.2V4.73333C86.3251 4.53333 86.1599 4.4 85.9948 4.4H84.9381C84.7399 4.4 84.6078 4.56667 84.6078 4.73333V11.6333C84.6078 11.8333 84.7729 11.9667 84.9381 11.9667H85.9948C86.193 11.9667 86.3251 11.8 86.3251 11.6333V8.6C86.3251 7.9 86.5232 7.26667 86.9195 6.76667C87.3158 6.26667 87.8772 6 88.5047 6H88.6367C88.8349 6 88.967 5.83333 88.967 5.66667V4.63333C89 4.4 88.8349 4.26667 88.6698 4.26667Z" fill="#F9892E"/>
<path d="M44.0872 25C44.0872 25.2 44.2523 25.3333 44.4175 25.3333H45.4742C45.6724 25.3333 45.8045 25.1667 45.8045 25V19.3333H47.0924C47.2906 19.3333 47.4227 19.1667 47.4227 19V18.1C47.4227 17.9 47.2575 17.7667 47.0924 17.7667H45.8045V15.6333C45.8045 15.4333 45.6393 15.3 45.4742 15.3H44.4175C44.2193 15.3 44.0872 15.4667 44.0872 15.6333V17.7667H42.9974C42.7993 17.7667 42.6672 17.9333 42.6672 18.1V19C42.6672 19.2 42.8323 19.3333 42.9974 19.3333H44.0872V25Z" fill="#333333"/>
<path d="M55.6786 23.1667C55.7116 23.1333 55.7116 23.0667 55.7116 23.0333C55.7116 22.8333 55.5465 22.7 55.3814 22.7H54.2255C54.0934 22.7 53.9944 22.7667 53.9283 22.8667C53.5651 23.5333 53.0036 23.8333 52.178 23.8333C51.5836 23.8333 51.0552 23.6667 50.692 23.3C50.3947 23.0333 50.1966 22.7 50.0975 22.3H55.6125C55.8107 22.3 55.9428 22.1333 55.9428 21.9667V21.5667C55.9428 20.4667 55.6125 19.5333 54.919 18.8C54.1925 18.0333 53.2348 17.6667 52.079 17.6667C50.9231 17.6667 49.9654 18.0667 49.2719 18.8C48.5784 19.5333 48.2482 20.4667 48.2482 21.5667C48.2482 22.6667 48.6114 23.6 49.3049 24.3333C50.0315 25.1 50.9892 25.4667 52.145 25.4667C53.0697 25.4667 53.8292 25.2333 54.3907 24.8333C54.9851 24.4 55.4144 23.8333 55.6786 23.1667ZM50.0975 20.6667C50.1966 20.3 50.3947 20 50.6589 19.7667C51.0222 19.4333 51.5176 19.2667 52.079 19.2667C52.6404 19.2667 53.1027 19.4333 53.499 19.7667C53.7632 20 53.9613 20.3 54.0604 20.6667H50.0975Z" fill="#333333"/>
<path d="M60.3351 25.4667C61.2928 25.4667 62.0523 25.2667 62.6468 24.8667C63.2742 24.4333 63.5714 23.8333 63.5714 23.0333C63.5714 22.5 63.4393 22.1 63.1421 21.7667C62.8779 21.4667 62.5477 21.2667 62.1514 21.1C61.7881 20.9333 61.3919 20.8333 60.9625 20.7333C60.5662 20.6667 60.17 20.5667 59.8397 20.4667C59.5095 20.4 59.2783 20.2667 59.0471 20.1667C58.915 20.1 58.849 20 58.849 19.8333C58.849 19.6333 58.849 19.1667 60.1369 19.1667C61.3258 19.1667 61.5239 19.6 61.59 19.9667C61.623 20.1333 61.7551 20.2667 61.9202 20.2667H63.01C63.1091 20.2667 63.2082 20.2333 63.2742 20.1667C63.3403 20.1 63.3733 20 63.3733 19.9C63.3072 19.2667 63.01 18.7333 62.5147 18.3333C61.9533 17.8667 61.1937 17.6333 60.236 17.6333C59.2453 17.6333 58.4857 17.8333 57.9573 18.2333C57.3959 18.6333 57.1317 19.2333 57.1317 19.9667C57.1317 20.4667 57.2638 20.9 57.561 21.2C57.8252 21.4667 58.1555 21.7 58.5518 21.8333C58.915 21.9667 59.3113 22.1 59.7406 22.1667C60.1369 22.2333 60.5002 22.3333 60.8635 22.4333C61.1607 22.5333 61.4249 22.6333 61.623 22.7667C61.7551 22.8667 61.8212 22.9667 61.8212 23.1333C61.8212 23.4333 61.6891 23.6 61.3588 23.7333C61.1937 23.8 60.9956 23.8333 60.8304 23.8667C60.4672 23.9 60.0048 23.9333 59.5755 23.8C59.0141 23.6333 58.7499 23.3 58.7169 22.8C58.6839 22.6333 58.5518 22.5 58.3867 22.5H57.2969C57.1978 22.5 57.0987 22.5333 57.0657 22.6C56.9996 22.6667 56.9666 22.7667 56.9666 22.8667C56.9996 23.6333 57.3299 24.2333 57.9243 24.7C58.4527 25.2 59.3113 25.4667 60.3351 25.4667Z" fill="#333333"/>
<path d="M68.8883 17.7667H67.6004V15.6333C67.6004 15.4333 67.4353 15.3 67.2701 15.3H66.2134C66.0152 15.3 65.8831 15.4667 65.8831 15.6333V17.7667H64.7933C64.5952 17.7667 64.4631 17.9333 64.4631 18.1V19C64.4631 19.2 64.6282 19.3333 64.7933 19.3333H65.8831V25C65.8831 25.2 66.0482 25.3333 66.2134 25.3333H67.2701C67.4683 25.3333 67.6004 25.1667 67.6004 25V19.3333H68.8883C69.0865 19.3333 69.2186 19.1667 69.2186 19V18.1C69.2186 17.9 69.0865 17.7667 68.8883 17.7667Z" fill="#333333"/>
<path d="M46.9933 29.5333C46.1017 29.5333 45.3751 29.7667 44.8137 30.2333V30C44.8137 29.8 44.6486 29.6667 44.4835 29.6667H43.4267C43.2286 29.6667 43.0965 29.8333 43.0965 30V39.6667C43.0965 39.8667 43.2616 40 43.4267 40H44.4835C44.6816 40 44.8137 39.8333 44.8137 39.6667V36.6667C45.3751 37.1333 46.1017 37.3667 46.9273 37.3667C48.0831 37.3667 49.0408 36.9667 49.7343 36.2333C50.4278 35.5 50.7581 34.5667 50.7581 33.4667C50.7581 32.3667 50.3948 31.4667 49.7343 30.7C49.0408 29.9333 48.1161 29.5333 46.9933 29.5333ZM49.0078 33.4667C49.0078 34.1333 48.8096 34.6667 48.4464 35.1C48.0501 35.5333 47.5217 35.7667 46.8612 35.7667C46.2007 35.7667 45.6723 35.5333 45.3091 35.1C44.9458 34.6667 44.7477 34.1333 44.7477 33.4667C44.7477 32.8 44.9458 32.2667 45.3091 31.8333C45.6723 31.4 46.2007 31.1667 46.8612 31.1667C47.5217 31.1667 48.0501 31.4 48.4464 31.8333C48.8427 32.2333 49.0078 32.8 49.0078 33.4667Z" fill="#5B93E8"/>
<path d="M56.4052 29.5333H56.3392C55.8438 29.5333 55.4145 29.6333 55.0512 29.8C54.6549 29.9667 54.3247 30.2 54.0605 30.4667V30C54.0605 29.8 53.8954 29.6667 53.7303 29.6667H52.6735C52.4754 29.6667 52.3433 29.8333 52.3433 30V36.9C52.3433 37.1 52.5084 37.2333 52.6735 37.2333H53.7303C53.9284 37.2333 54.0605 37.0667 54.0605 36.9V33.8667C54.0605 33.1667 54.2587 32.5333 54.6549 32.0333C55.0512 31.5333 55.6127 31.2667 56.2401 31.2667H56.3722C56.5703 31.2667 56.7024 31.1 56.7024 30.9333V29.9C56.7685 29.7 56.6034 29.5333 56.4052 29.5333Z" fill="#5B93E8"/>
<path d="M61.3257 29.5333C60.1699 29.5333 59.2122 29.9333 58.5187 30.6667C57.8252 31.4 57.4949 32.3333 57.4949 33.4333C57.4949 34.5333 57.8252 35.4667 58.5187 36.2C59.2452 36.9667 60.2029 37.3333 61.3257 37.3333C62.4485 37.3333 63.4393 36.9333 64.1328 36.2C64.8263 35.4667 65.1565 34.5333 65.1565 33.4333C65.1565 32.3333 64.8263 31.4 64.1328 30.6667C63.4062 29.9333 62.4816 29.5333 61.3257 29.5333ZM63.4393 33.4667C63.4393 34.1333 63.2411 34.6667 62.8779 35.1C62.5146 35.5333 61.9862 35.7667 61.3257 35.7667C60.6652 35.7667 60.1369 35.5333 59.7736 35.1C59.4103 34.6667 59.2122 34.1333 59.2122 33.4667C59.2122 32.8 59.4103 32.2667 59.7736 31.8333C60.1369 31.4 60.6652 31.1667 61.3257 31.1667C61.9862 31.1667 62.5146 31.4 62.8779 31.8333C63.2411 32.2333 63.4393 32.8 63.4393 33.4667Z" fill="#5B93E8"/>
<path d="M21.3006 25.7333H6.34065C5.61412 25.7333 5.01968 26.3333 5.01968 27.0667V27.3333C5.01968 28.0667 5.61412 28.6667 6.34065 28.6667H21.3006C22.0271 28.6667 22.6215 28.0667 22.6215 27.3333V27.0667C22.6215 26.3333 22.0271 25.7333 21.3006 25.7333Z" fill="#5B93E8"/>
<path d="M18.9889 31.4H8.61937C7.89283 31.4 7.2984 32 7.2984 32.7333V33C7.2984 33.7333 7.89283 34.3333 8.61937 34.3333H18.9889C19.7155 34.3333 20.3099 33.7333 20.3099 33V32.7333C20.3099 32 19.7155 31.4 18.9889 31.4Z" fill="#5B93E8"/>
<path d="M16.2148 37.0667H11.3933C10.6668 37.0667 10.0724 37.6667 10.0724 38.4V38.6667C10.0724 39.4 10.6668 40 11.3933 40H16.2479C16.9744 40 17.5688 39.4 17.5688 38.6667V38.4C17.5358 37.6667 16.9414 37.0667 16.2148 37.0667Z" fill="#5B93E8"/>
<path d="M27.443 11.7345C26.5184 5.66782 21.4327 0.767822 15.3892 0.101156C11.3933 -0.365511 7.56252 0.867822 4.59035 3.56782C1.68423 6.20116 0 9.96782 0 13.9345C0 17.2678 1.18887 20.4678 3.33544 23.0012C3.59963 23.3012 3.99592 23.5012 4.39221 23.5345C4.7885 23.5345 5.18479 23.4012 5.482 23.1012C6.01039 22.5678 6.04341 21.7012 5.54805 21.1345C3.8308 19.1345 2.90612 16.5678 2.90612 13.9345C2.90612 10.8012 4.22709 7.80116 6.5718 5.70116C8.91651 3.60116 11.9217 2.63449 15.092 3.00116C19.8805 3.56782 23.8764 7.43449 24.5699 12.2345C25.0653 15.5012 24.1737 18.6678 22.0271 21.1345C21.5317 21.7012 21.5647 22.5678 22.0931 23.1012C22.3573 23.3678 22.7536 23.5345 23.1169 23.5345C23.1499 23.5345 23.1499 23.5345 23.1829 23.5345C23.5792 23.5345 23.9755 23.3345 24.2397 23.0345C26.9147 19.9345 28.0705 15.8345 27.443 11.7345Z" fill="#F9892E"/>
</svg>
