<svg width="103" height="148" viewBox="0 0 103 148" fill="none" xmlns="http://www.w3.org/2000/svg">
<path d="M69.3283 2.02686L68.1874 6.83686C69.6674 7.20686 71.1783 7.60769 72.6583 8.07019L74.1383 3.35269C72.5349 2.85936 70.9316 2.42769 69.3283 2.02686Z" fill="#4876D0"/>
<path d="M96.215 14.6694L93.255 18.6161C94.4883 19.5411 95.7217 20.5278 96.8933 21.5144L100.1 17.7836C98.8358 16.7044 97.5408 15.6561 96.215 14.6694Z" fill="#4876D0"/>
<path d="M59.5234 0.362305L59.03 5.2648C60.5717 5.41897 62.1134 5.6348 63.6242 5.88147L64.4567 1.0098C62.8225 0.763138 61.1575 0.547305 59.5234 0.362305Z" fill="#4876D0"/>
<path d="M87.8283 9.24219L85.4233 13.5589C86.78 14.2989 88.1058 15.1005 89.4008 15.9639L92.0833 11.8322C90.7267 10.938 89.3083 10.0747 87.8283 9.24219Z" fill="#4876D0"/>
<path d="M44.5691 0.362305C42.9349 0.516471 41.2699 0.763138 39.6357 1.04064L40.4682 5.9123C41.9791 5.66564 43.5207 5.4498 45.0932 5.29564L44.5691 0.362305Z" fill="#4876D0"/>
<path d="M49.5641 0.023125L49.7183 4.95646C51.26 4.89479 52.8325 4.92563 54.3741 4.95646L54.5283 0.023125C52.8941 -0.00770833 51.1983 -0.00770833 49.5641 0.023125Z" fill="#4876D0"/>
<path d="M16.2026 9.21094C14.7534 10.0126 13.3351 10.8759 11.9167 11.7701L14.5992 15.9326C15.8942 15.1001 17.2201 14.2984 18.6076 13.5276L16.2026 9.21094Z" fill="#4876D0"/>
<path d="M7.84673 14.6382C6.49007 15.6249 5.19506 16.6732 3.96173 17.7523L7.1684 21.4832C8.34006 20.4657 9.54257 19.5099 10.8067 18.5849L7.84673 14.6382Z" fill="#4876D0"/>
<path d="M78.825 5.01855L77.0366 9.61272C78.4858 10.1677 79.9041 10.7844 81.2916 11.4319L83.3883 6.96106C81.9083 6.28272 80.3666 5.60439 78.825 5.01855Z" fill="#4876D0"/>
<path d="M25.2367 4.98779C23.695 5.57363 22.1533 6.25196 20.6733 6.96113L22.77 11.432C24.1575 10.7845 25.6067 10.1678 27.0558 9.61279L25.2367 4.98779Z" fill="#4876D0"/>
<path d="M34.7641 2.02686C33.1299 2.42769 31.5266 2.85936 29.9541 3.35269L31.4341 8.07019C32.8833 7.60769 34.3941 7.20686 35.9049 6.83686L34.7641 2.02686Z" fill="#4876D0"/>
<path d="M14.5683 132.02L11.8858 136.152C13.2733 137.046 14.7225 137.909 16.1716 138.711L18.5766 134.394C17.1891 133.654 15.8633 132.853 14.5683 132.02Z" fill="#4876D0"/>
<path d="M22.7083 136.552L20.6116 141.023C22.0916 141.732 23.6333 142.38 25.2058 142.996L26.9941 138.402C25.5141 137.816 24.0958 137.2 22.7083 136.552Z" fill="#4876D0"/>
<path d="M7.10663 126.47L3.89996 130.201C5.16413 131.28 6.45913 132.329 7.78496 133.315L10.745 129.369C9.51163 128.444 8.2783 127.457 7.10663 126.47Z" fill="#4876D0"/>
<path d="M31.3417 139.914L29.8617 144.632C31.4342 145.125 33.0684 145.587 34.6717 145.957L35.8125 141.147C34.3325 140.777 32.8217 140.377 31.3417 139.914Z" fill="#4876D0"/>
<path d="M81.2608 136.552C79.8733 137.2 78.4241 137.816 76.975 138.371L78.7633 142.966C80.305 142.38 81.8466 141.701 83.3266 140.992L81.2608 136.552Z" fill="#4876D0"/>
<path d="M89.4008 132.052C88.1058 132.884 86.78 133.686 85.3925 134.457L87.7975 138.773C89.2466 137.972 90.665 137.108 92.0833 136.214L89.4008 132.052Z" fill="#4876D0"/>
<path d="M96.8316 126.502C95.66 127.519 94.4575 128.475 93.1933 129.4L96.1533 133.347C97.51 132.36 98.805 131.312 100.038 130.233L96.8316 126.502Z" fill="#4876D0"/>
<path d="M40.376 142.072L39.5435 146.943C41.1776 147.221 42.8118 147.437 44.4768 147.622L44.9701 142.719C43.4285 142.534 41.8868 142.349 40.376 142.072Z" fill="#4876D0"/>
<path d="M72.5658 139.945C71.1166 140.408 69.6058 140.809 68.095 141.179L69.2358 145.989C70.87 145.588 72.4733 145.156 74.0458 144.663L72.5658 139.945Z" fill="#4876D0"/>
<path d="M63.5316 142.103C62.0207 142.349 60.4791 142.565 58.9066 142.719L59.3999 147.622C61.0341 147.468 62.6991 147.221 64.3332 146.943L63.5316 142.103Z" fill="#4876D0"/>
<path d="M54.2816 143.027C52.7399 143.089 51.1675 143.058 49.6258 143.027L49.4716 147.961C50.3041 147.992 51.1675 147.992 52 147.992C52.8325 147.992 53.6341 147.992 54.4358 147.961L54.2816 143.027Z" fill="#4876D0"/>
<path d="M11.3088 59.8525H14.2748C14.7189 59.8525 15.0679 59.5071 15.0679 59.0675V56.1317C15.0679 55.6921 14.7189 55.3467 14.2748 55.3467H11.3088C10.8647 55.3467 10.5158 55.6921 10.5158 56.1317V59.0675C10.5158 59.4914 10.8806 59.8525 11.3088 59.8525Z" fill="#4876D0"/>
<path d="M16.2573 59.8525H19.2233C19.6674 59.8525 20.0163 59.5071 20.0163 59.0675V56.1317C20.0163 55.6921 19.6674 55.3467 19.2233 55.3467H16.2573C15.8132 55.3467 15.4643 55.6921 15.4643 56.1317V59.0675C15.4643 59.4914 15.8291 59.8525 16.2573 59.8525Z" fill="#4876D0"/>
<path d="M27.344 49.6784C27.2013 49.5371 26.9951 49.4429 26.7889 49.4429H0.840623C0.824762 49.4429 0.808901 49.4429 0.79304 49.4429C0.348938 49.4429 0 49.7883 0 50.2279V113.702C0 114.141 0.348938 114.487 0.79304 114.487H26.7889C26.9951 114.487 27.2013 114.408 27.344 114.251L30.31 111.315C30.4527 111.174 30.5479 110.97 30.5479 110.766V53.1794C30.5479 52.9753 30.4686 52.7712 30.31 52.6299L27.344 49.6784ZM25.9959 109.227L25.2345 109.981H4.55205V53.9644H25.2187L25.98 54.718V109.227H25.9959Z" fill="#4876D0"/>
<path d="M15.2739 95.3643C11.5783 95.3643 8.58063 98.3315 8.58063 101.99C8.58063 105.648 11.5783 108.615 15.2739 108.615C18.9695 108.615 21.9671 105.648 21.9671 101.99C21.9671 98.3315 18.9695 95.3643 15.2739 95.3643ZM15.2739 104.093C14.1002 104.093 13.1327 103.151 13.1327 101.974C13.1327 100.812 14.0843 99.8544 15.2739 99.8544C16.4634 99.8544 17.4151 100.796 17.4151 101.974C17.4151 103.151 16.4476 104.093 15.2739 104.093Z" fill="#4876D0"/>
<path d="M103 68.1255V57.544C103 57.3399 102.921 57.1358 102.762 56.9945L99.2569 53.5248C99.1141 53.3835 98.908 53.2893 98.7018 53.2893H62.8563V29.7869C62.8563 29.5828 62.777 29.3787 62.6184 29.2374L55.0528 21.7487C54.9101 21.6074 54.7039 21.5132 54.4977 21.5132H42.9669C42.7607 21.5132 42.5545 21.5917 42.4118 21.7487L39.2237 24.9043C39.081 25.0456 38.9858 25.2497 38.9858 25.4538V46.774L32.1181 53.5719C31.8009 53.8859 31.8009 54.3726 32.1181 54.6866L34.2117 56.759C34.3545 56.9003 34.5607 56.9945 34.7669 56.9945C34.973 56.9945 35.1792 56.916 35.322 56.759L43.3 48.862C43.4427 48.7207 43.5379 48.5166 43.5379 48.3125V27.0081L44.5213 26.0347H52.9275L58.2884 31.3412V57.0259C58.2884 57.4655 58.6374 57.8108 59.0815 57.8108H97.1315L98.4321 59.0982V66.587L97.1315 67.8743H83.4754C83.0313 67.8743 82.6823 68.2197 82.6823 68.6593V71.5952C82.6823 72.0348 83.0313 72.3802 83.4754 72.3802H97.1315L98.4321 73.6675V81.1563L97.1315 82.4436H83.4754C83.0313 82.4436 82.6823 82.789 82.6823 83.2286V86.1645C82.6823 86.6041 83.0313 86.9495 83.4754 86.9495H97.1315L98.4321 88.2368V95.7256L97.1315 97.013H83.4754C83.0313 97.013 82.6823 97.3583 82.6823 97.7979V100.734C82.6823 101.173 83.0313 101.519 83.4754 101.519H92.6747L93.9752 102.806V108.662L92.6747 109.949H34.7827C34.3386 109.949 33.9897 110.295 33.9897 110.734V113.67C33.9897 114.11 34.3386 114.455 34.7827 114.455H94.2449C94.4511 114.455 94.6573 114.377 94.8 114.22L98.3052 110.75C98.448 110.609 98.5432 110.405 98.5432 110.201V101.503H98.7018C98.908 101.503 99.1141 101.425 99.2569 101.268L102.762 97.7979C102.905 97.6566 103 97.4525 103 97.2484V86.6669C103 86.4628 102.921 86.2587 102.762 86.1174L101.303 84.673L102.762 83.2286C102.905 83.0873 103 82.8832 103 82.6791V72.0976C103 71.8935 102.921 71.6894 102.762 71.5481L101.303 70.1037L102.762 68.6593C102.905 68.5337 103 68.3296 103 68.1255Z" fill="#4876D0"/>
</svg>
