<svg width="221" height="212" viewBox="0 0 221 212" fill="none" xmlns="http://www.w3.org/2000/svg">
<circle cx="112" cy="106" r="106" fill="#F4F8FF"/>
<path d="M43.4033 173.744H40.0654V150.779C40.0654 149.795 40.8443 149.043 41.7344 149.043C42.6801 149.043 43.4033 149.853 43.4033 150.779V173.744Z" fill="#F59A9A"/>
<path d="M48.0762 173.744H44.7383V150.779C44.7383 149.795 45.5171 149.043 46.4072 149.043C47.3529 149.043 48.0762 149.853 48.0762 150.779V173.744Z" fill="#77DCC1"/>
<path d="M38.0625 180.42H34.7246V157.455C34.7246 156.471 35.5034 155.719 36.3935 155.719C37.3393 155.719 38.0625 156.529 38.0625 157.455V180.42Z" fill="#FDC572"/>
<path d="M50.7468 167.068H32.0547V189.766H50.7468V167.068Z" fill="#DFDFDF"/>
<path d="M50.7493 162.395H32.0518C30.9472 162.395 30.0518 163.29 30.0518 164.395V165.068C30.0518 166.173 30.9472 167.068 32.0518 167.068H50.7493C51.8539 167.068 52.7493 166.173 52.7493 165.068V164.395C52.7493 163.29 51.8539 162.395 50.7493 162.395Z" fill="#8B8B8B"/>
<path opacity="0.19" d="M138.4 189.766H92.6026C90.481 189.766 88.7983 188.071 88.7983 186.094C88.7983 184.046 90.5541 182.422 92.6026 182.422H138.4C140.522 182.422 142.204 184.117 142.204 186.094C142.204 188.142 140.449 189.766 138.4 189.766Z" fill="#1F2627"/>
<path d="M181.924 190.433H172.578C172.578 185.637 176.738 181.755 181.924 181.755" fill="#DDDDDD"/>
<path d="M181.924 181.755C186.739 181.755 190.602 185.637 190.602 190.433H181.924V181.755Z" fill="#DDDDDD"/>
<g filter="url(#filter0_d)">
<path fill-rule="evenodd" clip-rule="evenodd" d="M165.767 144.63C162.435 139.238 158.297 134.654 153.606 130.927L153.884 117.853C162.249 122.952 169.564 130.028 175.045 138.895C182.154 150.397 185.095 163.451 184.661 176.026C184.411 179.77 180.7 182.064 177.239 180.613C177.239 180.613 177.01 180.242 176.639 180.472C174.608 179.676 173.462 177.821 173.658 175.648C174.266 165.016 171.73 154.277 165.767 144.63Z" fill="#4876D0"/>
</g>
<path d="M178.585 183.757C177.484 183.757 176.583 182.848 176.583 181.737V176.432C176.583 175.321 177.484 174.411 178.585 174.411C179.686 174.411 180.586 175.321 180.586 176.432V181.737C180.637 182.848 179.736 183.757 178.585 183.757Z" fill="#F6CFB5"/>
<path d="M182.257 185.093C181.355 185.093 180.588 184.258 180.588 183.277V176.895C180.588 175.914 181.355 175.079 182.257 175.079C183.159 175.079 183.926 175.914 183.926 176.895V183.277C183.926 184.258 183.205 185.093 182.257 185.093Z" fill="#F6CFB5"/>
<path d="M185.261 184.425C184.549 184.425 183.926 183.749 183.926 182.866V177.306C183.926 176.474 184.505 175.747 185.261 175.747C185.973 175.747 186.597 176.422 186.597 177.306V182.866C186.597 183.749 186.018 184.425 185.261 184.425Z" fill="#F6CFB5"/>
<path d="M178.193 186.204L178.146 186.254C177.221 186.702 176.157 186.254 175.74 185.259L174.074 181.228C173.658 180.233 174.074 179.088 175 178.641L175.046 178.591C175.971 178.143 177.036 178.591 177.452 179.586L179.118 183.617C179.488 184.612 179.072 185.756 178.193 186.204Z" fill="#F6CFB5"/>
<path d="M117.506 211.463C98.518 211.463 83.1255 195.921 83.1255 176.749C83.1255 157.577 98.518 142.035 117.506 142.035C136.493 142.035 151.886 157.577 151.886 176.749C151.886 195.921 136.493 211.463 117.506 211.463Z" fill="#F9892E"/>
<g filter="url(#filter1_d)">
<path d="M110.692 127.014H147.249C153.778 127.014 159 121.673 159 114.997C159 108.322 153.778 102.981 147.249 102.981H110.692C104.164 102.981 98.9418 108.322 98.9418 114.997C98.5066 121.673 104.164 127.014 110.692 127.014Z" fill="#4876D0"/>
</g>
<g filter="url(#filter2_i)">
<path d="M146.942 109.657H117.676C115.929 109.657 114.619 108.226 114.619 106.319C114.619 104.411 115.929 102.981 117.676 102.981H146.942C148.69 102.981 150 104.411 150 106.319C150 108.226 148.69 109.657 146.942 109.657Z" fill="#002439"/>
</g>
<g filter="url(#filter3_d)">
<path d="M93.0141 81.94H142.662C145.51 81.94 147.545 79.9929 147.545 77.267C147.545 74.5411 145.51 72.594 142.662 72.594H93.0141C90.1655 72.594 88.1308 74.5411 88.1308 77.267C88.1308 79.9929 90.1655 81.94 93.0141 81.94Z" fill="#ECBCAE"/>
</g>
<g filter="url(#filter4_d)">
<path d="M117.504 111.981C131.416 111.981 142.872 100.625 142.872 86.8356V61.6902C142.872 47.9009 131.416 36.5449 117.504 36.5449C103.593 36.5449 92.1364 47.9009 92.1364 61.6902V86.8356C92.1364 100.625 103.593 111.981 117.504 111.981Z" fill="#F7D0B6"/>
</g>
<g filter="url(#filter5_d)">
<path d="M121.509 65.9183V51.2472C121.509 49.1513 123.067 47.8938 125.014 47.8938H132.024C133.971 47.8938 135.528 49.5705 135.528 51.2472V52.5047L121.509 65.9183Z" fill="#333333"/>
</g>
<g filter="url(#filter6_d)">
<path d="M142.872 62.5803V48.4526C142.872 46.4343 141.24 45.2234 139.2 45.2234H131.857C129.817 45.2234 128.185 46.838 128.185 48.4526V49.6635L142.872 62.5803Z" fill="#333333"/>
</g>
<g filter="url(#filter7_d)">
<path d="M138.199 63.9155V49.7878C138.199 47.7695 136.567 46.5586 134.527 46.5586H127.184C125.144 46.5586 123.512 48.1732 123.512 49.7878V50.9987L138.199 63.9155Z" fill="#333333"/>
</g>
<g filter="url(#filter8_d)">
<path d="M92.1361 63.9155V49.7878C92.1361 47.7695 93.768 46.5586 95.8078 46.5586H103.151C105.191 46.5586 106.823 48.1732 106.823 49.7878V50.9987L92.1361 63.9155Z" fill="#333333"/>
</g>
<g filter="url(#filter9_d)">
<path d="M117.504 62.5804V50.8311C117.504 49.1527 118.72 47.8938 120.341 47.8938H126.016C127.637 47.8938 128.853 49.1527 128.853 50.8311V51.6704L117.504 62.5804Z" fill="#333333"/>
</g>
<g filter="url(#filter10_d)">
<path d="M98.1448 62.5804V50.8311C98.1448 49.1527 99.4323 47.8938 101.149 47.8938H107.157C108.874 47.8938 110.161 49.1527 110.161 50.8311V51.6704L98.1448 62.5804Z" fill="#333333"/>
</g>
<g filter="url(#filter11_d)">
<path d="M92.5423 57.2397H142.872V43.3502C142.872 35.9969 136.784 29.8691 129.478 29.8691H105.531C98.2247 29.8691 92.1364 35.9969 92.1364 43.3502V57.2397H92.5423Z" fill="#85B1F5"/>
</g>
<g filter="url(#filter12_i)">
<path d="M116.169 50.564H132.858V50.1507C132.858 45.6048 129.103 41.8855 124.514 41.8855C119.924 41.8855 116.169 45.6048 116.169 50.564Z" fill="#333333"/>
</g>
<g filter="url(#filter13_d)">
<path d="M76.5421 57.2399H143.78C144.995 57.2399 146.21 56.0717 146.21 54.9034C146.21 53.7352 144.995 52.5669 143.78 52.5669H76.5421C75.327 52.5669 74.1119 53.7352 74.1119 54.9034C74.1119 56.0717 75.327 57.2399 76.5421 57.2399Z" fill="#5B93E8"/>
</g>
<g filter="url(#filter14_d)">
<path fill-rule="evenodd" clip-rule="evenodd" d="M69.1015 123.718C75.3034 125.76 81.6083 126.598 87.7699 126.364L95.9211 136.492C86.0883 138.071 75.7588 137.394 65.6893 134.077C52.8461 129.846 42.1965 121.745 34.4372 111.84C32.2196 108.813 33.5845 104.669 37.167 103.553C37.167 103.553 37.5813 103.689 37.7178 103.275C39.7844 102.578 41.8559 103.26 43.1036 105.049C49.4787 113.579 58.3298 120.17 69.1015 123.718Z" fill="#4876D0"/>
</g>
<g filter="url(#filter15_d)">
<path d="M152 143.035C152 123.863 136.458 108.322 117.286 108.322V108.322C98.1142 108.322 82.5722 123.863 82.5722 143.035V195.106H152V143.035Z" fill="#5B93E8"/>
</g>
<path d="M125.595 128.549C122.704 128.549 120.36 126.206 120.36 123.315C120.36 120.424 122.704 118.081 125.595 118.081C128.486 118.081 130.83 120.424 130.83 123.315C130.83 126.206 128.486 128.549 125.595 128.549Z" fill="#FDC572"/>
<path d="M125.594 126.368C123.907 126.368 122.54 125.001 122.54 123.315C122.54 121.628 123.907 120.261 125.594 120.261C127.281 120.261 128.648 121.628 128.648 123.315C128.648 125.001 127.281 126.368 125.594 126.368Z" fill="#445057"/>
<g filter="url(#filter16_d)">
<path d="M125.594 161.263C126.903 161.263 127.775 160.391 127.775 159.082V123.751C127.775 122.442 126.903 121.57 125.594 121.57C124.285 121.57 123.413 122.442 123.413 123.751V159.082C123.413 160.391 124.285 161.263 125.594 161.263Z" fill="white"/>
</g>
<path d="M110.762 128.549C107.871 128.549 105.527 126.206 105.527 123.315C105.527 120.424 107.871 118.081 110.762 118.081C113.653 118.081 115.997 120.424 115.997 123.315C115.997 126.206 113.653 128.549 110.762 128.549Z" fill="#FDC572"/>
<path d="M110.762 126.368C109.075 126.368 107.708 125.001 107.708 123.315C107.708 121.628 109.075 120.261 110.762 120.261C112.448 120.261 113.815 121.628 113.815 123.315C113.815 125.001 112.448 126.368 110.762 126.368Z" fill="#445057"/>
<g filter="url(#filter17_d)">
<path d="M110.762 161.263C112.07 161.263 112.943 160.391 112.943 159.082V123.751C112.943 122.442 112.07 121.57 110.762 121.57C109.453 121.57 108.58 122.442 108.58 123.751V159.082C109.016 160.391 109.889 161.263 110.762 161.263Z" fill="white"/>
</g>
<path d="M221 190H0V212H221V190Z" fill="#F4F8FF"/>
<g filter="url(#filter18_d)">
<path d="M99.8662 115.665H136.074C138.255 115.665 140 114.033 140 111.993C140 109.953 138.255 108.322 136.074 108.322H99.8662C97.685 108.322 95.9401 109.953 95.9401 111.993C95.9401 114.033 97.685 115.665 99.8662 115.665Z" fill="#85B1F5"/>
</g>
<path d="M130 173H106V187H130V173Z" fill="#8B8B8B"/>
<path d="M154.001 182.771H82.1409C73.2965 182.771 66 175.537 66 166.605V122.166C66 113.308 73.2228 106 82.1409 106H154.001C162.845 106 170.142 113.234 170.142 122.166V166.605C170.142 175.537 162.919 182.771 154.001 182.771Z" fill="#D8E1F0"/>
<path d="M150.422 190.433C149.536 187.044 143.998 184.425 137.279 184.425H98.1435C91.4241 184.425 85.8122 187.044 85 190.433H150.422Z" fill="#D8E1F0"/>
<g filter="url(#filter19_d)">
<path fill-rule="evenodd" clip-rule="evenodd" d="M31.0622 73.2044C30.1917 73.4011 29.6455 74.2661 29.8421 75.1365L32.5245 87.0114C31.1494 86.5912 29.6318 86.5954 28.1747 87.1196C24.5863 88.4105 22.7238 92.3659 24.0146 95.9543L26.7415 103.534C28.0324 107.123 31.9878 108.985 35.5761 107.694C39.1645 106.404 41.027 102.448 39.7362 98.8598L37.0093 91.2796C36.8855 90.9354 36.7371 90.6071 36.5669 90.2958C36.5604 90.2301 36.5497 90.1641 36.5348 90.098L32.9943 74.4245C32.7976 73.554 31.9326 73.0078 31.0622 73.2044Z" fill="#F7D0B6"/>
</g>
<g filter="url(#filter20_d)">
<rect x="21.6165" y="91.7095" width="2.60883" height="4.66295" rx="1.30441" transform="rotate(-34.7854 21.6165 91.7095)" fill="#F7D0B6"/>
</g>
<g filter="url(#filter21_d)">
<rect x="22.8992" y="88.5955" width="2.69432" height="7.67727" rx="1.34716" transform="rotate(-25.3346 22.8992 88.5955)" fill="#F7D0B6"/>
</g>
<g filter="url(#filter22_d)">
<rect x="25.2297" y="85.7334" width="2.30165" height="9.20661" rx="1.15083" transform="rotate(-19.7854 25.2297 85.7334)" fill="#F7D0B6"/>
</g>
<g filter="url(#filter23_d)">
<path d="M128.134 80.1931C127.011 80.1931 126.1 79.2829 126.1 78.16C126.1 77.0372 127.011 76.127 128.134 76.127C129.257 76.127 130.167 77.0372 130.167 78.16C130.167 79.2829 129.257 80.1931 128.134 80.1931Z" fill="#333333"/>
<path d="M124.874 72.2685H130.161C131.381 72.2685 132.602 71.0487 132.602 69.8289C132.602 68.609 131.381 67.3892 130.161 67.3892H124.874C123.654 67.3892 122.434 68.609 122.434 69.8289C122.841 71.4553 123.654 72.2685 124.874 72.2685Z" fill="#333333"/>
<path d="M105.091 75.2502L110.285 74.2614C111.483 74.0332 112.453 72.6067 112.225 71.4084C111.997 70.21 110.57 69.2399 109.372 69.4681L104.178 70.4569C102.98 70.6851 102.009 72.1116 102.237 73.3099C102.542 74.9077 103.892 75.4784 105.091 75.2502Z" fill="#333333"/>
<rect x="104.833" y="77.0068" width="5.54663" height="1.38666" rx="0.693329" fill="#333333"/>
</g>
<g filter="url(#filter24_i)">
<path d="M127.518 89.2915C127.518 94.5253 123.259 98.6376 117.838 98.6376C112.417 98.6376 108.158 94.5253 108.158 89.2915H127.518Z" fill="white"/>
</g>
<g filter="url(#filter25_d)">
<rect width="2.66956" height="9.82614" rx="1.33478" transform="matrix(-0.965735 0.25953 -0.249645 -0.968337 33.0801 93.1362)" fill="#F7D0B6"/>
</g>
<defs>
<filter id="filter0_d" x="147.552" y="113.853" width="43.3391" height="73.3111" filterUnits="userSpaceOnUse" color-interpolation-filters="sRGB">
<feFlood flood-opacity="0" result="BackgroundImageFix"/>
<feColorMatrix in="SourceAlpha" type="matrix" values="0 0 0 0 0 0 0 0 0 0 0 0 0 0 0 0 0 0 127 0"/>
<feOffset dy="1"/>
<feGaussianBlur stdDeviation="2.5"/>
<feColorMatrix type="matrix" values="0 0 0 0 0 0 0 0 0 0 0 0 0 0 0 0 0 0 0.35 0"/>
<feBlend mode="normal" in2="BackgroundImageFix" result="effect1_dropShadow"/>
<feBlend mode="normal" in="SourceGraphic" in2="effect1_dropShadow" result="shape"/>
</filter>
<filter id="filter1_d" x="93.9182" y="98.981" width="70.0817" height="34.0327" filterUnits="userSpaceOnUse" color-interpolation-filters="sRGB">
<feFlood flood-opacity="0" result="BackgroundImageFix"/>
<feColorMatrix in="SourceAlpha" type="matrix" values="0 0 0 0 0 0 0 0 0 0 0 0 0 0 0 0 0 0 127 0"/>
<feOffset dy="1"/>
<feGaussianBlur stdDeviation="2.5"/>
<feColorMatrix type="matrix" values="0 0 0 0 0 0 0 0 0 0 0 0 0 0 0 0 0 0 0.35 0"/>
<feBlend mode="normal" in2="BackgroundImageFix" result="effect1_dropShadow"/>
<feBlend mode="normal" in="SourceGraphic" in2="effect1_dropShadow" result="shape"/>
</filter>
<filter id="filter2_i" x="114.619" y="102.981" width="35.3815" height="7.67575" filterUnits="userSpaceOnUse" color-interpolation-filters="sRGB">
<feFlood flood-opacity="0" result="BackgroundImageFix"/>
<feBlend mode="normal" in="SourceGraphic" in2="BackgroundImageFix" result="shape"/>
<feColorMatrix in="SourceAlpha" type="matrix" values="0 0 0 0 0 0 0 0 0 0 0 0 0 0 0 0 0 0 127 0" result="hardAlpha"/>
<feOffset dy="1"/>
<feGaussianBlur stdDeviation="2"/>
<feComposite in2="hardAlpha" operator="arithmetic" k2="-1" k3="1"/>
<feColorMatrix type="matrix" values="0 0 0 0 0 0 0 0 0 0 0 0 0 0 0 0 0 0 0.4 0"/>
<feBlend mode="normal" in2="shape" result="effect1_innerShadow"/>
</filter>
<filter id="filter3_d" x="84.1309" y="69.594" width="67.4142" height="17.346" filterUnits="userSpaceOnUse" color-interpolation-filters="sRGB">
<feFlood flood-opacity="0" result="BackgroundImageFix"/>
<feColorMatrix in="SourceAlpha" type="matrix" values="0 0 0 0 0 0 0 0 0 0 0 0 0 0 0 0 0 0 127 0"/>
<feOffset dy="1"/>
<feGaussianBlur stdDeviation="2"/>
<feColorMatrix type="matrix" values="0 0 0 0 0 0 0 0 0 0 0 0 0 0 0 0 0 0 0.17 0"/>
<feBlend mode="normal" in2="BackgroundImageFix" result="effect1_dropShadow"/>
<feBlend mode="normal" in="SourceGraphic" in2="effect1_dropShadow" result="shape"/>
</filter>
<filter id="filter4_d" x="88.1365" y="33.5449" width="58.7357" height="83.436" filterUnits="userSpaceOnUse" color-interpolation-filters="sRGB">
<feFlood flood-opacity="0" result="BackgroundImageFix"/>
<feColorMatrix in="SourceAlpha" type="matrix" values="0 0 0 0 0 0 0 0 0 0 0 0 0 0 0 0 0 0 127 0"/>
<feOffset dy="1"/>
<feGaussianBlur stdDeviation="2"/>
<feColorMatrix type="matrix" values="0 0 0 0 0 0 0 0 0 0 0 0 0 0 0 0 0 0 0.17 0"/>
<feBlend mode="normal" in2="BackgroundImageFix" result="effect1_dropShadow"/>
<feBlend mode="normal" in="SourceGraphic" in2="effect1_dropShadow" result="shape"/>
</filter>
<filter id="filter5_d" x="116.509" y="43.8938" width="24.0191" height="28.0245" filterUnits="userSpaceOnUse" color-interpolation-filters="sRGB">
<feFlood flood-opacity="0" result="BackgroundImageFix"/>
<feColorMatrix in="SourceAlpha" type="matrix" values="0 0 0 0 0 0 0 0 0 0 0 0 0 0 0 0 0 0 127 0"/>
<feOffset dy="1"/>
<feGaussianBlur stdDeviation="2.5"/>
<feColorMatrix type="matrix" values="0 0 0 0 0 0 0 0 0 0 0 0 0 0 0 0 0 0 0.35 0"/>
<feBlend mode="normal" in2="BackgroundImageFix" result="effect1_dropShadow"/>
<feBlend mode="normal" in="SourceGraphic" in2="effect1_dropShadow" result="shape"/>
</filter>
<filter id="filter6_d" x="123.185" y="41.2234" width="24.6866" height="27.3569" filterUnits="userSpaceOnUse" color-interpolation-filters="sRGB">
<feFlood flood-opacity="0" result="BackgroundImageFix"/>
<feColorMatrix in="SourceAlpha" type="matrix" values="0 0 0 0 0 0 0 0 0 0 0 0 0 0 0 0 0 0 127 0"/>
<feOffset dy="1"/>
<feGaussianBlur stdDeviation="2.5"/>
<feColorMatrix type="matrix" values="0 0 0 0 0 0 0 0 0 0 0 0 0 0 0 0 0 0 0.35 0"/>
<feBlend mode="normal" in2="BackgroundImageFix" result="effect1_dropShadow"/>
<feBlend mode="normal" in="SourceGraphic" in2="effect1_dropShadow" result="shape"/>
</filter>
<filter id="filter7_d" x="118.512" y="42.5586" width="24.6866" height="27.3569" filterUnits="userSpaceOnUse" color-interpolation-filters="sRGB">
<feFlood flood-opacity="0" result="BackgroundImageFix"/>
<feColorMatrix in="SourceAlpha" type="matrix" values="0 0 0 0 0 0 0 0 0 0 0 0 0 0 0 0 0 0 127 0"/>
<feOffset dy="1"/>
<feGaussianBlur stdDeviation="2.5"/>
<feColorMatrix type="matrix" values="0 0 0 0 0 0 0 0 0 0 0 0 0 0 0 0 0 0 0.35 0"/>
<feBlend mode="normal" in2="BackgroundImageFix" result="effect1_dropShadow"/>
<feBlend mode="normal" in="SourceGraphic" in2="effect1_dropShadow" result="shape"/>
</filter>
<filter id="filter8_d" x="87.136" y="42.5586" width="24.6866" height="27.3569" filterUnits="userSpaceOnUse" color-interpolation-filters="sRGB">
<feFlood flood-opacity="0" result="BackgroundImageFix"/>
<feColorMatrix in="SourceAlpha" type="matrix" values="0 0 0 0 0 0 0 0 0 0 0 0 0 0 0 0 0 0 127 0"/>
<feOffset dy="1"/>
<feGaussianBlur stdDeviation="2.5"/>
<feColorMatrix type="matrix" values="0 0 0 0 0 0 0 0 0 0 0 0 0 0 0 0 0 0 0.35 0"/>
<feBlend mode="normal" in2="BackgroundImageFix" result="effect1_dropShadow"/>
<feBlend mode="normal" in="SourceGraphic" in2="effect1_dropShadow" result="shape"/>
</filter>
<filter id="filter9_d" x="112.504" y="43.8938" width="21.3488" height="24.6866" filterUnits="userSpaceOnUse" color-interpolation-filters="sRGB">
<feFlood flood-opacity="0" result="BackgroundImageFix"/>
<feColorMatrix in="SourceAlpha" type="matrix" values="0 0 0 0 0 0 0 0 0 0 0 0 0 0 0 0 0 0 127 0"/>
<feOffset dy="1"/>
<feGaussianBlur stdDeviation="2.5"/>
<feColorMatrix type="matrix" values="0 0 0 0 0 0 0 0 0 0 0 0 0 0 0 0 0 0 0.35 0"/>
<feBlend mode="normal" in2="BackgroundImageFix" result="effect1_dropShadow"/>
<feBlend mode="normal" in="SourceGraphic" in2="effect1_dropShadow" result="shape"/>
</filter>
<filter id="filter10_d" x="93.1448" y="43.8938" width="22.0163" height="24.6866" filterUnits="userSpaceOnUse" color-interpolation-filters="sRGB">
<feFlood flood-opacity="0" result="BackgroundImageFix"/>
<feColorMatrix in="SourceAlpha" type="matrix" values="0 0 0 0 0 0 0 0 0 0 0 0 0 0 0 0 0 0 127 0"/>
<feOffset dy="1"/>
<feGaussianBlur stdDeviation="2.5"/>
<feColorMatrix type="matrix" values="0 0 0 0 0 0 0 0 0 0 0 0 0 0 0 0 0 0 0.35 0"/>
<feBlend mode="normal" in2="BackgroundImageFix" result="effect1_dropShadow"/>
<feBlend mode="normal" in="SourceGraphic" in2="effect1_dropShadow" result="shape"/>
</filter>
<filter id="filter11_d" x="88.1365" y="26.8691" width="58.7357" height="35.3706" filterUnits="userSpaceOnUse" color-interpolation-filters="sRGB">
<feFlood flood-opacity="0" result="BackgroundImageFix"/>
<feColorMatrix in="SourceAlpha" type="matrix" values="0 0 0 0 0 0 0 0 0 0 0 0 0 0 0 0 0 0 127 0"/>
<feOffset dy="1"/>
<feGaussianBlur stdDeviation="2"/>
<feColorMatrix type="matrix" values="0 0 0 0 0 0 0 0 0 0 0 0 0 0 0 0 0 0 0.17 0"/>
<feBlend mode="normal" in2="BackgroundImageFix" result="effect1_dropShadow"/>
<feBlend mode="normal" in="SourceGraphic" in2="effect1_dropShadow" result="shape"/>
</filter>
<filter id="filter12_i" x="116.169" y="41.8855" width="16.6894" height="9.67847" filterUnits="userSpaceOnUse" color-interpolation-filters="sRGB">
<feFlood flood-opacity="0" result="BackgroundImageFix"/>
<feBlend mode="normal" in="SourceGraphic" in2="BackgroundImageFix" result="shape"/>
<feColorMatrix in="SourceAlpha" type="matrix" values="0 0 0 0 0 0 0 0 0 0 0 0 0 0 0 0 0 0 127 0" result="hardAlpha"/>
<feOffset dy="1"/>
<feGaussianBlur stdDeviation="2"/>
<feComposite in2="hardAlpha" operator="arithmetic" k2="-1" k3="1"/>
<feColorMatrix type="matrix" values="0 0 0 0 0 0 0 0 0 0 0 0 0 0 0 0 0 0 0.4 0"/>
<feBlend mode="normal" in2="shape" result="effect1_innerShadow"/>
</filter>
<filter id="filter13_d" x="69.1118" y="48.5669" width="82.0981" height="14.673" filterUnits="userSpaceOnUse" color-interpolation-filters="sRGB">
<feFlood flood-opacity="0" result="BackgroundImageFix"/>
<feColorMatrix in="SourceAlpha" type="matrix" values="0 0 0 0 0 0 0 0 0 0 0 0 0 0 0 0 0 0 127 0"/>
<feOffset dy="1"/>
<feGaussianBlur stdDeviation="2.5"/>
<feColorMatrix type="matrix" values="0 0 0 0 0 0 0 0 0 0 0 0 0 0 0 0 0 0 0.35 0"/>
<feBlend mode="normal" in2="BackgroundImageFix" result="effect1_dropShadow"/>
<feBlend mode="normal" in="SourceGraphic" in2="effect1_dropShadow" result="shape"/>
</filter>
<filter id="filter14_d" x="26.21" y="83.4958" width="74.7111" height="79.3403" filterUnits="userSpaceOnUse" color-interpolation-filters="sRGB">
<feFlood flood-opacity="0" result="BackgroundImageFix"/>
<feColorMatrix in="SourceAlpha" type="matrix" values="0 0 0 0 0 0 0 0 0 0 0 0 0 0 0 0 0 0 127 0"/>
<feOffset dy="1"/>
<feGaussianBlur stdDeviation="2.5"/>
<feColorMatrix type="matrix" values="0 0 0 0 0 0 0 0 0 0 0 0 0 0 0 0 0 0 0.35 0"/>
<feBlend mode="normal" in2="BackgroundImageFix" result="effect1_dropShadow"/>
<feBlend mode="normal" in="SourceGraphic" in2="effect1_dropShadow" result="shape"/>
</filter>
<filter id="filter15_d" x="77.5723" y="104.322" width="79.4278" height="96.7847" filterUnits="userSpaceOnUse" color-interpolation-filters="sRGB">
<feFlood flood-opacity="0" result="BackgroundImageFix"/>
<feColorMatrix in="SourceAlpha" type="matrix" values="0 0 0 0 0 0 0 0 0 0 0 0 0 0 0 0 0 0 127 0"/>
<feOffset dy="1"/>
<feGaussianBlur stdDeviation="2.5"/>
<feColorMatrix type="matrix" values="0 0 0 0 0 0 0 0 0 0 0 0 0 0 0 0 0 0 0.35 0"/>
<feBlend mode="normal" in2="BackgroundImageFix" result="effect1_dropShadow"/>
<feBlend mode="normal" in="SourceGraphic" in2="effect1_dropShadow" result="shape"/>
</filter>
<filter id="filter16_d" x="118.413" y="117.57" width="14.3627" height="49.6934" filterUnits="userSpaceOnUse" color-interpolation-filters="sRGB">
<feFlood flood-opacity="0" result="BackgroundImageFix"/>
<feColorMatrix in="SourceAlpha" type="matrix" values="0 0 0 0 0 0 0 0 0 0 0 0 0 0 0 0 0 0 127 0"/>
<feOffset dy="1"/>
<feGaussianBlur stdDeviation="2.5"/>
<feColorMatrix type="matrix" values="0 0 0 0 0 0 0 0 0 0 0 0 0 0 0 0 0 0 0.35 0"/>
<feBlend mode="normal" in2="BackgroundImageFix" result="effect1_dropShadow"/>
<feBlend mode="normal" in="SourceGraphic" in2="effect1_dropShadow" result="shape"/>
</filter>
<filter id="filter17_d" x="103.58" y="117.57" width="14.3627" height="49.6934" filterUnits="userSpaceOnUse" color-interpolation-filters="sRGB">
<feFlood flood-opacity="0" result="BackgroundImageFix"/>
<feColorMatrix in="SourceAlpha" type="matrix" values="0 0 0 0 0 0 0 0 0 0 0 0 0 0 0 0 0 0 127 0"/>
<feOffset dy="1"/>
<feGaussianBlur stdDeviation="2.5"/>
<feColorMatrix type="matrix" values="0 0 0 0 0 0 0 0 0 0 0 0 0 0 0 0 0 0 0.35 0"/>
<feBlend mode="normal" in2="BackgroundImageFix" result="effect1_dropShadow"/>
<feBlend mode="normal" in="SourceGraphic" in2="effect1_dropShadow" result="shape"/>
</filter>
<filter id="filter18_d" x="91.9399" y="105.322" width="52.0599" height="15.3433" filterUnits="userSpaceOnUse" color-interpolation-filters="sRGB">
<feFlood flood-opacity="0" result="BackgroundImageFix"/>
<feColorMatrix in="SourceAlpha" type="matrix" values="0 0 0 0 0 0 0 0 0 0 0 0 0 0 0 0 0 0 127 0"/>
<feOffset dy="1"/>
<feGaussianBlur stdDeviation="2"/>
<feColorMatrix type="matrix" values="0 0 0 0 0 0 0 0 0 0 0 0 0 0 0 0 0 0 0.17 0"/>
<feBlend mode="normal" in2="BackgroundImageFix" result="effect1_dropShadow"/>
<feBlend mode="normal" in="SourceGraphic" in2="effect1_dropShadow" result="shape"/>
</filter>
<filter id="filter19_d" x="13.5718" y="69.7129" width="34.327" height="45.3189" filterUnits="userSpaceOnUse" color-interpolation-filters="sRGB">
<feFlood flood-opacity="0" result="BackgroundImageFix"/>
<feColorMatrix in="SourceAlpha" type="matrix" values="0 0 0 0 0 0 0 0 0 0 0 0 0 0 0 0 0 0 127 0"/>
<feOffset dy="1"/>
<feGaussianBlur stdDeviation="2"/>
<feColorMatrix type="matrix" values="0 0 0 0 0 0 0 0 0 0 0 0 0 0 0 0 0 0 0.17 0"/>
<feBlend mode="normal" in2="BackgroundImageFix" result="effect1_dropShadow"/>
<feBlend mode="normal" in="SourceGraphic" in2="effect1_dropShadow" result="shape"/>
</filter>
<filter id="filter20_d" x="17.6165" y="87.2212" width="12.8028" height="13.318" filterUnits="userSpaceOnUse" color-interpolation-filters="sRGB">
<feFlood flood-opacity="0" result="BackgroundImageFix"/>
<feColorMatrix in="SourceAlpha" type="matrix" values="0 0 0 0 0 0 0 0 0 0 0 0 0 0 0 0 0 0 127 0"/>
<feOffset dy="1"/>
<feGaussianBlur stdDeviation="2"/>
<feColorMatrix type="matrix" values="0 0 0 0 0 0 0 0 0 0 0 0 0 0 0 0 0 0 0.17 0"/>
<feBlend mode="normal" in2="BackgroundImageFix" result="effect1_dropShadow"/>
<feBlend mode="normal" in="SourceGraphic" in2="effect1_dropShadow" result="shape"/>
</filter>
<filter id="filter21_d" x="18.8992" y="84.4426" width="13.7203" height="16.0918" filterUnits="userSpaceOnUse" color-interpolation-filters="sRGB">
<feFlood flood-opacity="0" result="BackgroundImageFix"/>
<feColorMatrix in="SourceAlpha" type="matrix" values="0 0 0 0 0 0 0 0 0 0 0 0 0 0 0 0 0 0 127 0"/>
<feOffset dy="1"/>
<feGaussianBlur stdDeviation="2"/>
<feColorMatrix type="matrix" values="0 0 0 0 0 0 0 0 0 0 0 0 0 0 0 0 0 0 0.17 0"/>
<feBlend mode="normal" in2="BackgroundImageFix" result="effect1_dropShadow"/>
<feBlend mode="normal" in="SourceGraphic" in2="effect1_dropShadow" result="shape"/>
</filter>
<filter id="filter22_d" x="21.2297" y="81.9543" width="13.2822" height="17.4422" filterUnits="userSpaceOnUse" color-interpolation-filters="sRGB">
<feFlood flood-opacity="0" result="BackgroundImageFix"/>
<feColorMatrix in="SourceAlpha" type="matrix" values="0 0 0 0 0 0 0 0 0 0 0 0 0 0 0 0 0 0 127 0"/>
<feOffset dy="1"/>
<feGaussianBlur stdDeviation="2"/>
<feColorMatrix type="matrix" values="0 0 0 0 0 0 0 0 0 0 0 0 0 0 0 0 0 0 0.17 0"/>
<feBlend mode="normal" in2="BackgroundImageFix" result="effect1_dropShadow"/>
<feBlend mode="normal" in="SourceGraphic" in2="effect1_dropShadow" result="shape"/>
</filter>
<filter id="filter23_d" x="96.7811" y="63.3892" width="40.8205" height="22.804" filterUnits="userSpaceOnUse" color-interpolation-filters="sRGB">
<feFlood flood-opacity="0" result="BackgroundImageFix"/>
<feColorMatrix in="SourceAlpha" type="matrix" values="0 0 0 0 0 0 0 0 0 0 0 0 0 0 0 0 0 0 127 0"/>
<feOffset dy="1"/>
<feGaussianBlur stdDeviation="2.5"/>
<feColorMatrix type="matrix" values="0 0 0 0 0 0 0 0 0 0 0 0 0 0 0 0 0 0 0.35 0"/>
<feBlend mode="normal" in2="BackgroundImageFix" result="effect1_dropShadow"/>
<feBlend mode="normal" in="SourceGraphic" in2="effect1_dropShadow" result="shape"/>
</filter>
<filter id="filter24_i" x="108.158" y="89.2915" width="19.3597" height="10.346" filterUnits="userSpaceOnUse" color-interpolation-filters="sRGB">
<feFlood flood-opacity="0" result="BackgroundImageFix"/>
<feBlend mode="normal" in="SourceGraphic" in2="BackgroundImageFix" result="shape"/>
<feColorMatrix in="SourceAlpha" type="matrix" values="0 0 0 0 0 0 0 0 0 0 0 0 0 0 0 0 0 0 127 0" result="hardAlpha"/>
<feOffset dy="1"/>
<feGaussianBlur stdDeviation="2"/>
<feComposite in2="hardAlpha" operator="arithmetic" k2="-1" k3="1"/>
<feColorMatrix type="matrix" values="0 0 0 0 0 0 0 0 0 0 0 0 0 0 0 0 0 0 0.4 0"/>
<feBlend mode="normal" in2="shape" result="effect1_innerShadow"/>
</filter>
<filter id="filter25_d" x="24.3394" y="80.9216" width="12.4501" height="17.6069" filterUnits="userSpaceOnUse" color-interpolation-filters="sRGB">
<feFlood flood-opacity="0" result="BackgroundImageFix"/>
<feColorMatrix in="SourceAlpha" type="matrix" values="0 0 0 0 0 0 0 0 0 0 0 0 0 0 0 0 0 0 127 0"/>
<feOffset dy="1"/>
<feGaussianBlur stdDeviation="2"/>
<feColorMatrix type="matrix" values="0 0 0 0 0 0 0 0 0 0 0 0 0 0 0 0 0 0 0.17 0"/>
<feBlend mode="normal" in2="BackgroundImageFix" result="effect1_dropShadow"/>
<feBlend mode="normal" in="SourceGraphic" in2="effect1_dropShadow" result="shape"/>
</filter>
</defs>
</svg>
