<svg width="16" height="16" viewBox="0 0 16 16" fill="none" xmlns="http://www.w3.org/2000/svg">
<path d="M15.856 15.184L11.968 11.296C13.008 10.096 13.648 8.528 13.648 6.816C13.648 3.056 10.576 0 6.816 0C3.056 0 0 3.056 0 6.816C0 10.576 3.056 13.632 6.816 13.632C8.528 13.632 10.096 13.008 11.296 11.952L15.184 15.84C15.28 15.936 15.408 15.984 15.52 15.984C15.648 15.984 15.76 15.936 15.856 15.84C16.048 15.68 16.048 15.376 15.856 15.184ZM0.96 6.816C0.96 3.584 3.584 0.96 6.816 0.96C10.048 0.96 12.688 3.6 12.688 6.832C12.688 10.064 10.048 12.688 6.816 12.688C3.584 12.688 0.96 10.064 0.96 6.816Z" fill="#8B8B8B"/>
</svg>
